G04*
G04 Format:               Gerber RS-274X*
G04 Layer:                TopSilkscreen*
G04 This File Name:       5 T-Amp - Stereo.gto*
G04 Source File Name:     5 T-Amp - Stereo.pcb*
G04 Unique ID:            ade3dfdf-7e2b-446b-93ed-1f2b3b6aaaa2*
G04 Generated Date:       Sunday, 16 June 2024 12:46:47*
G04*
G04 Created Using:        Robot Room Copper Connection v2.7.5443*
G04 Software Contact:     http://www.robotroom.com/CopperConnection/Support.aspx*
G04 License Number:       1685*
G04 Student Edition:      true*
G04*
G04 Zero Suppression:     Leading*
G04 Number Precision:     2.4*
G04*
%FSLAX24Y24*%
%MOIN*%
%LNTopSilkscreen*%
%ADD10C,.006*%
%ADD11C,.0062*%
%ADD12C,.0071*%
%ADD13C,.0079*%
%ADD14C,.0094*%
%ADD15C,.0109*%
%ADD16C,.012*%
%ADD17C,.0126*%
%ADD18C,.0141*%
%ADD19C,.0212*%
%ADD20C,.03*%
%ADD21C,.056*%
%ADD22C,.075*%
%ADD23C,.08*%
%ADD24C,.1*%
%ADD25C,.13*%
%ADD26C,.14*%
%ADD27C,.15*%
%ADD28R,.006X.006*%
%ADD29R,.075X.075*%
%ADD30R,.08X.08*%
%ADD31R,.13X.13*%
%ADD32R,.14X.14*%
%ADD33R,.15X.15*%
%ADD34R,.25X.25*%
D10*
G01X36300Y44900D02*
Y44709D01*
X36236Y44645D01*
X36173D01*
X36109Y44709D01*
Y44836D01*
Y44709D02*
X36045Y44645D01*
X35981D01*
X35918Y44709D01*
Y44900D01*
X36300Y44836D02*
X35918D01*
X35981Y42350D02*
X35918Y42414D01*
Y42541D01*
X35981Y42605D01*
X36236D01*
X36300Y42541D01*
Y42414D01*
X36236Y42350D01*
X35918Y40055D02*
Y40310D01*
X36109D01*
X36300D01*
Y40055D01*
X36109Y40310D02*
Y40119D01*
X36300Y63650D02*
Y63459D01*
X36236Y63395D01*
X36173D01*
X36109Y63459D01*
Y63586D01*
Y63459D02*
X36045Y63395D01*
X35981D01*
X35918Y63459D01*
Y63650D01*
X36300Y63586D02*
X35918D01*
X35981Y61100D02*
X35918Y61164D01*
Y61291D01*
X35981Y61355D01*
X36236D01*
X36300Y61291D01*
Y61164D01*
X36236Y61100D01*
X35918Y58805D02*
Y59060D01*
X36109D01*
X36300D01*
Y58805D01*
X36109Y59060D02*
Y58869D01*
X36300Y8900D02*
Y8709D01*
X36236Y8645D01*
X36173D01*
X36109Y8709D01*
Y8836D01*
Y8709D02*
X36045Y8645D01*
X35981D01*
X35918Y8709D01*
Y8900D01*
X36300Y8836D02*
X35918D01*
X35981Y6350D02*
X35918Y6414D01*
Y6541D01*
X35981Y6605D01*
X36236D01*
X36300Y6541D01*
Y6414D01*
X36236Y6350D01*
X35918Y4055D02*
Y4310D01*
X36109D01*
X36300D01*
Y4055D01*
X36109Y4310D02*
Y4119D01*
X36300Y27650D02*
Y27459D01*
X36236Y27395D01*
X36173D01*
X36109Y27459D01*
Y27586D01*
Y27459D02*
X36045Y27395D01*
X35981D01*
X35918Y27459D01*
Y27650D01*
X36300Y27586D02*
X35918D01*
X35981Y25100D02*
X35918Y25164D01*
Y25291D01*
X35981Y25355D01*
X36236D01*
X36300Y25291D01*
Y25164D01*
X36236Y25100D01*
X35918Y22805D02*
Y23060D01*
X36109D01*
X36300D01*
Y22805D01*
X36109Y23060D02*
Y22869D01*
X17370Y49100D02*
X17752D01*
X17370D02*
Y49291D01*
X17434Y49355D01*
X17497D01*
X17561Y49291D01*
Y49100D01*
Y49164D02*
X17752Y49355D01*
X17434Y49546D02*
X17370Y49610D01*
X17752D01*
Y49546D02*
Y49674D01*
X17625Y49865D02*
X17561Y49929D01*
Y50056D01*
X17625Y50120D01*
X17689D01*
X17752Y50056D01*
Y49929D01*
X17689Y49865D01*
X17625D01*
X17497D01*
X17370Y49992D01*
Y50056D01*
X4819Y63755D02*
X4883Y63691D01*
Y63564D01*
X4819Y63500D01*
X4564D01*
X4500Y63564D01*
Y63691D01*
X4564Y63755D01*
Y63946D02*
X4500Y64010D01*
X4883D01*
Y63946D02*
Y64074D01*
X3069Y66255D02*
X3132Y66191D01*
Y66064D01*
X3069Y66000D01*
X2814D01*
X2750Y66064D01*
Y66191D01*
X2814Y66255D01*
Y66446D02*
X2750Y66510D01*
X3132D01*
Y66446D02*
Y66574D01*
X3069Y66765D02*
X2814D01*
X2750Y66829D01*
Y66956D01*
X2814Y67020D01*
X3069D01*
X3132Y66956D01*
Y66829D01*
X3069Y66765D01*
X2814Y67020D02*
X3069Y66765D01*
X18255Y54431D02*
X18191Y54367D01*
X18064D01*
X18000Y54431D01*
Y54686D01*
X18064Y54750D01*
X18191D01*
X18255Y54686D01*
X18446D02*
X18510Y54750D01*
Y54367D01*
X18446D02*
X18574D01*
X18829Y54686D02*
X18892Y54750D01*
Y54367D01*
X18829D02*
X18956D01*
X16319Y64755D02*
X16383Y64691D01*
Y64564D01*
X16319Y64500D01*
X16064D01*
X16000Y64564D01*
Y64691D01*
X16064Y64755D01*
Y64946D02*
X16000Y65010D01*
X16383D01*
Y64946D02*
Y65074D01*
X16128Y65265D02*
X16000D01*
Y65520D01*
X16128Y65265D02*
Y65456D01*
X16191Y65520D01*
X16319D01*
X16383Y65456D01*
Y65329D01*
X16319Y65265D01*
X29490Y53390D02*
X29745D01*
X29618D02*
Y53007D01*
X29873Y53390D02*
Y53007D01*
Y53390D02*
X30064D01*
X30127Y53326D01*
Y53262D01*
X30064Y53199D01*
X29873D01*
X30319Y53326D02*
X30382Y53390D01*
Y53007D01*
X30319D02*
X30446D01*
X17579Y47750D02*
X17387D01*
X17324D01*
X17260Y47814D01*
Y47941D01*
X17324Y48005D01*
X17515D01*
X17642Y47877D01*
Y47814D01*
X17579Y47750D01*
X17515Y47877D02*
X17642Y48005D01*
X17515Y48387D02*
Y48132D01*
X17451D01*
X17260Y48324D01*
X17642D01*
X16319Y50255D02*
X16383Y50191D01*
Y50064D01*
X16319Y50000D01*
X16064D01*
X16000Y50064D01*
Y50191D01*
X16064Y50255D01*
Y50446D02*
X16000Y50510D01*
X16383D01*
Y50446D02*
Y50574D01*
X16064Y50765D02*
X16000D01*
Y51020D01*
X16064D01*
X16255Y50829D01*
X16383D01*
X24005Y43431D02*
X23941Y43367D01*
X23814D01*
X23750Y43431D01*
Y43686D01*
X23814Y43750D01*
X23941D01*
X24005Y43686D01*
X24196D02*
X24260Y43750D01*
Y43367D01*
X24196D02*
X24324D01*
X24579Y43559D02*
X24515Y43622D01*
Y43686D01*
X24579Y43750D01*
X24706D01*
X24770Y43686D01*
Y43622D01*
X24706Y43559D01*
X24579D01*
X24706D02*
X24770Y43495D01*
Y43431D01*
X24706Y43367D01*
X24579D01*
X24515Y43431D01*
Y43495D01*
X24579Y43559D01*
X28755Y43431D02*
X28691Y43367D01*
X28564D01*
X28500Y43431D01*
Y43686D01*
X28564Y43750D01*
X28691D01*
X28755Y43686D01*
X28946D02*
X29010Y43750D01*
Y43367D01*
X28946D02*
X29074D01*
X29520Y43622D02*
X29456Y43559D01*
X29329D01*
X29265Y43622D01*
Y43686D01*
X29329Y43750D01*
X29456D01*
X29520Y43686D01*
Y43495D01*
X29392Y43367D01*
X29329D01*
X34069Y66505D02*
X34132Y66441D01*
Y66314D01*
X34069Y66250D01*
X33814D01*
X33750Y66314D01*
Y66441D01*
X33814Y66505D01*
Y66633D02*
X33750Y66696D01*
Y66824D01*
X33814Y66887D01*
X33877D01*
X33941Y66824D01*
Y66696D01*
X34005Y66633D01*
X34132D01*
Y66887D01*
X34069Y67015D02*
X33814D01*
X33750Y67079D01*
Y67206D01*
X33814Y67270D01*
X34069D01*
X34132Y67206D01*
Y67079D01*
X34069Y67015D01*
X33814Y67270D02*
X34069Y67015D01*
X27005Y70181D02*
X26941Y70118D01*
X26814D01*
X26750Y70181D01*
Y70436D01*
X26814Y70500D01*
X26941D01*
X27005Y70436D01*
X27132D02*
X27196Y70500D01*
X27324D01*
X27387Y70436D01*
Y70373D01*
X27324Y70309D01*
X27196D01*
X27132Y70245D01*
Y70118D01*
X27387D01*
X27579Y70436D02*
X27642Y70500D01*
Y70118D01*
X27579D02*
X27706D01*
X9064Y49250D02*
X9255D01*
Y48931D01*
X9191Y48868D01*
X9064D01*
X9000Y48931D01*
X9382Y49186D02*
X9446Y49250D01*
X9574D01*
X9637Y49186D01*
Y49123D01*
X9574Y49059D01*
X9510D01*
X9574D02*
X9637Y48995D01*
Y48931D01*
X9574Y48868D01*
X9446D01*
X9382Y48931D01*
X17370Y13100D02*
X17752D01*
X17370D02*
Y13291D01*
X17434Y13355D01*
X17497D01*
X17561Y13291D01*
Y13100D01*
Y13164D02*
X17752Y13355D01*
X17434Y13546D02*
X17370Y13610D01*
X17752D01*
Y13546D02*
Y13674D01*
X17625Y13865D02*
X17561Y13929D01*
Y14056D01*
X17625Y14120D01*
X17689D01*
X17752Y14056D01*
Y13929D01*
X17689Y13865D01*
X17625D01*
X17497D01*
X17370Y13992D01*
Y14056D01*
X8250Y66731D02*
Y66923D01*
Y66986D01*
X8314Y67050D01*
X8441D01*
X8505Y66986D01*
Y66795D01*
X8377Y66667D01*
X8314D01*
X8250Y66731D01*
X8377Y66795D02*
X8505Y66667D01*
X8696Y66986D02*
X8760Y67050D01*
Y66667D01*
X8696D02*
X8824D01*
X11250Y65681D02*
Y65873D01*
Y65936D01*
X11314Y66000D01*
X11441D01*
X11505Y65936D01*
Y65745D01*
X11377Y65618D01*
X11314D01*
X11250Y65681D01*
X11377Y65745D02*
X11505Y65618D01*
X11632Y65936D02*
X11696Y66000D01*
X11824D01*
X11887Y65936D01*
Y65873D01*
X11824Y65809D01*
X11696D01*
X11632Y65745D01*
Y65618D01*
X11887D01*
X17579Y11750D02*
X17387D01*
X17324D01*
X17260Y11814D01*
Y11941D01*
X17324Y12005D01*
X17515D01*
X17642Y11877D01*
Y11814D01*
X17579Y11750D01*
X17515Y11877D02*
X17642Y12005D01*
X17515Y12387D02*
Y12132D01*
X17451D01*
X17260Y12324D01*
X17642D01*
X4819Y27755D02*
X4883Y27691D01*
Y27564D01*
X4819Y27500D01*
X4564D01*
X4500Y27564D01*
Y27691D01*
X4564Y27755D01*
Y27946D02*
X4500Y28010D01*
X4883D01*
Y27946D02*
Y28074D01*
X3069Y30255D02*
X3132Y30191D01*
Y30064D01*
X3069Y30000D01*
X2814D01*
X2750Y30064D01*
Y30191D01*
X2814Y30255D01*
Y30446D02*
X2750Y30510D01*
X3132D01*
Y30446D02*
Y30574D01*
X3069Y30765D02*
X2814D01*
X2750Y30829D01*
Y30956D01*
X2814Y31020D01*
X3069D01*
X3132Y30956D01*
Y30829D01*
X3069Y30765D01*
X2814Y31020D02*
X3069Y30765D01*
X18255Y18431D02*
X18191Y18367D01*
X18064D01*
X18000Y18431D01*
Y18686D01*
X18064Y18750D01*
X18191D01*
X18255Y18686D01*
X18446D02*
X18510Y18750D01*
Y18367D01*
X18446D02*
X18574D01*
X18829Y18686D02*
X18892Y18750D01*
Y18367D01*
X18829D02*
X18956D01*
X16319Y28755D02*
X16383Y28691D01*
Y28564D01*
X16319Y28500D01*
X16064D01*
X16000Y28564D01*
Y28691D01*
X16064Y28755D01*
Y28946D02*
X16000Y29010D01*
X16383D01*
Y28946D02*
Y29074D01*
X16128Y29265D02*
X16000D01*
Y29520D01*
X16128Y29265D02*
Y29456D01*
X16191Y29520D01*
X16319D01*
X16383Y29456D01*
Y29329D01*
X16319Y29265D01*
X29240Y17390D02*
X29495D01*
X29368D02*
Y17008D01*
X29623Y17390D02*
Y17008D01*
Y17390D02*
X29814D01*
X29878Y17326D01*
Y17263D01*
X29814Y17199D01*
X29623D01*
X30069Y17326D02*
X30133Y17390D01*
Y17008D01*
X30069D02*
X30196D01*
X8250Y30731D02*
Y30923D01*
Y30986D01*
X8314Y31050D01*
X8441D01*
X8505Y30986D01*
Y30795D01*
X8377Y30668D01*
X8314D01*
X8250Y30731D01*
X8377Y30795D02*
X8505Y30668D01*
X8696Y30986D02*
X8760Y31050D01*
Y30668D01*
X8696D02*
X8824D01*
X11250Y29681D02*
Y29872D01*
Y29936D01*
X11314Y30000D01*
X11441D01*
X11505Y29936D01*
Y29745D01*
X11377Y29617D01*
X11314D01*
X11250Y29681D01*
X11377Y29745D02*
X11505Y29617D01*
X11632Y29936D02*
X11696Y30000D01*
X11824D01*
X11887Y29936D01*
Y29872D01*
X11824Y29809D01*
X11696D01*
X11632Y29745D01*
Y29617D01*
X11887D01*
X16319Y14255D02*
X16383Y14191D01*
Y14064D01*
X16319Y14000D01*
X16064D01*
X16000Y14064D01*
Y14191D01*
X16064Y14255D01*
Y14446D02*
X16000Y14510D01*
X16383D01*
Y14446D02*
Y14574D01*
X16064Y14765D02*
X16000D01*
Y15020D01*
X16064D01*
X16255Y14829D01*
X16383D01*
X24005Y6931D02*
X23941Y6868D01*
X23814D01*
X23750Y6931D01*
Y7186D01*
X23814Y7250D01*
X23941D01*
X24005Y7186D01*
X24196D02*
X24260Y7250D01*
Y6868D01*
X24196D02*
X24324D01*
X24579Y7059D02*
X24515Y7123D01*
Y7186D01*
X24579Y7250D01*
X24706D01*
X24770Y7186D01*
Y7123D01*
X24706Y7059D01*
X24579D01*
X24706D02*
X24770Y6995D01*
Y6931D01*
X24706Y6868D01*
X24579D01*
X24515Y6931D01*
Y6995D01*
X24579Y7059D01*
X29005Y6931D02*
X28941Y6868D01*
X28814D01*
X28750Y6931D01*
Y7186D01*
X28814Y7250D01*
X28941D01*
X29005Y7186D01*
X29196D02*
X29260Y7250D01*
Y6868D01*
X29196D02*
X29324D01*
X29770Y7123D02*
X29706Y7059D01*
X29579D01*
X29515Y7123D01*
Y7186D01*
X29579Y7250D01*
X29706D01*
X29770Y7186D01*
Y6995D01*
X29642Y6868D01*
X29579D01*
X34069Y30505D02*
X34132Y30441D01*
Y30314D01*
X34069Y30250D01*
X33814D01*
X33750Y30314D01*
Y30441D01*
X33814Y30505D01*
Y30633D02*
X33750Y30696D01*
Y30824D01*
X33814Y30888D01*
X33877D01*
X33941Y30824D01*
Y30696D01*
X34005Y30633D01*
X34132D01*
Y30888D01*
X34069Y31015D02*
X33814D01*
X33750Y31079D01*
Y31206D01*
X33814Y31270D01*
X34069D01*
X34132Y31206D01*
Y31079D01*
X34069Y31015D01*
X33814Y31270D02*
X34069Y31015D01*
X27005Y34181D02*
X26941Y34118D01*
X26814D01*
X26750Y34181D01*
Y34436D01*
X26814Y34500D01*
X26941D01*
X27005Y34436D01*
X27132D02*
X27196Y34500D01*
X27324D01*
X27387Y34436D01*
Y34373D01*
X27324Y34309D01*
X27196D01*
X27132Y34245D01*
Y34118D01*
X27387D01*
X27579Y34436D02*
X27642Y34500D01*
Y34118D01*
X27579D02*
X27706D01*
X9064Y13250D02*
X9255D01*
Y12931D01*
X9191Y12868D01*
X9064D01*
X9000Y12931D01*
X9382Y13186D02*
X9446Y13250D01*
X9574D01*
X9637Y13186D01*
Y13123D01*
X9574Y13059D01*
X9510D01*
X9574D02*
X9637Y12995D01*
Y12931D01*
X9574Y12868D01*
X9446D01*
X9382Y12931D01*
X24005Y36431D02*
X23941Y36368D01*
X23814D01*
X23750Y36431D01*
Y36686D01*
X23814Y36750D01*
X23941D01*
X24005Y36686D01*
X24132D02*
X24196Y36750D01*
X24324D01*
X24387Y36686D01*
Y36623D01*
X24324Y36559D01*
X24196D01*
X24132Y36495D01*
Y36368D01*
X24387D01*
X24515Y36686D02*
X24579Y36750D01*
X24706D01*
X24770Y36686D01*
Y36623D01*
X24706Y36559D01*
X24579D01*
X24515Y36495D01*
Y36368D01*
X24770D01*
X29005Y36431D02*
X28941Y36368D01*
X28814D01*
X28750Y36431D01*
Y36686D01*
X28814Y36750D01*
X28941D01*
X29005Y36686D01*
X29132D02*
X29196Y36750D01*
X29324D01*
X29387Y36686D01*
Y36623D01*
X29324Y36559D01*
X29196D01*
X29132Y36495D01*
Y36368D01*
X29387D01*
X29515Y36686D02*
X29579Y36750D01*
X29706D01*
X29770Y36686D01*
Y36623D01*
X29706Y36559D01*
X29642D01*
X29706D02*
X29770Y36495D01*
Y36431D01*
X29706Y36368D01*
X29579D01*
X29515Y36431D01*
D11*
X29581Y62265D02*
X29647Y62199D01*
Y62066D01*
X29581Y62000D01*
X29316D01*
X29250Y62066D01*
Y62199D01*
X29316Y62265D01*
Y62464D02*
X29250Y62530D01*
X29647D01*
Y62464D02*
Y62596D01*
X29316Y62795D02*
X29250Y62861D01*
Y62994D01*
X29316Y63060D01*
X29382D01*
X29449Y62994D01*
Y62861D01*
X29515Y62795D01*
X29647D01*
Y63060D01*
X26831Y49765D02*
X26898Y49699D01*
Y49566D01*
X26831Y49500D01*
X26566D01*
X26500Y49566D01*
Y49699D01*
X26566Y49765D01*
Y49964D02*
X26500Y50030D01*
X26898D01*
Y49964D02*
Y50096D01*
X26566Y50295D02*
X26500Y50361D01*
Y50494D01*
X26566Y50560D01*
X26632D01*
X26699Y50494D01*
Y50427D01*
Y50494D02*
X26765Y50560D01*
X26831D01*
X26898Y50494D01*
Y50361D01*
X26831Y50295D01*
X21971Y59465D02*
X22037Y59399D01*
Y59266D01*
X21971Y59200D01*
X21706D01*
X21640Y59266D01*
Y59399D01*
X21706Y59465D01*
X21773Y59863D02*
X21839Y59796D01*
Y59664D01*
X21773Y59598D01*
X21706D01*
X21640Y59664D01*
Y59796D01*
X21706Y59863D01*
X21905D01*
X22037Y59730D01*
Y59664D01*
X7435Y70829D02*
X7369Y70762D01*
X7236D01*
X7170Y70829D01*
Y71094D01*
X7236Y71160D01*
X7369D01*
X7435Y71094D01*
X7634D02*
X7700Y71160D01*
Y70762D01*
X7634D02*
X7766D01*
X8230Y70895D02*
X7965D01*
Y70961D01*
X8164Y71160D01*
Y70762D01*
X29581Y26265D02*
X29647Y26199D01*
Y26066D01*
X29581Y26000D01*
X29316D01*
X29250Y26066D01*
Y26199D01*
X29316Y26265D01*
Y26464D02*
X29250Y26530D01*
X29647D01*
Y26464D02*
Y26596D01*
X29316Y26795D02*
X29250Y26861D01*
Y26994D01*
X29316Y27060D01*
X29382D01*
X29449Y26994D01*
Y26861D01*
X29515Y26795D01*
X29647D01*
Y27060D01*
X26831Y13765D02*
X26898Y13699D01*
Y13566D01*
X26831Y13500D01*
X26566D01*
X26500Y13566D01*
Y13699D01*
X26566Y13765D01*
Y13964D02*
X26500Y14030D01*
X26898D01*
Y13964D02*
Y14096D01*
X26566Y14295D02*
X26500Y14361D01*
Y14494D01*
X26566Y14560D01*
X26632D01*
X26699Y14494D01*
Y14427D01*
Y14494D02*
X26765Y14560D01*
X26831D01*
X26898Y14494D01*
Y14361D01*
X26831Y14295D01*
X21971Y23465D02*
X22037Y23399D01*
Y23266D01*
X21971Y23200D01*
X21706D01*
X21640Y23266D01*
Y23399D01*
X21706Y23465D01*
X21773Y23863D02*
X21839Y23796D01*
Y23664D01*
X21773Y23597D01*
X21706D01*
X21640Y23664D01*
Y23796D01*
X21706Y23863D01*
X21905D01*
X22037Y23730D01*
Y23664D01*
X7435Y34829D02*
X7369Y34762D01*
X7236D01*
X7170Y34829D01*
Y35094D01*
X7236Y35160D01*
X7369D01*
X7435Y35094D01*
X7634D02*
X7700Y35160D01*
Y34762D01*
X7634D02*
X7766D01*
X8230Y34895D02*
X7965D01*
Y34961D01*
X8164Y35160D01*
Y34762D01*
D12*
X250Y60300D02*
Y60600D01*
X400Y60750D01*
X550Y60600D01*
Y60300D01*
X250Y60450D02*
X550D01*
X1000Y60750D02*
Y60375D01*
X925Y60300D01*
X775D01*
X700Y60375D01*
Y60750D01*
X1150D02*
X1375D01*
X1450Y60675D01*
Y60375D01*
X1375Y60300D01*
X1150D01*
X1225Y60750D02*
Y60300D01*
X1675Y60750D02*
X1825D01*
X1750D02*
Y60300D01*
X1675D02*
X1825D01*
X2050Y60375D02*
Y60675D01*
X2125Y60750D01*
X2275D01*
X2350Y60675D01*
Y60375D01*
X2275Y60300D01*
X2125D01*
X2050Y60375D01*
X3025Y60750D02*
X3175D01*
X3100D02*
Y60300D01*
X3025D02*
X3175D01*
X3400D02*
Y60750D01*
X3700Y60450D01*
Y60750D02*
Y60300D01*
X250Y24300D02*
Y24600D01*
X400Y24750D01*
X550Y24600D01*
Y24300D01*
X250Y24450D02*
X550D01*
X1000Y24750D02*
Y24375D01*
X925Y24300D01*
X775D01*
X700Y24375D01*
Y24750D01*
X1150D02*
X1375D01*
X1450Y24675D01*
Y24375D01*
X1375Y24300D01*
X1150D01*
X1225Y24750D02*
Y24300D01*
X1675Y24750D02*
X1825D01*
X1750D02*
Y24300D01*
X1675D02*
X1825D01*
X2050Y24375D02*
Y24675D01*
X2125Y24750D01*
X2275D01*
X2350Y24675D01*
Y24375D01*
X2275Y24300D01*
X2125D01*
X2050Y24375D01*
X3025Y24750D02*
X3175D01*
X3100D02*
Y24300D01*
X3025D02*
X3175D01*
X3400D02*
Y24750D01*
X3700Y24450D01*
Y24750D02*
Y24300D01*
D13*
X37870Y52230D02*
Y52481D01*
X37954Y52565D01*
X38289D01*
X38373Y52481D01*
Y52230D01*
X37870Y52314D02*
X38373D01*
X37954Y52732D02*
X37870Y52816D01*
Y52984D01*
X37954Y53068D01*
X38038D01*
X38121Y52984D01*
Y52816D01*
X38205Y52732D01*
X38373D01*
Y53068D01*
X37870Y50730D02*
Y50981D01*
X37954Y51065D01*
X38289D01*
X38373Y50981D01*
Y50730D01*
X37870Y50814D02*
X38373D01*
X37954Y51316D02*
X37870Y51400D01*
X38373D01*
Y51316D02*
Y51484D01*
X22085Y37831D02*
X22001Y37747D01*
X21834D01*
X21750Y37831D01*
Y38166D01*
X21834Y38250D01*
X22001D01*
X22085Y38166D01*
X22588Y37747D02*
X22253D01*
Y38250D01*
X22755Y37747D02*
Y38082D01*
X22923Y38250D01*
X23090Y38082D01*
Y37747D01*
X22755Y37915D02*
X23090D01*
X23509Y37999D02*
X23341D01*
X23258Y38082D01*
Y38166D01*
X23341Y38250D01*
X23509D01*
X23593Y38166D01*
X23509Y37999D02*
X23593Y37915D01*
Y37831D01*
X23509Y37747D01*
X23341D01*
X23258Y37831D01*
X24011Y37999D02*
X23844D01*
X23760Y38082D01*
Y38166D01*
X23844Y38250D01*
X24011D01*
X24095Y38166D01*
X24011Y37999D02*
X24095Y37915D01*
Y37831D01*
X24011Y37747D01*
X23844D01*
X23760Y37831D01*
X24765Y37747D02*
Y38082D01*
X24933Y38250D01*
X25100Y38082D01*
Y37747D01*
X24765Y37915D02*
X25100D01*
X25268Y38250D02*
X25519D01*
X25603Y38166D01*
Y38082D01*
X25519Y37999D01*
X25351D01*
X25519D02*
X25603Y37915D01*
Y37831D01*
X25519Y37747D01*
X25268D01*
X25351Y38250D02*
Y37747D01*
X26273D02*
Y38082D01*
X26440Y38250D01*
X26608Y38082D01*
Y37747D01*
X26273Y37915D02*
X26608D01*
X27110D02*
X26943Y37747D01*
X26859D01*
X26775Y37831D01*
Y38082D01*
X27110D02*
Y37747D01*
X27529Y38250D02*
X27613D01*
Y37747D01*
Y37915D02*
X27445Y37747D01*
X27361D01*
X27278Y37831D01*
Y37999D01*
X27361Y38082D01*
X27529D01*
X27613Y37999D01*
X27864Y37747D02*
X28031D01*
X27864Y37999D02*
X27948D01*
Y37747D01*
Y38250D02*
Y38166D01*
X28283Y37831D02*
Y37999D01*
X28366Y38082D01*
X28534D01*
X28618Y37999D01*
Y37831D01*
X28534Y37747D01*
X28366D01*
X28283Y37831D01*
X29288Y37747D02*
Y38082D01*
X29455Y38250D01*
X29623Y38082D01*
Y37747D01*
X29288Y37915D02*
X29623D01*
X29790Y38082D02*
Y37747D01*
Y37999D02*
X29874Y38082D01*
X29958Y37999D01*
Y37747D01*
Y37999D02*
X30041Y38082D01*
X30125Y37999D01*
Y37747D01*
X30293Y38082D02*
Y37580D01*
Y37999D02*
X30376Y38082D01*
X30544D01*
X30628Y37999D01*
Y37831D01*
X30544Y37747D01*
X30460D01*
X30293Y37915D01*
X30879Y37831D02*
X30963Y37747D01*
X30879D01*
Y37831D01*
X30963D01*
Y37747D01*
X37870Y16230D02*
Y16481D01*
X37954Y16565D01*
X38289D01*
X38373Y16481D01*
Y16230D01*
X37870Y16314D02*
X38373D01*
X37954Y16732D02*
X37870Y16816D01*
Y16984D01*
X37954Y17067D01*
X38038D01*
X38121Y16984D01*
Y16816D01*
X38205Y16732D01*
X38373D01*
Y17067D01*
X37870Y14730D02*
Y14981D01*
X37954Y15065D01*
X38289D01*
X38373Y14981D01*
Y14730D01*
X37870Y14814D02*
X38373D01*
X37954Y15316D02*
X37870Y15400D01*
X38373D01*
Y15316D02*
Y15484D01*
X37000Y45831D02*
Y46083D01*
Y46166D01*
X37084Y46250D01*
X37251D01*
X37335Y46166D01*
Y45915D01*
X37168Y45747D01*
X37084D01*
X37000Y45831D01*
X37168Y45915D02*
X37335Y45747D01*
X37503Y46083D02*
Y46250D01*
X37838D01*
X37503Y46083D02*
X37754D01*
X37838Y45999D01*
Y45831D01*
X37754Y45747D01*
X37586D01*
X37503Y45831D01*
X33000Y44250D02*
X33502D01*
X33000D02*
Y44501D01*
X33084Y44585D01*
X33167D01*
X33251Y44501D01*
Y44250D01*
Y44334D02*
X33502Y44585D01*
X33084Y44836D02*
X33000Y44920D01*
X33502D01*
Y44836D02*
Y45004D01*
X33335Y45590D02*
Y45255D01*
X33251D01*
X33000Y45506D01*
X33502D01*
X33000Y56250D02*
X33502D01*
X33000D02*
Y56501D01*
X33084Y56585D01*
X33167D01*
X33251Y56501D01*
Y56250D01*
Y56334D02*
X33502Y56585D01*
X33084Y56836D02*
X33000Y56920D01*
X33502D01*
Y56836D02*
Y57004D01*
X33167Y57255D02*
X33000D01*
Y57590D01*
X33167Y57255D02*
Y57506D01*
X33251Y57590D01*
X33419D01*
X33502Y57506D01*
Y57339D01*
X33419Y57255D01*
X24500Y52430D02*
X25003D01*
X24500D02*
Y52681D01*
X24584Y52765D01*
X24667D01*
X24751Y52681D01*
Y52430D01*
Y52514D02*
X25003Y52765D01*
X24584Y53016D02*
X24500Y53100D01*
X25003D01*
Y53016D02*
Y53184D01*
X24584Y53435D02*
X24500Y53519D01*
Y53686D01*
X24584Y53770D01*
X24667D01*
X24751Y53686D01*
Y53603D01*
Y53686D02*
X24835Y53770D01*
X24919D01*
X25003Y53686D01*
Y53519D01*
X24919Y53435D01*
X5500Y66000D02*
X6003D01*
X5500D02*
Y66251D01*
X5584Y66335D01*
X5668D01*
X5751Y66251D01*
Y66000D01*
Y66084D02*
X6003Y66335D01*
X5584Y66586D02*
X5500Y66670D01*
X6003D01*
Y66586D02*
Y66754D01*
X334Y64250D02*
X585D01*
Y63831D01*
X501Y63748D01*
X334D01*
X250Y63831D01*
X836Y64166D02*
X920Y64250D01*
Y63748D01*
X836D02*
X1004D01*
X6750Y66000D02*
X7253D01*
X6750D02*
Y66251D01*
X6834Y66335D01*
X6918D01*
X7001Y66251D01*
Y66000D01*
Y66084D02*
X7253Y66335D01*
X6834Y66586D02*
X6750Y66670D01*
X7253D01*
Y66586D02*
Y66754D01*
X6834Y67005D02*
X6750D01*
Y67340D01*
X6834D01*
X7085Y67089D01*
X7253D01*
X22000Y67250D02*
X22503D01*
X22000D02*
Y67501D01*
X22084Y67585D01*
X22167D01*
X22251Y67501D01*
Y67250D01*
Y67334D02*
X22503Y67585D01*
X22084Y67753D02*
X22000Y67836D01*
Y68004D01*
X22084Y68088D01*
X22167D01*
X22251Y68004D01*
Y67836D01*
X22335Y67753D01*
X22503D01*
Y68088D01*
X23250Y67250D02*
X23753D01*
X23250D02*
Y67501D01*
X23334Y67585D01*
X23417D01*
X23501Y67501D01*
Y67250D01*
Y67334D02*
X23753Y67585D01*
X23334Y67753D02*
X23250Y67836D01*
Y68004D01*
X23334Y68088D01*
X23417D01*
X23501Y68004D01*
Y67920D01*
Y68004D02*
X23585Y68088D01*
X23669D01*
X23753Y68004D01*
Y67836D01*
X23669Y67753D01*
X20750Y67250D02*
X21253D01*
X20750D02*
Y67501D01*
X20834Y67585D01*
X20917D01*
X21001Y67501D01*
Y67250D01*
Y67334D02*
X21253Y67585D01*
X21085Y68088D02*
Y67753D01*
X21001D01*
X20750Y68004D01*
X21253D01*
X27500Y61000D02*
X28003D01*
X27500D02*
Y61251D01*
X27584Y61335D01*
X27668D01*
X27751Y61251D01*
Y61000D01*
Y61084D02*
X28003Y61335D01*
X27835Y61502D02*
X27751Y61586D01*
Y61754D01*
X27835Y61838D01*
X27919D01*
X28003Y61754D01*
Y61586D01*
X27919Y61502D01*
X27835D01*
X27668D01*
X27500Y61670D01*
Y61754D01*
X26750Y54000D02*
X27252D01*
X26750D02*
Y54251D01*
X26834Y54335D01*
X26917D01*
X27001Y54251D01*
Y54000D01*
Y54084D02*
X27252Y54335D01*
X27001Y54586D02*
X26917Y54503D01*
X26834D01*
X26750Y54586D01*
Y54754D01*
X26834Y54838D01*
X26917D01*
X27001Y54754D01*
Y54586D01*
Y54754D02*
X27085Y54838D01*
X27169D01*
X27252Y54754D01*
Y54586D01*
X27169Y54503D01*
X27085D01*
X27001Y54586D01*
X21500Y49000D02*
X22002D01*
X21500D02*
Y49251D01*
X21584Y49335D01*
X21667D01*
X21751Y49251D01*
Y49000D01*
Y49084D02*
X22002Y49335D01*
X21667Y49838D02*
X21751Y49754D01*
Y49586D01*
X21667Y49503D01*
X21584D01*
X21500Y49586D01*
Y49754D01*
X21584Y49838D01*
X21835D01*
X22002Y49670D01*
Y49586D01*
X21500Y46500D02*
Y45997D01*
Y46500D02*
X21751D01*
X21835Y46416D01*
Y46332D01*
X21751Y46249D01*
X21500D01*
X21584D02*
X21835Y45997D01*
X22086Y46416D02*
X22170Y46500D01*
Y45997D01*
X22086D02*
X22254D01*
X22589Y46416D02*
X22673Y46500D01*
Y45997D01*
X22589D02*
X22756D01*
X19500Y67250D02*
X20003D01*
X19500D02*
Y67501D01*
X19584Y67585D01*
X19667D01*
X19751Y67501D01*
Y67250D01*
Y67334D02*
X20003Y67585D01*
X19584Y67836D02*
X19500Y67920D01*
X20003D01*
Y67836D02*
Y68004D01*
X19584Y68255D02*
X19500Y68339D01*
Y68506D01*
X19584Y68590D01*
X19667D01*
X19751Y68506D01*
Y68339D01*
X19835Y68255D01*
X20003D01*
Y68590D01*
X22750Y62000D02*
X23252D01*
X22750D02*
Y62251D01*
X22834Y62335D01*
X22917D01*
X23001Y62251D01*
Y62000D01*
Y62084D02*
X23252Y62335D01*
X22834Y62586D02*
X22750Y62670D01*
X23252D01*
Y62586D02*
Y62754D01*
X23001Y63089D02*
X22917Y63005D01*
X22834D01*
X22750Y63089D01*
Y63256D01*
X22834Y63340D01*
X22917D01*
X23001Y63256D01*
Y63089D01*
Y63256D02*
X23085Y63340D01*
X23169D01*
X23252Y63256D01*
Y63089D01*
X23169Y63005D01*
X23085D01*
X23001Y63089D01*
X4250Y67000D02*
X4753D01*
X4250D02*
Y67251D01*
X4334Y67335D01*
X4418D01*
X4501Y67251D01*
Y67000D01*
Y67084D02*
X4753Y67335D01*
X4418Y67503D02*
X4250D01*
Y67838D01*
X4418Y67503D02*
Y67754D01*
X4501Y67838D01*
X4669D01*
X4753Y67754D01*
Y67586D01*
X4669Y67503D01*
X13750Y66000D02*
X14253D01*
X13750D02*
Y66251D01*
X13834Y66335D01*
X13918D01*
X14001Y66251D01*
Y66000D01*
Y66084D02*
X14253Y66335D01*
X13834Y66503D02*
X13750D01*
Y66838D01*
X13834D01*
X14085Y66586D01*
X14253D01*
X9500Y65000D02*
Y64498D01*
Y65000D02*
X9751D01*
X9835Y64916D01*
Y64833D01*
X9751Y64749D01*
X9500D01*
X9584D02*
X9835Y64498D01*
X10086Y64916D02*
X10170Y65000D01*
Y64498D01*
X10086D02*
X10254D01*
X10840Y64833D02*
X10756Y64749D01*
X10589D01*
X10505Y64833D01*
Y64916D01*
X10589Y65000D01*
X10756D01*
X10840Y64916D01*
Y64665D01*
X10672Y64498D01*
X10589D01*
X10919Y68585D02*
X11003Y68501D01*
Y68334D01*
X10919Y68250D01*
X10584D01*
X10500Y68334D01*
Y68501D01*
X10584Y68585D01*
Y68752D02*
X10500Y68836D01*
Y69004D01*
X10584Y69087D01*
X10668D01*
X10751Y69004D01*
Y68920D01*
Y69004D02*
X10835Y69087D01*
X10919D01*
X11003Y69004D01*
Y68836D01*
X10919Y68752D01*
X27085Y66831D02*
X27001Y66748D01*
X26834D01*
X26750Y66831D01*
Y67166D01*
X26834Y67250D01*
X27001D01*
X27085Y67166D01*
X27252D02*
X27336Y67250D01*
X27504D01*
X27587Y67166D01*
Y67082D01*
X27504Y66999D01*
X27336D01*
X27252Y66915D01*
Y66748D01*
X27587D01*
X19253Y62835D02*
Y62500D01*
X18750D01*
X18834Y63086D02*
X18750Y63170D01*
X19253D01*
Y63086D02*
Y63254D01*
X6669Y52085D02*
X6752Y52001D01*
Y51834D01*
X6669Y51750D01*
X6334D01*
X6250Y51834D01*
Y52001D01*
X6334Y52085D01*
X6501Y52336D02*
X6418Y52253D01*
X6334D01*
X6250Y52336D01*
Y52504D01*
X6334Y52588D01*
X6418D01*
X6501Y52504D01*
Y52336D01*
Y52504D02*
X6585Y52588D01*
X6669D01*
X6752Y52504D01*
Y52336D01*
X6669Y52253D01*
X6585D01*
X6501Y52336D01*
X21750Y53750D02*
X22253D01*
X21750D02*
Y54001D01*
X21834Y54085D01*
X21918D01*
X22001Y54001D01*
Y53750D01*
Y53834D02*
X22253Y54085D01*
X21834Y54336D02*
X21750Y54420D01*
X22253D01*
Y54336D02*
Y54504D01*
X22169Y54755D02*
X21834D01*
X21750Y54839D01*
Y55006D01*
X21834Y55090D01*
X22169D01*
X22253Y55006D01*
Y54839D01*
X22169Y54755D01*
X21834Y55090D02*
X22169Y54755D01*
X13000Y49250D02*
X13503D01*
X13000D02*
Y49501D01*
X13084Y49585D01*
X13168D01*
X13251Y49501D01*
Y49250D01*
Y49334D02*
X13503Y49585D01*
X13084Y49753D02*
X13000Y49836D01*
Y50004D01*
X13084Y50088D01*
X13168D01*
X13251Y50004D01*
Y49836D01*
X13335Y49753D01*
X13503D01*
Y50088D01*
X13419Y50255D02*
X13084D01*
X13000Y50339D01*
Y50506D01*
X13084Y50590D01*
X13419D01*
X13503Y50506D01*
Y50339D01*
X13419Y50255D01*
X13084Y50590D02*
X13419Y50255D01*
X37000Y57581D02*
Y57833D01*
Y57916D01*
X37084Y58000D01*
X37251D01*
X37335Y57916D01*
Y57665D01*
X37168Y57498D01*
X37084D01*
X37000Y57581D01*
X37168Y57665D02*
X37335Y57498D01*
X37503Y57916D02*
X37586Y58000D01*
X37754D01*
X37838Y57916D01*
Y57833D01*
X37754Y57749D01*
X37670D01*
X37754D02*
X37838Y57665D01*
Y57581D01*
X37754Y57498D01*
X37586D01*
X37503Y57581D01*
X35000Y10000D02*
Y10251D01*
X35084Y10335D01*
X35419D01*
X35503Y10251D01*
Y10000D01*
X35000Y10084D02*
X35503D01*
X35335Y10837D02*
Y10502D01*
X35251D01*
X35000Y10754D01*
X35503D01*
X35000Y18250D02*
Y18501D01*
X35084Y18585D01*
X35419D01*
X35503Y18501D01*
Y18250D01*
X35000Y18334D02*
X35503D01*
X35084Y18753D02*
X35000Y18836D01*
Y19004D01*
X35084Y19088D01*
X35168D01*
X35251Y19004D01*
Y18920D01*
Y19004D02*
X35335Y19088D01*
X35419D01*
X35503Y19004D01*
Y18836D01*
X35419Y18753D01*
X37000Y9831D02*
Y10083D01*
Y10166D01*
X37084Y10250D01*
X37251D01*
X37335Y10166D01*
Y9915D01*
X37168Y9748D01*
X37084D01*
X37000Y9831D01*
X37168Y9915D02*
X37335Y9748D01*
X37503Y10083D02*
Y10250D01*
X37838D01*
X37503Y10083D02*
X37754D01*
X37838Y9999D01*
Y9831D01*
X37754Y9748D01*
X37586D01*
X37503Y9831D01*
X334Y28250D02*
X585D01*
Y27831D01*
X501Y27747D01*
X334D01*
X250Y27831D01*
X836Y28166D02*
X920Y28250D01*
Y27747D01*
X836D02*
X1004D01*
X33000Y8250D02*
X33502D01*
X33000D02*
Y8501D01*
X33084Y8585D01*
X33167D01*
X33251Y8501D01*
Y8250D01*
Y8334D02*
X33502Y8585D01*
X33084Y8836D02*
X33000Y8920D01*
X33502D01*
Y8836D02*
Y9004D01*
X33335Y9590D02*
Y9255D01*
X33251D01*
X33000Y9506D01*
X33502D01*
X33000Y20250D02*
X33502D01*
X33000D02*
Y20501D01*
X33084Y20585D01*
X33167D01*
X33251Y20501D01*
Y20250D01*
Y20334D02*
X33502Y20585D01*
X33084Y20836D02*
X33000Y20920D01*
X33502D01*
Y20836D02*
Y21004D01*
X33167Y21255D02*
X33000D01*
Y21590D01*
X33167Y21255D02*
Y21506D01*
X33251Y21590D01*
X33419D01*
X33502Y21506D01*
Y21339D01*
X33419Y21255D01*
X24500Y16430D02*
X25003D01*
X24500D02*
Y16681D01*
X24584Y16765D01*
X24667D01*
X24751Y16681D01*
Y16430D01*
Y16514D02*
X25003Y16765D01*
X24584Y17016D02*
X24500Y17100D01*
X25003D01*
Y17016D02*
Y17184D01*
X24584Y17435D02*
X24500Y17519D01*
Y17686D01*
X24584Y17770D01*
X24667D01*
X24751Y17686D01*
Y17602D01*
Y17686D02*
X24835Y17770D01*
X24919D01*
X25003Y17686D01*
Y17519D01*
X24919Y17435D01*
X5500Y30000D02*
X6003D01*
X5500D02*
Y30251D01*
X5584Y30335D01*
X5668D01*
X5751Y30251D01*
Y30000D01*
Y30084D02*
X6003Y30335D01*
X5584Y30586D02*
X5500Y30670D01*
X6003D01*
Y30586D02*
Y30754D01*
X6750Y30000D02*
X7253D01*
X6750D02*
Y30251D01*
X6834Y30335D01*
X6918D01*
X7001Y30251D01*
Y30000D01*
Y30084D02*
X7253Y30335D01*
X6834Y30586D02*
X6750Y30670D01*
X7253D01*
Y30586D02*
Y30754D01*
X6834Y31005D02*
X6750D01*
Y31340D01*
X6834D01*
X7085Y31089D01*
X7253D01*
X22000Y31250D02*
X22503D01*
X22000D02*
Y31501D01*
X22084Y31585D01*
X22167D01*
X22251Y31501D01*
Y31250D01*
Y31334D02*
X22503Y31585D01*
X22084Y31752D02*
X22000Y31836D01*
Y32004D01*
X22084Y32087D01*
X22167D01*
X22251Y32004D01*
Y31836D01*
X22335Y31752D01*
X22503D01*
Y32087D01*
X23250Y31250D02*
X23753D01*
X23250D02*
Y31501D01*
X23334Y31585D01*
X23417D01*
X23501Y31501D01*
Y31250D01*
Y31334D02*
X23753Y31585D01*
X23334Y31752D02*
X23250Y31836D01*
Y32004D01*
X23334Y32087D01*
X23417D01*
X23501Y32004D01*
Y31920D01*
Y32004D02*
X23585Y32087D01*
X23669D01*
X23753Y32004D01*
Y31836D01*
X23669Y31752D01*
X20750Y31250D02*
X21253D01*
X20750D02*
Y31501D01*
X20834Y31585D01*
X20917D01*
X21001Y31501D01*
Y31250D01*
Y31334D02*
X21253Y31585D01*
X21085Y32087D02*
Y31752D01*
X21001D01*
X20750Y32004D01*
X21253D01*
X27500Y25000D02*
X28003D01*
X27500D02*
Y25251D01*
X27584Y25335D01*
X27668D01*
X27751Y25251D01*
Y25000D01*
Y25084D02*
X28003Y25335D01*
X27835Y25502D02*
X27751Y25586D01*
Y25754D01*
X27835Y25837D01*
X27919D01*
X28003Y25754D01*
Y25586D01*
X27919Y25502D01*
X27835D01*
X27668D01*
X27500Y25670D01*
Y25754D01*
X26750Y18000D02*
X27252D01*
X26750D02*
Y18251D01*
X26834Y18335D01*
X26917D01*
X27001Y18251D01*
Y18000D01*
Y18084D02*
X27252Y18335D01*
X27001Y18586D02*
X26917Y18502D01*
X26834D01*
X26750Y18586D01*
Y18754D01*
X26834Y18837D01*
X26917D01*
X27001Y18754D01*
Y18586D01*
Y18754D02*
X27085Y18837D01*
X27169D01*
X27252Y18754D01*
Y18586D01*
X27169Y18502D01*
X27085D01*
X27001Y18586D01*
X21500Y13000D02*
X22002D01*
X21500D02*
Y13251D01*
X21584Y13335D01*
X21667D01*
X21751Y13251D01*
Y13000D01*
Y13084D02*
X22002Y13335D01*
X21667Y13837D02*
X21751Y13754D01*
Y13586D01*
X21667Y13502D01*
X21584D01*
X21500Y13586D01*
Y13754D01*
X21584Y13837D01*
X21835D01*
X22002Y13670D01*
Y13586D01*
X21500Y10500D02*
Y9998D01*
Y10500D02*
X21751D01*
X21835Y10416D01*
Y10333D01*
X21751Y10249D01*
X21500D01*
X21584D02*
X21835Y9998D01*
X22086Y10416D02*
X22170Y10500D01*
Y9998D01*
X22086D02*
X22254D01*
X22589Y10416D02*
X22673Y10500D01*
Y9998D01*
X22589D02*
X22756D01*
X19500Y31250D02*
X20003D01*
X19500D02*
Y31501D01*
X19584Y31585D01*
X19667D01*
X19751Y31501D01*
Y31250D01*
Y31334D02*
X20003Y31585D01*
X19584Y31836D02*
X19500Y31920D01*
X20003D01*
Y31836D02*
Y32004D01*
X19584Y32255D02*
X19500Y32339D01*
Y32506D01*
X19584Y32590D01*
X19667D01*
X19751Y32506D01*
Y32339D01*
X19835Y32255D01*
X20003D01*
Y32590D01*
X22750Y26000D02*
X23252D01*
X22750D02*
Y26251D01*
X22834Y26335D01*
X22917D01*
X23001Y26251D01*
Y26000D01*
Y26084D02*
X23252Y26335D01*
X22834Y26586D02*
X22750Y26670D01*
X23252D01*
Y26586D02*
Y26754D01*
X23001Y27089D02*
X22917Y27005D01*
X22834D01*
X22750Y27089D01*
Y27256D01*
X22834Y27340D01*
X22917D01*
X23001Y27256D01*
Y27089D01*
Y27256D02*
X23085Y27340D01*
X23169D01*
X23252Y27256D01*
Y27089D01*
X23169Y27005D01*
X23085D01*
X23001Y27089D01*
X4250Y31000D02*
X4753D01*
X4250D02*
Y31251D01*
X4334Y31335D01*
X4418D01*
X4501Y31251D01*
Y31000D01*
Y31084D02*
X4753Y31335D01*
X4418Y31502D02*
X4250D01*
Y31838D01*
X4418Y31502D02*
Y31754D01*
X4501Y31838D01*
X4669D01*
X4753Y31754D01*
Y31586D01*
X4669Y31502D01*
X13750Y30000D02*
X14253D01*
X13750D02*
Y30251D01*
X13834Y30335D01*
X13918D01*
X14001Y30251D01*
Y30000D01*
Y30084D02*
X14253Y30335D01*
X13834Y30502D02*
X13750D01*
Y30837D01*
X13834D01*
X14085Y30586D01*
X14253D01*
X9500Y29000D02*
Y28498D01*
Y29000D02*
X9751D01*
X9835Y28916D01*
Y28833D01*
X9751Y28749D01*
X9500D01*
X9584D02*
X9835Y28498D01*
X10086Y28916D02*
X10170Y29000D01*
Y28498D01*
X10086D02*
X10254D01*
X10840Y28833D02*
X10756Y28749D01*
X10589D01*
X10505Y28833D01*
Y28916D01*
X10589Y29000D01*
X10756D01*
X10840Y28916D01*
Y28665D01*
X10672Y28498D01*
X10589D01*
X10919Y32585D02*
X11003Y32501D01*
Y32334D01*
X10919Y32250D01*
X10584D01*
X10500Y32334D01*
Y32501D01*
X10584Y32585D01*
Y32752D02*
X10500Y32836D01*
Y33004D01*
X10584Y33088D01*
X10668D01*
X10751Y33004D01*
Y32920D01*
Y33004D02*
X10835Y33088D01*
X10919D01*
X11003Y33004D01*
Y32836D01*
X10919Y32752D01*
X27085Y30831D02*
X27001Y30747D01*
X26834D01*
X26750Y30831D01*
Y31166D01*
X26834Y31250D01*
X27001D01*
X27085Y31166D01*
X27252D02*
X27336Y31250D01*
X27504D01*
X27587Y31166D01*
Y31082D01*
X27504Y30999D01*
X27336D01*
X27252Y30915D01*
Y30747D01*
X27587D01*
X19253Y26835D02*
Y26500D01*
X18750D01*
X18834Y27086D02*
X18750Y27170D01*
X19253D01*
Y27086D02*
Y27254D01*
X6669Y16085D02*
X6752Y16001D01*
Y15834D01*
X6669Y15750D01*
X6334D01*
X6250Y15834D01*
Y16001D01*
X6334Y16085D01*
X6501Y16336D02*
X6418Y16252D01*
X6334D01*
X6250Y16336D01*
Y16504D01*
X6334Y16587D01*
X6418D01*
X6501Y16504D01*
Y16336D01*
Y16504D02*
X6585Y16587D01*
X6669D01*
X6752Y16504D01*
Y16336D01*
X6669Y16252D01*
X6585D01*
X6501Y16336D01*
X21750Y17750D02*
X22253D01*
X21750D02*
Y18001D01*
X21834Y18085D01*
X21918D01*
X22001Y18001D01*
Y17750D01*
Y17834D02*
X22253Y18085D01*
X21834Y18336D02*
X21750Y18420D01*
X22253D01*
Y18336D02*
Y18504D01*
X22169Y18755D02*
X21834D01*
X21750Y18839D01*
Y19006D01*
X21834Y19090D01*
X22169D01*
X22253Y19006D01*
Y18839D01*
X22169Y18755D01*
X21834Y19090D02*
X22169Y18755D01*
X37000Y21581D02*
Y21832D01*
Y21916D01*
X37084Y22000D01*
X37251D01*
X37335Y21916D01*
Y21665D01*
X37168Y21497D01*
X37084D01*
X37000Y21581D01*
X37168Y21665D02*
X37335Y21497D01*
X37503Y21916D02*
X37586Y22000D01*
X37754D01*
X37838Y21916D01*
Y21832D01*
X37754Y21749D01*
X37670D01*
X37754D02*
X37838Y21665D01*
Y21581D01*
X37754Y21497D01*
X37586D01*
X37503Y21581D01*
X13000Y13250D02*
X13503D01*
X13000D02*
Y13501D01*
X13084Y13585D01*
X13168D01*
X13251Y13501D01*
Y13250D01*
Y13334D02*
X13503Y13585D01*
X13084Y13752D02*
X13000Y13836D01*
Y14004D01*
X13084Y14087D01*
X13168D01*
X13251Y14004D01*
Y13836D01*
X13335Y13752D01*
X13503D01*
Y14087D01*
X13419Y14255D02*
X13084D01*
X13000Y14339D01*
Y14506D01*
X13084Y14590D01*
X13419D01*
X13503Y14506D01*
Y14339D01*
X13419Y14255D01*
X13084Y14590D02*
X13419Y14255D01*
X35000Y54250D02*
Y54501D01*
X35084Y54585D01*
X35419D01*
X35503Y54501D01*
Y54250D01*
X35000Y54334D02*
X35503D01*
X35084Y54753D02*
X35000Y54836D01*
Y55004D01*
X35084Y55088D01*
X35168D01*
X35251Y55004D01*
Y54920D01*
Y55004D02*
X35335Y55088D01*
X35419D01*
X35503Y55004D01*
Y54836D01*
X35419Y54753D01*
X35000Y46000D02*
Y46251D01*
X35084Y46335D01*
X35419D01*
X35503Y46251D01*
Y46000D01*
X35000Y46084D02*
X35503D01*
X35335Y46838D02*
Y46502D01*
X35251D01*
X35000Y46754D01*
X35503D01*
D14*
X2250Y49750D02*
Y49150D01*
Y49750D02*
X2550D01*
X2650Y49650D01*
Y49550D01*
X2550Y49450D01*
X2250D01*
X3250Y49750D02*
Y49150D01*
X3050Y49350D01*
X2850Y49150D01*
Y49750D01*
X3050Y49450D02*
Y49350D01*
X3450Y49750D02*
Y49150D01*
Y49750D02*
X3750D01*
X3850Y49650D01*
Y49550D01*
X3750Y49450D01*
X3450D01*
X3550D02*
X3850Y49150D01*
X29000Y900D02*
X29100Y1000D01*
X29300D01*
X29400Y900D01*
Y800D01*
X29300Y700D01*
X29100D01*
X29000Y600D01*
Y400D01*
X29400D01*
X29600Y500D02*
Y900D01*
X29700Y1000D01*
X29900D01*
X30000Y900D01*
Y500D01*
X29900Y400D01*
X29700D01*
X29600Y500D01*
X30000Y900D02*
X29600Y500D01*
X30200Y900D02*
X30300Y1000D01*
X30500D01*
X30600Y900D01*
Y800D01*
X30500Y700D01*
X30300D01*
X30200Y600D01*
Y400D01*
X30600D01*
X31200Y600D02*
X30800D01*
Y700D01*
X31100Y1000D01*
Y400D01*
X25750Y2050D02*
Y2250D01*
X26150D01*
X25750Y2050D02*
X26050D01*
X26150Y1950D01*
Y1750D01*
X26050Y1650D01*
X25850D01*
X25750Y1750D01*
X26350Y2250D02*
X26750D01*
X26550D02*
Y1650D01*
X26950Y1950D02*
X27350D01*
X27550Y1650D02*
Y2050D01*
X27750Y2250D01*
X27950Y2050D01*
Y1650D01*
X27550Y1850D02*
X27950D01*
X28150Y2050D02*
Y1650D01*
Y1950D02*
X28250Y2050D01*
X28350Y1950D01*
Y1650D01*
Y1950D02*
X28450Y2050D01*
X28550Y1950D01*
Y1650D01*
X28750Y2050D02*
Y1450D01*
Y1950D02*
X28850Y2050D01*
X29050D01*
X29150Y1950D01*
Y1750D01*
X29050Y1650D01*
X28950D01*
X28750Y1850D01*
X30350Y2050D02*
Y1850D01*
X30150Y1650D01*
X29950Y1850D01*
Y2050D01*
X30550Y2150D02*
X30650Y2250D01*
X30850D01*
X30950Y2150D01*
Y2050D01*
X30850Y1950D01*
X30650D01*
X30550Y1850D01*
Y1650D01*
X30950D01*
X2250Y13750D02*
Y13150D01*
Y13750D02*
X2550D01*
X2650Y13650D01*
Y13550D01*
X2550Y13450D01*
X2250D01*
X3250Y13750D02*
Y13150D01*
X3050Y13350D01*
X2850Y13150D01*
Y13750D01*
X3050Y13450D02*
Y13350D01*
X3450Y13750D02*
Y13150D01*
Y13750D02*
X3750D01*
X3850Y13650D01*
Y13550D01*
X3750Y13450D01*
X3450D01*
X3550D02*
X3850Y13150D01*
X23900Y39100D02*
X23500D01*
Y39200D01*
X23800Y39500D01*
Y38900D01*
X24200Y39200D02*
X24100Y39300D01*
Y39400D01*
X24200Y39500D01*
X24400D01*
X24500Y39400D01*
Y39300D01*
X24400Y39200D01*
X24200D01*
X24400D02*
X24500Y39100D01*
Y39000D01*
X24400Y38900D01*
X24200D01*
X24100Y39000D01*
Y39100D01*
X24200Y39200D01*
X25700Y39500D02*
Y39200D01*
X25500Y39000D01*
X25300Y39200D01*
Y39500D01*
X25500Y39000D02*
Y38900D01*
X25900Y39500D02*
X26200D01*
X26300Y39400D01*
Y39000D01*
X26200Y38900D01*
X25900D01*
X26000Y39500D02*
Y38900D01*
X26900Y39000D02*
X26800Y38900D01*
X26600D01*
X26500Y39000D01*
Y39400D01*
X26600Y39500D01*
X26800D01*
X26900Y39400D01*
X27700Y39300D02*
Y39500D01*
X28100D01*
X27700Y39300D02*
X28000D01*
X28100Y39200D01*
Y39000D01*
X28000Y38900D01*
X27800D01*
X27700Y39000D01*
X28300Y38900D02*
Y39300D01*
X28500Y39500D01*
X28700Y39300D01*
Y38900D01*
X28300Y39100D02*
X28700D01*
X23100Y41900D02*
X23200Y42000D01*
Y41400D01*
X23100D02*
X23300D01*
X23600Y41500D02*
Y41900D01*
X23700Y42000D01*
X23900D01*
X24000Y41900D01*
Y41500D01*
X23900Y41400D01*
X23700D01*
X23600Y41500D01*
X24000Y41900D02*
X23600Y41500D01*
X24200D02*
Y41900D01*
X24300Y42000D01*
X24500D01*
X24600Y41900D01*
Y41500D01*
X24500Y41400D01*
X24300D01*
X24200Y41500D01*
X24600Y41900D02*
X24200Y41500D01*
X25800Y42000D02*
Y41400D01*
X25600Y41600D01*
X25400Y41400D01*
Y42000D01*
X25600Y41700D02*
Y41600D01*
X26100Y41800D02*
X26300D01*
X26400Y41700D01*
Y41400D01*
Y41500D02*
X26300Y41400D01*
X26100D01*
X26000Y41500D01*
X26100Y41600D01*
X26400D01*
X27000Y41500D02*
X26900Y41400D01*
X26800D01*
X26700Y41500D01*
Y42000D01*
X26600Y41800D02*
X26900D01*
X27600Y41500D02*
X27500Y41400D01*
X27400D01*
X27300Y41500D01*
Y42000D01*
X27200Y41800D02*
X27500D01*
X28400D02*
X28800Y41400D01*
X28400D02*
X28800Y41800D01*
X29000Y41900D02*
X29100Y42000D01*
X29300D01*
X29400Y41900D01*
Y41800D01*
X29300Y41700D01*
X29100D01*
X29000Y41600D01*
Y41400D01*
X29400D01*
X22550Y40450D02*
X22350D01*
X22250Y40550D01*
Y40650D01*
X22350Y40750D01*
X22550D01*
X22650Y40650D01*
X22550Y40450D02*
X22650Y40350D01*
Y40250D01*
X22550Y40150D01*
X22350D01*
X22250Y40250D01*
X23250D02*
X23150Y40150D01*
X23050D01*
X22950Y40250D01*
Y40750D01*
X22850Y40550D02*
X23150D01*
X23750Y40150D02*
X23550D01*
X23450Y40250D01*
Y40450D01*
X23550Y40550D01*
X23750D01*
X23850Y40450D01*
Y40350D01*
X23450D01*
X24050Y40550D02*
Y40150D01*
Y40350D02*
X24250Y40550D01*
X24350D01*
X24450Y40450D01*
X24950Y40150D02*
X24750D01*
X24650Y40250D01*
Y40450D01*
X24750Y40550D01*
X24950D01*
X25050Y40450D01*
Y40350D01*
X24650D01*
X25250Y40250D02*
Y40450D01*
X25350Y40550D01*
X25550D01*
X25650Y40450D01*
Y40250D01*
X25550Y40150D01*
X25350D01*
X25250Y40250D01*
X26450Y40450D02*
X26850D01*
X28050Y40350D02*
X27650D01*
Y40450D01*
X27950Y40750D01*
Y40150D01*
X28250Y40450D02*
X28650D01*
X28850Y40250D02*
Y40650D01*
X28950Y40750D01*
X29150D01*
X29250Y40650D01*
Y40250D01*
X29150Y40150D01*
X28950D01*
X28850Y40250D01*
X29450Y40750D02*
Y40150D01*
Y40350D02*
X29650Y40550D01*
X29750D01*
X29850Y40450D01*
Y40150D01*
X30050Y40550D02*
Y40150D01*
Y40450D02*
X30150Y40550D01*
X30250Y40450D01*
Y40150D01*
Y40450D02*
X30350Y40550D01*
X30450Y40450D01*
Y40150D01*
D15*
X9715Y51803D02*
X9250D01*
Y52500D01*
X10412Y51803D02*
X9948D01*
Y52151D01*
Y52500D01*
X10412D01*
X9948Y52151D02*
X10296D01*
X10645Y52500D02*
X10994D01*
X11110Y52384D01*
Y51919D01*
X10994Y51803D01*
X10645D01*
X10761Y52500D02*
Y51803D01*
X9715Y15803D02*
X9250D01*
Y16500D01*
X10412Y15803D02*
X9948D01*
Y16151D01*
Y16500D01*
X10412D01*
X9948Y16151D02*
X10296D01*
X10645Y16500D02*
X10994D01*
X11110Y16384D01*
Y15919D01*
X10994Y15803D01*
X10645D01*
X10761Y16500D02*
Y15803D01*
X2599Y55151D02*
X2366D01*
X2250Y55268D01*
Y55384D01*
X2366Y55500D01*
X2599D01*
X2715Y55384D01*
X2599Y55151D02*
X2715Y55035D01*
Y54919D01*
X2599Y54803D01*
X2366D01*
X2250Y54919D01*
X2948Y55500D02*
Y54803D01*
Y55500D02*
X3296D01*
X3413Y55384D01*
Y55268D01*
X3296Y55151D01*
X2948D01*
X3761Y55384D02*
X3877Y55500D01*
Y54803D01*
X3761D02*
X3994D01*
X13715Y40419D02*
X13599Y40302D01*
X13366D01*
X13250Y40419D01*
Y40884D01*
X13366Y41000D01*
X13599D01*
X13715Y40884D01*
X14064D02*
X14180Y41000D01*
Y40302D01*
X14064D02*
X14296D01*
X14645Y40535D02*
X14761Y40651D01*
X14994D01*
X15110Y40535D01*
Y40419D01*
X14994Y40302D01*
X14761D01*
X14645Y40419D01*
Y40535D01*
Y40767D01*
X14877Y41000D01*
X14994D01*
X2599Y19151D02*
X2366D01*
X2250Y19268D01*
Y19384D01*
X2366Y19500D01*
X2599D01*
X2715Y19384D01*
X2599Y19151D02*
X2715Y19035D01*
Y18919D01*
X2599Y18802D01*
X2366D01*
X2250Y18919D01*
X2948Y19500D02*
Y18802D01*
Y19500D02*
X3296D01*
X3413Y19384D01*
Y19268D01*
X3296Y19151D01*
X2948D01*
X3761Y19384D02*
X3877Y19500D01*
Y18802D01*
X3761D02*
X3994D01*
X2715Y7169D02*
X2599Y7053D01*
X2366D01*
X2250Y7169D01*
Y7634D01*
X2366Y7750D01*
X2599D01*
X2715Y7634D01*
X2948D02*
Y7750D01*
X3413D01*
Y7634D01*
X3064Y7285D01*
Y7053D01*
X13465Y4919D02*
X13349Y4802D01*
X13116D01*
X13000Y4919D01*
Y5384D01*
X13116Y5500D01*
X13349D01*
X13465Y5384D01*
X13814D02*
X13930Y5500D01*
Y4802D01*
X13814D02*
X14046D01*
X14395Y5035D02*
X14511Y5151D01*
X14744D01*
X14860Y5035D01*
Y4919D01*
X14744Y4802D01*
X14511D01*
X14395Y4919D01*
Y5035D01*
Y5267D01*
X14627Y5500D01*
X14744D01*
X11715Y24169D02*
X11599Y24052D01*
X11366D01*
X11250Y24169D01*
Y24634D01*
X11366Y24750D01*
X11599D01*
X11715Y24634D01*
X11947Y24285D02*
X12064Y24401D01*
X12296D01*
X12412Y24285D01*
Y24169D01*
X12296Y24052D01*
X12064D01*
X11947Y24169D01*
Y24285D01*
Y24517D01*
X12180Y24750D01*
X12296D01*
X2965Y43169D02*
X2849Y43052D01*
X2616D01*
X2500Y43169D01*
Y43634D01*
X2616Y43750D01*
X2849D01*
X2965Y43634D01*
X3197D02*
Y43750D01*
X3662D01*
Y43634D01*
X3314Y43285D01*
Y43052D01*
X9465Y60169D02*
X9349Y60053D01*
X9116D01*
X9000Y60169D01*
Y60634D01*
X9116Y60750D01*
X9349D01*
X9465Y60634D01*
X9698Y60285D02*
X9814Y60401D01*
X10046D01*
X10162Y60285D01*
Y60169D01*
X10046Y60053D01*
X9814D01*
X9698Y60169D01*
Y60285D01*
Y60517D01*
X9930Y60750D01*
X10046D01*
D16*
X20500Y48900D02*
X18000D01*
Y52100D02*
Y48900D01*
Y52100D02*
X20500D01*
Y48900D02*
Y52100D01*
X20440Y49500D02*
X20260D01*
Y51500D02*
Y49500D01*
Y51500D02*
X20440D01*
Y49500D02*
Y51500D01*
X20380Y49500D02*
X20320D01*
Y51500D02*
Y49500D01*
Y51500D02*
X20380D01*
Y49500D02*
Y51500D01*
X0Y59470D02*
X4000D01*
Y55810D02*
Y59460D01*
Y55810D02*
X0D01*
Y59460D02*
Y55810D01*
X240Y56560D02*
Y58420D01*
Y56560D02*
X60D01*
Y58420D02*
Y56560D01*
X180D02*
Y58420D01*
X32250Y47650D02*
X34250D01*
Y41850D02*
Y47650D01*
Y41850D02*
X32250D01*
Y47650D02*
Y41850D01*
X33250Y47650D02*
Y48450D01*
Y41850D02*
Y41050D01*
X32250Y59650D02*
X34250D01*
Y53850D02*
Y59650D01*
Y53850D02*
X32250D01*
Y59650D02*
Y53850D01*
X33250Y59650D02*
Y60450D01*
Y53850D02*
Y53050D01*
X25750Y50350D02*
X23750D01*
Y56150D02*
Y50350D01*
Y56150D02*
X25750D01*
Y50350D02*
Y56150D01*
X24750Y50350D02*
Y49550D01*
Y56150D02*
Y56950D01*
X6250Y65600D02*
X5250D01*
Y67900D02*
Y65600D01*
Y67900D02*
X6250D01*
Y65600D02*
Y67900D01*
X5750Y65600D02*
Y65250D01*
Y67900D02*
Y68250D01*
X6500Y67900D02*
X7500D01*
Y65600D02*
Y67900D01*
X180Y56560D02*
X120D01*
Y58420D02*
Y56560D01*
X0Y63350D02*
X2500D01*
Y61150D02*
Y63350D01*
Y61150D02*
X0D01*
Y63350D02*
Y61150D01*
X60Y62750D02*
X240D01*
Y61750D02*
Y62750D01*
Y61750D02*
X60D01*
Y62750D02*
Y61750D01*
X120Y62750D02*
X180D01*
Y61750D02*
Y62750D01*
Y61750D02*
X120D01*
Y62750D02*
Y61750D01*
X7500Y65600D02*
X6500D01*
Y67900D02*
Y65600D01*
X7000Y67900D02*
Y68250D01*
Y65600D02*
Y65250D01*
X22750Y66850D02*
X21750D01*
Y69150D02*
Y66850D01*
Y69150D02*
X22750D01*
Y66850D02*
Y69150D01*
X22250Y66850D02*
Y66500D01*
Y69150D02*
Y69500D01*
X24000Y66850D02*
X23000D01*
Y69150D02*
Y66850D01*
Y69150D02*
X24000D01*
Y66850D02*
Y69150D01*
X23500Y66850D02*
Y66500D01*
Y69150D02*
Y69500D01*
X20500Y69150D02*
X21500D01*
Y66850D02*
Y69150D01*
Y66850D02*
X20500D01*
Y69150D02*
Y66850D01*
X21000Y69150D02*
Y69500D01*
Y66850D02*
Y66500D01*
X27250Y62650D02*
X28250D01*
Y60350D02*
Y62650D01*
Y60350D02*
X27250D01*
Y62650D02*
Y60350D01*
X27750Y62650D02*
Y63000D01*
Y60350D02*
Y60000D01*
X26500Y55650D02*
X27500D01*
Y53350D02*
Y55650D01*
Y53350D02*
X26500D01*
Y55650D02*
Y53350D01*
X27000Y55650D02*
Y56000D01*
Y53350D02*
Y53000D01*
X21250Y50650D02*
X22250D01*
Y48350D02*
Y50650D01*
Y48350D02*
X21250D01*
Y50650D02*
Y48350D01*
X21750Y50650D02*
Y51000D01*
Y48350D02*
Y48000D01*
X21100Y45750D02*
Y46750D01*
X23400D02*
X21100D01*
X23400D02*
Y45750D01*
X21100D02*
X23400D01*
X21100Y46250D02*
X20750D01*
X23400D02*
X23750D01*
X19250Y69150D02*
X20250D01*
Y66850D02*
Y69150D01*
Y66850D02*
X19250D01*
Y69150D02*
Y66850D01*
X19750Y69150D02*
Y69500D01*
Y66850D02*
Y66500D01*
X22500Y63900D02*
X23500D01*
Y61600D02*
Y63900D01*
Y61600D02*
X22500D01*
Y63900D02*
Y61600D01*
X23000Y63900D02*
Y64250D01*
Y61600D02*
Y61250D01*
X4000Y68900D02*
X5000D01*
Y66600D02*
Y68900D01*
Y66600D02*
X4000D01*
Y68900D02*
Y66600D01*
X4500Y68900D02*
Y69250D01*
Y66600D02*
Y66250D01*
X13500Y67900D02*
X14500D01*
Y65600D02*
Y67900D01*
Y65600D02*
X13500D01*
Y67900D02*
Y65600D01*
X14000Y67900D02*
Y68250D01*
Y65600D02*
Y65250D01*
X9100Y64250D02*
Y65250D01*
X11400D02*
X9100D01*
X11400D02*
Y64250D01*
X9100D02*
X11400D01*
X9100Y64750D02*
X8750D01*
X11400D02*
X11750D01*
X4050Y65250D02*
X4950D01*
X5250Y64950D01*
Y62550D01*
X4950Y62250D01*
X4050D01*
X3750Y62550D01*
Y64950D01*
X4050Y65250D01*
X3450Y65000D02*
X2550D01*
X2250Y65300D01*
Y67700D01*
X2550Y68000D01*
X3450D01*
X3750Y67700D01*
Y65300D01*
X3450Y65000D01*
X10950Y67250D02*
X10050D01*
X9750Y67550D01*
Y69950D01*
X10050Y70250D01*
X10950D01*
X11250Y69950D01*
Y67550D01*
X10950Y67250D01*
X29050Y64000D02*
X29950D01*
X30250Y63700D01*
Y61300D01*
X29950Y61000D01*
X29050D01*
X28750Y61300D01*
Y63700D01*
X29050Y64000D01*
X26550Y51500D02*
X27450D01*
X27750Y51200D01*
Y48800D01*
X27450Y48500D01*
X26550D01*
X26250Y48800D01*
Y51200D01*
X26550Y51500D01*
X15200Y67410D02*
Y67990D01*
X14910Y67700D02*
X15490D01*
X21590Y55700D02*
X21010D01*
X21300Y55410D02*
Y55990D01*
X25540Y67460D02*
Y68040D01*
X25250Y67750D02*
X25830D01*
X20000Y54950D02*
Y54050D01*
X19700Y53750D01*
X17300D01*
X17000Y54050D01*
Y54950D01*
X17300Y55250D01*
X19700D01*
X20000Y54950D01*
X23450Y57250D02*
X22550D01*
X22250Y57550D01*
Y59950D01*
X22550Y60250D01*
X23450D01*
X23750Y59950D01*
Y57550D01*
X23450Y57250D01*
X16450Y63500D02*
X15550D01*
X15250Y63800D01*
Y66200D01*
X15550Y66500D01*
X16450D01*
X16750Y66200D01*
Y63800D01*
X16450Y63500D01*
X30750Y50400D02*
X28250D01*
Y52600D02*
Y50400D01*
Y52600D02*
X30750D01*
Y50400D02*
Y52600D01*
X30690Y51000D02*
X30510D01*
Y52000D02*
Y51000D01*
Y52000D02*
X30690D01*
Y51000D02*
Y52000D01*
X30630Y51000D02*
X30570D01*
Y52000D02*
Y51000D01*
Y52000D02*
X30630D01*
Y51000D02*
Y52000D01*
X9250Y71450D02*
Y70550D01*
X8950Y70250D01*
X6550D01*
X6250Y70550D01*
X6050Y53750D02*
X6950D01*
X7250Y53450D01*
Y51050D01*
X6950Y50750D01*
X6050D01*
X5750Y51050D01*
Y53450D01*
X6050Y53750D01*
X21500Y55650D02*
X22500D01*
Y53350D02*
Y55650D01*
Y53350D02*
X21500D01*
Y55650D02*
Y53350D01*
X22000Y55650D02*
Y56000D01*
Y53350D02*
Y53000D01*
X6250Y70550D02*
Y71450D01*
X6550Y71750D01*
X8950D01*
X9250Y71450D01*
X36750Y45500D02*
X38250D01*
X38500Y39500D02*
Y45500D01*
X38250Y39500D02*
X36750D01*
X36500Y45250D02*
Y39750D01*
X38250Y45500D02*
X38500D01*
Y39500D02*
X38250D01*
X36500Y45250D02*
X36750Y45500D01*
X36500Y39750D02*
X36750Y39500D01*
Y64250D02*
X38250D01*
X38500Y58250D02*
Y64250D01*
X38250Y58250D02*
X36750D01*
X38550Y57250D02*
Y53250D01*
X36750D02*
X38550D01*
X36750D02*
Y57250D01*
X38550D02*
X36750D01*
X17790Y48500D02*
Y47550D01*
X18240Y47100D01*
X20260D01*
X20710Y47550D01*
Y48500D01*
X17790D01*
X8250Y67290D02*
X9200D01*
X9650Y67740D01*
X38490Y57250D02*
Y53250D01*
X38430D02*
X38490D01*
X38430D02*
Y57250D01*
X0Y53720D02*
X4000D01*
Y50060D02*
Y53710D01*
Y50060D02*
X0D01*
Y53710D02*
Y50060D01*
X240Y50810D02*
Y52670D01*
Y50810D02*
X60D01*
Y52670D02*
Y50810D01*
X180D02*
Y52670D01*
Y50810D02*
X120D01*
X38490Y57250D02*
X38430D01*
X38370D02*
Y53250D01*
X38310D02*
X38370D01*
X38310D02*
Y57250D01*
X38370D02*
X38310D01*
X120Y52670D02*
Y50810D01*
X12050Y45300D02*
X12950D01*
X12500Y45750D02*
Y44850D01*
X15800Y52000D02*
X16700D01*
X17000Y51700D01*
Y49300D01*
X16700Y49000D01*
X15800D01*
X15500Y49300D01*
Y51700D01*
X15800Y52000D01*
X25750Y43950D02*
Y43050D01*
X25450Y42750D01*
X23050D01*
X22750Y43050D01*
Y43950D01*
X23050Y44250D01*
X25450D01*
X25750Y43950D01*
X30500D02*
Y43050D01*
X30200Y42750D01*
X27800D01*
X27500Y43050D01*
Y43950D01*
X27800Y44250D01*
X30200D01*
X30500Y43950D01*
X33550Y68250D02*
X34450D01*
X34750Y67950D01*
Y65550D01*
X34450Y65250D01*
X33550D01*
X33250Y65550D01*
Y67950D01*
X33550Y68250D01*
X28750Y70700D02*
Y69800D01*
X28450Y69500D01*
X26050D01*
X25750Y69800D01*
Y70700D01*
X26050Y71000D01*
X28450D01*
X28750Y70700D01*
X25750Y36950D02*
Y36050D01*
X11500Y49400D02*
X9000D01*
Y51600D02*
Y49400D01*
Y51600D02*
X11500D01*
Y49400D02*
Y51600D01*
X11440Y50000D02*
X11260D01*
Y51000D02*
Y50000D01*
Y51000D02*
X11440D01*
Y50000D02*
Y51000D01*
X11380Y50000D02*
X11320D01*
Y51000D02*
Y50000D01*
Y51000D02*
X11380D01*
Y50000D02*
Y51000D01*
X12750Y51150D02*
X13750D01*
Y48850D02*
Y51150D01*
Y48850D02*
X12750D01*
Y51150D02*
Y48850D01*
X13250Y51150D02*
Y51500D01*
Y48850D02*
Y48500D01*
X38550Y50500D02*
Y46500D01*
X36750D02*
X38550D01*
X36750D02*
Y50500D01*
X38550D02*
X36750D01*
X38490D02*
Y46500D01*
X38430D02*
X38490D01*
X38430D02*
Y50500D01*
X38490D02*
X38430D01*
X38370D02*
Y46500D01*
X38310D02*
X38370D01*
X38310D02*
Y50500D01*
X38370D02*
X38310D01*
X25750Y36050D02*
X25450Y35750D01*
X1300Y48050D02*
X2200D01*
X1750Y48500D02*
Y47600D01*
X20500Y12900D02*
X18000D01*
Y16100D02*
Y12900D01*
Y16100D02*
X20500D01*
Y12900D02*
Y16100D01*
X20440Y13500D02*
X20260D01*
Y15500D02*
Y13500D01*
Y15500D02*
X20440D01*
Y13500D02*
Y15500D01*
X20380Y13500D02*
X20320D01*
Y15500D02*
Y13500D01*
Y15500D02*
X20380D01*
Y13500D02*
Y15500D01*
X25450Y35750D02*
X23050D01*
X36750Y9500D02*
X38250D01*
X38500Y3500D02*
Y9500D01*
X38250Y3500D02*
X36750D01*
X36500Y9250D02*
Y3750D01*
Y64000D02*
Y58500D01*
X38250Y64250D02*
X38500D01*
Y58250D02*
X38250D01*
X36500Y64000D02*
X36750Y64250D01*
X36500Y58500D02*
X36750Y58250D01*
X16550Y62700D02*
Y61800D01*
X23050Y35750D02*
X22750Y36050D01*
X34500Y12200D02*
X36000D01*
Y8800D02*
Y12200D01*
Y8800D02*
X34500D01*
Y12200D02*
Y8800D01*
X35250Y12200D02*
Y12700D01*
Y8800D02*
Y8300D01*
X34500Y11690D02*
X36000D01*
X34500Y20450D02*
X36000D01*
Y17050D02*
Y20450D01*
Y17050D02*
X34500D01*
Y20450D02*
Y17050D01*
X35250Y20450D02*
Y20950D01*
Y17050D02*
Y16550D01*
X34500Y19940D02*
X36000D01*
X9650Y67740D02*
Y69760D01*
X9200Y70210D01*
X8250D01*
Y67290D01*
X11250Y66290D02*
X12200D01*
X12650Y66740D01*
Y68760D01*
X12200Y69210D01*
X11250D01*
Y66290D01*
X38250Y9500D02*
X38500D01*
Y3500D02*
X38250D01*
X36500Y9250D02*
X36750Y9500D01*
X36500Y3750D02*
X36750Y3500D01*
X0Y27350D02*
X2500D01*
Y25150D02*
Y27350D01*
Y25150D02*
X0D01*
Y27350D02*
Y25150D01*
X60Y26750D02*
X240D01*
Y25750D02*
Y26750D01*
Y25750D02*
X60D01*
Y26750D02*
Y25750D01*
X120Y26750D02*
X180D01*
Y25750D02*
Y26750D01*
Y25750D02*
X120D01*
Y26750D02*
Y25750D01*
X0Y23470D02*
X4000D01*
Y19810D02*
Y23460D01*
Y19810D02*
X0D01*
Y23460D02*
Y19810D01*
X240Y20560D02*
Y22420D01*
Y20560D02*
X60D01*
Y22420D02*
Y20560D01*
X180D02*
Y22420D01*
Y20560D02*
X120D01*
Y22420D02*
Y20560D01*
X32250Y11650D02*
X34250D01*
Y5850D02*
Y11650D01*
Y5850D02*
X32250D01*
Y11650D02*
Y5850D01*
X33250Y11650D02*
Y12450D01*
Y5850D02*
Y5050D01*
X32250Y23650D02*
X34250D01*
Y17850D02*
Y23650D01*
Y17850D02*
X32250D01*
Y23650D02*
Y17850D01*
X33250Y23650D02*
Y24450D01*
Y17850D02*
Y17050D01*
X17790Y12500D02*
Y11550D01*
X18240Y11100D01*
X20260D01*
X20710Y11550D01*
Y12500D01*
X17790D01*
X25750Y14350D02*
X23750D01*
Y20150D02*
Y14350D01*
Y20150D02*
X25750D01*
Y14350D02*
Y20150D01*
X24750Y14350D02*
Y13550D01*
Y20150D02*
Y20950D01*
X6250Y29600D02*
X5250D01*
Y31900D02*
Y29600D01*
Y31900D02*
X6250D01*
Y29600D02*
Y31900D01*
X5750Y29600D02*
Y29250D01*
Y31900D02*
Y32250D01*
X6500Y31900D02*
X7500D01*
Y29600D02*
Y31900D01*
Y29600D02*
X6500D01*
Y31900D02*
Y29600D01*
X7000Y31900D02*
Y32250D01*
Y29600D02*
Y29250D01*
X1300Y12050D02*
X2200D01*
X1750Y12500D02*
Y11600D01*
X0Y17720D02*
X4000D01*
Y14060D02*
Y17710D01*
Y14060D02*
X0D01*
Y17710D02*
Y14060D01*
X240Y14810D02*
Y16670D01*
Y14810D02*
X60D01*
Y16670D02*
Y14810D01*
X180D02*
Y16670D01*
Y14810D02*
X120D01*
Y16670D02*
Y14810D01*
X22750Y30850D02*
X21750D01*
Y33150D02*
Y30850D01*
Y33150D02*
X22750D01*
Y30850D02*
Y33150D01*
X22250Y30850D02*
Y30500D01*
Y33150D02*
Y33500D01*
X24000Y30850D02*
X23000D01*
Y33150D02*
Y30850D01*
Y33150D02*
X24000D01*
Y30850D02*
Y33150D01*
X23500Y30850D02*
Y30500D01*
Y33150D02*
Y33500D01*
X20500Y33150D02*
X21500D01*
Y30850D02*
Y33150D01*
Y30850D02*
X20500D01*
Y33150D02*
Y30850D01*
X21000Y33150D02*
Y33500D01*
Y30850D02*
Y30500D01*
X27250Y26650D02*
X28250D01*
Y24350D02*
Y26650D01*
Y24350D02*
X27250D01*
Y26650D02*
Y24350D01*
X27750Y26650D02*
Y27000D01*
Y24350D02*
Y24000D01*
X26500Y19650D02*
X27500D01*
Y17350D02*
Y19650D01*
Y17350D02*
X26500D01*
Y19650D02*
Y17350D01*
X27000Y19650D02*
Y20000D01*
Y17350D02*
Y17000D01*
X21250Y14650D02*
X22250D01*
Y12350D02*
Y14650D01*
Y12350D02*
X21250D01*
Y14650D02*
Y12350D01*
X21750Y14650D02*
Y15000D01*
Y12350D02*
Y12000D01*
X21100Y9750D02*
Y10750D01*
X23400D02*
X21100D01*
X23400D02*
Y9750D01*
X21100D02*
X23400D01*
X21100Y10250D02*
X20750D01*
X23400D02*
X23750D01*
X19250Y33150D02*
X20250D01*
Y30850D02*
Y33150D01*
Y30850D02*
X19250D01*
Y33150D02*
Y30850D01*
X19750Y33150D02*
Y33500D01*
Y30850D02*
Y30500D01*
X22500Y27900D02*
X23500D01*
Y25600D02*
Y27900D01*
Y25600D02*
X22500D01*
Y27900D02*
Y25600D01*
X23000Y27900D02*
Y28250D01*
Y25600D02*
Y25250D01*
X4000Y32900D02*
X5000D01*
Y30600D02*
Y32900D01*
Y30600D02*
X4000D01*
Y32900D02*
Y30600D01*
X4500Y32900D02*
Y33250D01*
Y30600D02*
Y30250D01*
X13500Y31900D02*
X14500D01*
Y29600D02*
Y31900D01*
Y29600D02*
X13500D01*
Y31900D02*
Y29600D01*
X14000Y31900D02*
Y32250D01*
Y29600D02*
Y29250D01*
X9100Y28250D02*
Y29250D01*
X11400D02*
X9100D01*
X11400D02*
Y28250D01*
X9100D02*
X11400D01*
X9100Y28750D02*
X8750D01*
X11400D02*
X11750D01*
X4050Y29250D02*
X4950D01*
X5250Y28950D01*
Y26550D01*
X4950Y26250D01*
X4050D01*
X3750Y26550D01*
Y28950D01*
X4050Y29250D01*
X3450Y29000D02*
X2550D01*
X2250Y29300D01*
Y31700D01*
X2550Y32000D01*
X3450D01*
X3750Y31700D01*
Y29300D01*
X3450Y29000D01*
X10950Y31250D02*
X10050D01*
X9750Y31550D01*
Y33950D01*
X10050Y34250D01*
X10950D01*
X11250Y33950D01*
Y31550D01*
X10950Y31250D01*
X29050Y28000D02*
X29950D01*
X30250Y27700D01*
Y25300D01*
X29950Y25000D01*
X29050D01*
X28750Y25300D01*
Y27700D01*
X29050Y28000D01*
X26550Y15500D02*
X27450D01*
X27750Y15200D01*
Y12800D01*
X27450Y12500D01*
X26550D01*
X26250Y12800D01*
Y15200D01*
X26550Y15500D01*
X15200Y31410D02*
Y31990D01*
X14910Y31700D02*
X15490D01*
X21590Y19700D02*
X21010D01*
X21300Y19410D02*
Y19990D01*
X25540Y31460D02*
Y32040D01*
X25250Y31750D02*
X25830D01*
X20000Y18950D02*
Y18050D01*
X19700Y17750D01*
X17300D01*
X17000Y18050D01*
Y18950D01*
X17300Y19250D01*
X19700D01*
X20000Y18950D01*
X23450Y21250D02*
X22550D01*
X22250Y21550D01*
Y23950D01*
X22550Y24250D01*
X23450D01*
X23750Y23950D01*
Y21550D01*
X23450Y21250D01*
X16450Y27500D02*
X15550D01*
X15250Y27800D01*
Y30200D01*
X15550Y30500D01*
X16450D01*
X16750Y30200D01*
Y27800D01*
X16450Y27500D01*
X30500Y14400D02*
X28000D01*
Y16600D02*
Y14400D01*
Y16600D02*
X30500D01*
Y14400D02*
Y16600D01*
X30440Y15000D02*
X30260D01*
Y16000D02*
Y15000D01*
Y16000D02*
X30440D01*
Y15000D02*
Y16000D01*
X30380Y15000D02*
X30320D01*
Y16000D02*
Y15000D01*
Y16000D02*
X30380D01*
Y15000D02*
Y16000D01*
X9250Y35450D02*
Y34550D01*
X8950Y34250D01*
X6550D01*
X6250Y34550D01*
Y35450D01*
X6550Y35750D01*
X8950D01*
X9250Y35450D01*
X6050Y17750D02*
X6950D01*
X7250Y17450D01*
Y15050D01*
X6950Y14750D01*
X6050D01*
X5750Y15050D01*
Y17450D01*
X6050Y17750D01*
X21500Y19650D02*
X22500D01*
Y17350D02*
Y19650D01*
Y17350D02*
X21500D01*
Y19650D02*
Y17350D01*
X22000Y19650D02*
Y20000D01*
Y17350D02*
Y17000D01*
X36750Y28250D02*
X38250D01*
X38500Y22250D02*
Y28250D01*
X38250Y22250D02*
X36750D01*
X36500Y28000D02*
Y22500D01*
X38250Y28250D02*
X38500D01*
Y22250D02*
X38250D01*
X36500Y28000D02*
X36750Y28250D01*
X36500Y22500D02*
X36750Y22250D01*
X8250Y31290D02*
X9200D01*
X9650Y31740D01*
Y33760D01*
X9200Y34210D01*
X8250D01*
Y31290D01*
X11250Y30290D02*
X12200D01*
X12650Y30740D01*
Y32760D01*
X12200Y33210D01*
X11250D01*
Y30290D01*
X11800Y9800D02*
X12700D01*
X12250Y10250D02*
Y9350D01*
X15800Y16000D02*
X16700D01*
X17000Y15700D01*
Y13300D01*
X16700Y13000D01*
X15800D01*
X15500Y13300D01*
Y15700D01*
X15800Y16000D01*
X25750Y7450D02*
Y6550D01*
X25450Y6250D01*
X23050D01*
X22750Y6550D01*
Y7450D01*
X23050Y7750D01*
X25450D01*
X25750Y7450D01*
X30750D02*
Y6550D01*
X30450Y6250D01*
X28050D01*
X27750Y6550D01*
Y7450D01*
X28050Y7750D01*
X30450D01*
X30750Y7450D01*
X33550Y32250D02*
X34450D01*
X34750Y31950D01*
Y29550D01*
X34450Y29250D01*
X33550D01*
X33250Y29550D01*
Y31950D01*
X33550Y32250D01*
X28750Y34700D02*
Y33800D01*
X28450Y33500D01*
X26050D01*
X25750Y33800D01*
Y34700D01*
X26050Y35000D01*
X28450D01*
X28750Y34700D01*
X16550Y26700D02*
Y25800D01*
X17000Y26250D02*
X16100D01*
X22750Y36050D02*
Y36950D01*
X23050Y37250D01*
X11500Y13400D02*
X9000D01*
Y15600D02*
Y13400D01*
Y15600D02*
X11500D01*
Y13400D02*
Y15600D01*
X11440Y14000D02*
X11260D01*
Y15000D02*
Y14000D01*
Y15000D02*
X11440D01*
Y14000D02*
Y15000D01*
X11380Y14000D02*
X11320D01*
Y15000D02*
Y14000D01*
Y15000D02*
X11380D01*
Y14000D02*
Y15000D01*
X12750Y15150D02*
X13750D01*
Y12850D02*
Y15150D01*
Y12850D02*
X12750D01*
Y15150D02*
Y12850D01*
X13250Y15150D02*
Y15500D01*
Y12850D02*
Y12500D01*
X23050Y37250D02*
X25450D01*
X25750Y36950D01*
X30750D02*
Y36050D01*
X30450Y35750D01*
X28050D01*
X27750Y36050D01*
Y36950D01*
X28050Y37250D01*
X30450D01*
X30750Y36950D01*
X34500Y56450D02*
X36000D01*
Y53050D02*
Y56450D01*
Y53050D02*
X34500D01*
Y56450D02*
Y53050D01*
X35250Y56450D02*
Y56950D01*
Y53050D02*
Y52550D01*
X34500Y55940D02*
X36000D01*
X34500Y48200D02*
X36000D01*
Y44800D02*
Y48200D01*
Y44800D02*
X34500D01*
Y48200D02*
Y44800D01*
X35250Y48200D02*
Y48700D01*
Y44800D02*
Y44300D01*
X34500Y47690D02*
X36000D01*
X38550Y21250D02*
Y17250D01*
X36750D02*
X38550D01*
X36750D02*
Y21250D01*
X38550D02*
X36750D01*
X38490D02*
Y17250D01*
X38430D02*
X38490D01*
X38430D02*
Y21250D01*
X38490D02*
X38430D01*
X38370D02*
Y17250D01*
X38310D02*
X38370D01*
X38310D02*
Y21250D01*
X38370D02*
X38310D01*
X38550Y14500D02*
Y10500D01*
X36750D02*
X38550D01*
X36750D02*
Y14500D01*
X38550D02*
X36750D01*
X38490D02*
Y10500D01*
X38430D02*
X38490D01*
X38430D02*
Y14500D01*
X38490D02*
X38430D01*
X38370D02*
Y10500D01*
X38310D02*
X38370D01*
X38310D02*
Y14500D01*
X38370D02*
X38310D01*
X17000Y62250D02*
X16100D01*
G75*
X19000Y69500D02*
G02I-2000J0D01*
G01X19500Y59500D02*
G02I0J-2000D01*
G01X29250Y66000D02*
G02I-2000J0D01*
G01X19750Y64750D02*
G02I0J-2000D01*
G01X16250Y35750D02*
G02I0J5000D01*
G01X5500Y38500D02*
G02I0J5000D01*
G01X7000Y58500D02*
G02I5000J0D01*
G01X5500Y2500D02*
G02I0J5000D01*
G01X19000Y33500D02*
G02I-2000J0D01*
G01X19500Y23500D02*
G02I0J-2000D01*
G01X29250Y30000D02*
G02I-2000J0D01*
G01X19750Y28750D02*
G02I0J-2000D01*
G01X16000Y250D02*
G02I0J5000D01*
G01X7000Y22500D02*
G02I5000J0D01*
D17*
G01X16965Y70131D02*
X16831Y69997D01*
X16564D01*
X16430Y70131D01*
Y70666D01*
X16564Y70800D01*
X16831D01*
X16965Y70666D01*
X17767Y70265D02*
X17232D01*
Y70399D01*
X17634Y70800D01*
Y69997D01*
X20769Y57455D02*
X20903Y57321D01*
Y57054D01*
X20769Y56920D01*
X20234D01*
X20100Y57054D01*
Y57321D01*
X20234Y57455D01*
X20367Y57722D02*
X20100D01*
Y58257D01*
X20367Y57722D02*
Y58124D01*
X20501Y58257D01*
X20769D01*
X20903Y58124D01*
Y57856D01*
X20769Y57722D01*
X16965Y34131D02*
X16831Y33997D01*
X16564D01*
X16430Y34131D01*
Y34666D01*
X16564Y34800D01*
X16831D01*
X16965Y34666D01*
X17767Y34265D02*
X17232D01*
Y34399D01*
X17634Y34800D01*
Y33997D01*
X20769Y21455D02*
X20903Y21321D01*
Y21054D01*
X20769Y20920D01*
X20234D01*
X20100Y21054D01*
Y21321D01*
X20234Y21455D01*
X20367Y21722D02*
X20100D01*
Y22257D01*
X20367Y21722D02*
Y22124D01*
X20501Y22257D01*
X20769D01*
X20903Y22124D01*
Y21856D01*
X20769Y21722D01*
D18*
X4250Y50800D02*
X4850D01*
X4250Y52800D02*
X4850D01*
X4550Y53100D02*
Y52500D01*
X4250Y56550D02*
X4850D01*
X4250Y58550D02*
X4850D01*
X4550Y58850D02*
Y58250D01*
X2750Y61550D02*
X3350D01*
X2750Y62800D02*
X3350D01*
X3050Y63100D02*
Y62500D01*
X8750Y49950D02*
X8150D01*
X8450Y49650D02*
Y50250D01*
X8750Y51200D02*
X8150D01*
X4250Y14800D02*
X4850D01*
X4250Y16800D02*
X4850D01*
X4550Y17100D02*
Y16500D01*
X4250Y20550D02*
X4850D01*
X4250Y22550D02*
X4850D01*
X4550Y22850D02*
Y22250D01*
X2750Y25550D02*
X3350D01*
X2750Y26800D02*
X3350D01*
X3050Y27100D02*
Y26500D01*
X8750Y13950D02*
X8150D01*
X8450Y13650D02*
Y14250D01*
X8750Y15200D02*
X8150D01*
D19*
X22250Y3350D02*
Y3800D01*
Y4250D01*
X22850D01*
X22250Y3800D02*
X22700D01*
X23300Y3350D02*
X23600D01*
X23300Y3800D02*
X23450D01*
Y3350D01*
Y4250D02*
Y4100D01*
X24650Y3950D02*
Y3200D01*
X24500Y3050D01*
X24050D01*
X24650Y3650D02*
X24350Y3350D01*
X24200D01*
X24050Y3500D01*
Y3800D01*
X24200Y3950D01*
X24500D01*
X24650Y3800D01*
X24950Y4250D02*
X25550D01*
X25250D02*
Y3350D01*
X25850Y3950D02*
Y3350D01*
Y3650D02*
X26150Y3950D01*
X26300D01*
X26450Y3800D01*
X26750Y3500D02*
Y3800D01*
X26900Y3950D01*
X27200D01*
X27350Y3800D01*
Y3500D01*
X27200Y3350D01*
X26900D01*
X26750Y3500D01*
X27650Y3950D02*
Y3350D01*
Y3650D02*
X27950Y3950D01*
X28100D01*
X28250Y3800D01*
Y3350D01*
X28700D02*
X29000D01*
X28700Y3800D02*
X28850D01*
Y3350D01*
Y4250D02*
Y4100D01*
X29450Y4250D02*
Y4100D01*
X30050Y3500D01*
Y3350D01*
X29450D02*
Y3500D01*
X30050Y4100D01*
Y4250D01*
D20*
X38340Y55620D02*
X36840D01*
X38340Y48870D02*
X36840D01*
X38340Y19620D02*
X36840D01*
X38340Y12870D02*
X36840D01*
%LPC*%
D21*
X18250Y48000D03*
X5750Y64750D03*
Y68750D03*
X7000D03*
Y64750D03*
X22250Y66000D03*
Y70000D03*
X23500Y66000D03*
Y70000D03*
X21000D03*
Y66000D03*
X27750Y63500D03*
Y59500D03*
X27000Y56500D03*
Y52500D03*
X21750Y51500D03*
Y47500D03*
X20250Y46250D03*
X24250D03*
X19750Y70000D03*
Y66000D03*
X23000Y64750D03*
Y60750D03*
X4500Y69750D03*
Y65750D03*
X14000Y68750D03*
Y64750D03*
X8250D03*
X12250D03*
X4500D03*
Y62750D03*
X3000Y65500D03*
Y67500D03*
X10500Y67750D03*
Y69750D03*
X29500Y63500D03*
Y61500D03*
X27000Y51000D03*
Y49000D03*
X19500Y54500D03*
X17500D03*
X23000Y57750D03*
Y59750D03*
X16000Y64000D03*
Y66000D03*
X8750Y71000D03*
X6750D03*
X6500Y53250D03*
Y51250D03*
X22000Y56500D03*
Y52500D03*
X25250Y36500D03*
X23250D03*
X19250Y48000D03*
X20250D03*
X8750Y67750D03*
Y68750D03*
Y69750D03*
X11750Y66750D03*
Y67750D03*
Y68750D03*
X30250Y36500D03*
X16250Y51500D03*
Y49500D03*
X25250Y43500D03*
X23250D03*
X30000D03*
X28000D03*
X34000Y67750D03*
Y65750D03*
X28250Y70250D03*
X26250D03*
X28250Y36500D03*
X13250Y52000D03*
Y48000D03*
X18250Y12000D03*
X19250D03*
X20250D03*
X5750Y28750D03*
Y32750D03*
X7000D03*
Y28750D03*
X22250Y30000D03*
Y34000D03*
X23500Y30000D03*
Y34000D03*
X21000D03*
Y30000D03*
X27750Y27500D03*
Y23500D03*
X27000Y20500D03*
Y16500D03*
X21750Y15500D03*
Y11500D03*
X20250Y10250D03*
X24250D03*
X19750Y34000D03*
Y30000D03*
X23000Y28750D03*
Y24750D03*
X4500Y33750D03*
Y29750D03*
X14000Y32750D03*
Y28750D03*
X8250D03*
X12250D03*
X4500D03*
Y26750D03*
X3000Y29500D03*
Y31500D03*
X10500Y31750D03*
Y33750D03*
X29500Y27500D03*
Y25500D03*
X27000Y15000D03*
Y13000D03*
X19500Y18500D03*
X17500D03*
X23000Y21750D03*
Y23750D03*
X16000Y28000D03*
Y30000D03*
X8750Y35000D03*
X6750D03*
X6500Y17250D03*
Y15250D03*
X22000Y20500D03*
Y16500D03*
X8750Y31750D03*
Y32750D03*
Y33750D03*
X11750Y30750D03*
Y31750D03*
Y32750D03*
X16250Y15500D03*
Y13500D03*
X25250Y7000D03*
X23250D03*
X30250D03*
X28250D03*
X34000Y31750D03*
Y29750D03*
X28250Y34250D03*
X26250D03*
X13250Y16000D03*
Y12000D03*
D22*
X19250Y50500D03*
Y51500D03*
X37500Y56250D03*
X1250Y61750D03*
X29500Y52000D03*
X37500Y54250D03*
Y20250D03*
Y49500D03*
X10250Y51000D03*
X19250Y14500D03*
Y15500D03*
X1250Y25750D03*
X36500Y47500D03*
X37500D03*
Y18250D03*
Y13500D03*
X29250Y16000D03*
X10250Y15000D03*
X37500Y11500D03*
X36500D03*
D23*
X18000Y69500D03*
X19500Y58500D03*
X28250Y66000D03*
X19750Y63750D03*
X18000Y33500D03*
X19500Y22500D03*
X28250Y30000D03*
X19750Y27750D03*
D24*
X33250Y49250D03*
Y40250D03*
Y61250D03*
Y52250D03*
X24750Y48750D03*
Y57750D03*
X33250Y13250D03*
Y4250D03*
Y25250D03*
Y16250D03*
X24750Y12750D03*
Y21750D03*
D25*
X2000Y56750D03*
X37500Y42500D03*
Y40250D03*
Y61250D03*
Y59000D03*
X2000Y51000D03*
X37500Y6500D03*
Y4250D03*
X2000Y20750D03*
Y15000D03*
X37500Y25250D03*
Y23000D03*
D26*
X5500Y41000D03*
X16250Y38250D03*
X5500Y5000D03*
X16000Y2750D03*
X9500Y22500D03*
Y58500D03*
D27*
X35250Y7250D03*
Y15500D03*
Y51500D03*
Y43250D03*
D29*
X19250Y49500D03*
X1250Y62750D03*
X29500Y51000D03*
X10250Y50000D03*
X19250Y13500D03*
X1250Y26750D03*
X31750Y47500D03*
X29250Y15000D03*
X10250Y14000D03*
X31750Y11500D03*
D30*
X16000Y69500D03*
X19500Y56500D03*
X26250Y66000D03*
X19750Y61750D03*
X16000Y33500D03*
X19500Y20500D03*
X26250Y30000D03*
X19750Y25750D03*
D31*
X37500Y44750D03*
X2000Y58500D03*
Y52750D03*
X37500Y63500D03*
Y8750D03*
X2000Y22500D03*
Y16750D03*
X37500Y27500D03*
D32*
X5500Y45500D03*
X16250Y42750D03*
X14000Y58500D03*
X5500Y9500D03*
X16000Y7250D03*
X14000Y22500D03*
D33*
X35250Y13750D03*
Y22000D03*
Y58000D03*
Y49750D03*
D34*
X37000Y70500D03*
X1500D03*
X37000Y37500D03*
X1500D03*
X37000Y34500D03*
X1500D03*
X37000Y1500D03*
X1500D03*
%LPD*%
D28*
X0Y72000D02*
X38500D01*
Y0D01*
X0D01*
Y72000D01*
M02*
