M48
;
; Format:               Excellon NC Drill Ascii
; This File Name:       5 T-Amp - Stereo.txt
; Source File Name:     5 T-Amp - Stereo.pcb
; Unique ID:            ade3dfdf-7e2b-446b-93ed-1f2b3b6aaaa2
; Generated Date:       Sunday, 16 June 2024 12:46:47
;
; Created Using:        Robot Room Copper Connection v2.7.5443
; Software Contact:     http://www.robotroom.com/CopperConnection/Support.aspx
; License Number:       1685
; Student Edition:      true
;
; Zero Suppression:     Trailing
; Number Precision:     2.4
;
FMAT,2
INCH,LZ
T01C.029
T02C.035
T03C.04
T04C.046
T05C.067
T06C.079
T07C.15
%
T01
X0065Y01525
Y01725
X01325Y016
X01625Y0155
Y0135
X01825Y012
X01925
X02025
X02175Y0115
X02025Y01025
X02425
X02325Y007
X02525
X02825
X03025
X027Y013
Y015
Y0165
Y0205
X02775Y0235
X0295Y0255
Y0275
X02775
X023Y02875
X0235Y03
X02225
X021
X01975
X016
Y028
X014Y02875
X01225
X01175Y03075
Y03175
Y03275
X0105Y03375
X00875
Y03275
Y03175
X0105
X014Y03275
X00875Y035
X00675
X007Y03275
X00575
X0045Y03375
X003Y0315
Y0295
X0045Y02975
Y02875
X00575
X007
X00825
X0045Y02675
X0175Y0185
X0195
X022Y0205
X023Y02175
Y02375
Y02475
X022Y0165
X02175Y0155
X01325Y012
X01975Y034
X021
X02225
X0235
X02325Y0365
X02525
X02625Y03425
X02825
Y0365
X03025
X034Y03175
Y02975
X03Y0435
X028
X02525
X02325
X02425Y04625
X02175Y0475
X02025Y048
X01925
X01825
X01625Y0495
Y0515
X01325Y052
Y048
X02025Y04625
X02175Y0515
X022Y0525
X0195Y0545
X0175
X022Y0565
X023Y05775
Y05975
Y06075
Y06475
X0235Y066
X02225
X021
X01975
X016
Y064
X014Y06475
X01225
X01175Y06675
Y06775
Y06875
X0105Y06775
X00875
Y06875
Y06975
Y071
X00675
X007Y06875
X00575
X0045Y06975
X003Y0675
Y0655
X0045Y06575
Y06475
X00575
X007
X00825
X0045Y06275
X0105Y06975
X014Y06875
X01975Y07
X021
X02225
X0235
X02625Y07025
X02825
X034Y06775
Y06575
X0295Y0635
X02775
X0295Y0615
X02775Y0595
X027Y0565
Y0525
Y051
Y049
X0065Y05125
Y05325
T02
X0195Y0205
Y0225
X01975Y02575
Y02775
X018Y0335
X016
X02625Y03
X02825
X0195Y0565
Y0585
X01975Y06175
Y06375
X018Y0695
X016
X02625Y066
X02825
T03
X01025Y014
Y015
X01925Y0145
Y0135
Y0155
X02925Y015
Y016
X03175Y0115
X0365
X0375
Y0135
Y01825
Y02025
Y0475
X0365
X0375Y0495
Y05425
Y05625
X0295Y052
Y051
X03175Y0475
X01925Y0495
Y0505
Y0515
X01025Y051
Y05
X00125Y06175
Y06275
Y02675
Y02575
T04
X02475Y01275
X03325Y01325
Y01625
Y02525
X02475Y02175
X03325Y00425
Y04025
Y04925
Y05225
Y06125
X02475Y05775
Y04875
T05
X0055Y005
Y0095
X016Y00725
Y00275
X014Y0225
X0095
X01625Y03825
Y04275
X0055Y041
Y0455
X0095Y0585
X014
T06
X002Y015
Y01675
Y02075
Y0225
Y051
Y05275
Y05675
Y0585
X03525Y058
X0375Y059
Y06125
Y0635
X03525Y0515
Y04975
X0375Y04475
Y0425
Y04025
X03525Y04325
X0375Y0275
Y02525
Y023
X03525Y022
Y0155
Y01375
X0375Y00875
Y0065
Y00425
X03525Y00725
T07
X0015Y0015
Y0345
Y0375
Y0705
X037
Y0375
Y0345
Y0015
M30
