G04*
G04 Format:               Gerber RS-274X*
G04 Layer:                BottomCopper*
G04 This File Name:       5 T-Amp - Stereo.gbl*
G04 Source File Name:     5 T-Amp - Stereo.pcb*
G04 Unique ID:            6ea80e16-d85f-478e-b04a-fb366c90c49d*
G04 Generated Date:       Sunday, 16 June 2024 14:50:20*
G04*
G04 Created Using:        Robot Room Copper Connection v2.7.5443*
G04 Software Contact:     http://www.robotroom.com/CopperConnection/Support.aspx*
G04 License Number:       1685*
G04 Student Edition:      true*
G04*
G04 Zero Suppression:     Leading*
G04 Number Precision:     2.4*
G04*
%FSLAX24Y24*%
%MOIN*%
%LNBottomCopper*%
%ADD10C,.05*%
%ADD11C,.056*%
%ADD12C,.06*%
%ADD13C,.074*%
%ADD14C,.075*%
%ADD15C,.08*%
%ADD16C,.084*%
%ADD17C,.099*%
%ADD18C,.1*%
%ADD19C,.104*%
%ADD20C,.12*%
%ADD21C,.124*%
%ADD22C,.13*%
%ADD23C,.14*%
%ADD24C,.144*%
%ADD25C,.15*%
%ADD26C,.154*%
%ADD27C,.164*%
%ADD28C,.174*%
%ADD29R,.006X.006*%
%ADD30R,.012X.012*%
%ADD31R,.075X.075*%
%ADD32R,.08X.08*%
%ADD33R,.099X.099*%
%ADD34R,.104X.104*%
%ADD35R,.13X.13*%
%ADD36R,.14X.14*%
%ADD37R,.15X.15*%
%ADD38R,.154X.154*%
%ADD39R,.164X.164*%
%ADD40R,.174X.174*%
%ADD41R,.25X.25*%
%ADD42R,.274X.274*%
%AMTHERMAL*7,0,0,$1,$1-$2-$2,$2,0*%
%ADD43THERMAL,.08X.012*%
%ADD44THERMAL,.099X.012*%
%ADD45THERMAL,.104X.012*%
%ADD46THERMAL,.124X.012*%
%ADD47THERMAL,.154X.012*%
%ADD48THERMAL,.164X.012*%
G36*
G01X49000Y8000D02*
Y7000D01*
X52500D01*
Y8000D01*
X49000D01*
G37*
G36*
X34000Y31250D02*
X34750Y30000D01*
X33750D01*
X34000Y31250D01*
G37*
G36*
X13000Y8000D02*
Y7000D01*
X16500D01*
Y8000D01*
X13000D01*
G37*
G36*
X72000Y38500D02*
X0D01*
Y0D01*
X72000D01*
Y38500D01*
G37*
%LPC*%
G36*
X53000Y1000D02*
X48750D01*
Y2250D01*
X53000D01*
Y1000D01*
G37*
G36*
X0Y7250D02*
Y0D01*
X72000D01*
Y7250D01*
X0D01*
G37*
G36*
X18000Y8000D02*
X18250D01*
X18500Y7250D01*
X18000D01*
Y8000D01*
G37*
G36*
X18250Y8000D02*
X18500D01*
X19750Y7250D01*
X18250D01*
Y8000D01*
G37*
G36*
X18500Y8000D02*
X19750D01*
X20500Y7750D01*
X19500Y6750D01*
X18500D01*
Y8000D01*
G37*
G36*
X20000Y7750D02*
X20750D01*
X20000Y8000D01*
X19750D01*
X20000Y7750D01*
G37*
G36*
X20000Y8000D02*
X20500D01*
X21000Y7750D01*
X20000D01*
Y8000D01*
G37*
G36*
X54000Y8000D02*
X56500D01*
X57000Y7750D01*
X55750Y6750D01*
X54000D01*
Y8000D01*
G37*
G36*
X67000Y7500D02*
X69250D01*
X70000Y6750D01*
X67000D01*
Y7500D01*
G37*
G36*
X67750Y8000D02*
X69500D01*
X70250Y7000D01*
X66750D01*
Y7500D01*
X67750Y8000D01*
G37*
G36*
X31750Y8000D02*
X33000D01*
X34250Y7000D01*
X30250D01*
Y7500D01*
X31750Y8000D01*
G37*
G36*
X17000Y1000D02*
X12750D01*
Y2250D01*
X17000D01*
Y1000D01*
G37*
G36*
X10500Y6500D02*
X18000D01*
Y8000D01*
X10500D01*
Y6500D01*
G37*
G36*
X10250Y15000D02*
X11500D01*
Y7500D01*
X10250D01*
Y15000D01*
G37*
G36*
X46250Y15000D02*
X47500D01*
Y7500D01*
X46250D01*
Y15000D01*
G37*
G36*
X46750Y6500D02*
X54250D01*
Y8000D01*
X46750D01*
Y6500D01*
G37*
G36*
X50750Y19750D02*
X49500D01*
Y18750D01*
X50750D01*
Y19750D01*
G37*
G36*
X44750Y20750D02*
X53000D01*
Y15500D01*
X44750D01*
Y20750D01*
G37*
G36*
X10500Y15000D02*
X8500D01*
Y6500D01*
X10500D01*
Y15000D01*
G37*
G36*
X46750Y15000D02*
X44750D01*
Y6500D01*
X46750D01*
Y15000D01*
G37*
G36*
X11500Y18250D02*
X9250D01*
X8750Y17750D01*
Y14000D01*
X11500D01*
Y18250D01*
G37*
G36*
X47500Y18250D02*
X45250D01*
X44750Y17750D01*
Y14000D01*
X47500D01*
Y18250D01*
G37*
G36*
X66000Y30250D02*
Y20000D01*
X70500D01*
Y30250D01*
X66000D01*
G37*
G36*
X70000Y30000D02*
X71250D01*
Y22750D01*
X71000Y22500D01*
X68000D01*
Y30000D01*
X70000D01*
G37*
G36*
X33750Y30000D02*
X35000D01*
Y22750D01*
X34750Y22500D01*
X31750D01*
Y30000D01*
X33750D01*
G37*
G36*
X29750Y30250D02*
Y20000D01*
X34250D01*
Y30250D01*
X29750D01*
G37*
G36*
X8750Y20750D02*
X17000D01*
Y15500D01*
X8750D01*
Y20750D01*
G37*
D43*
X68750Y32750D03*
X66000Y17500D03*
X59500Y10750D03*
X65750Y34000D03*
X64750Y30250D03*
X65500Y35500D03*
X49000Y11500D03*
X71000Y31750D03*
X51250Y32000D03*
X36500Y15250D03*
X49500Y22250D03*
X43500Y15250D03*
Y10500D03*
X65750Y4500D03*
X70250Y12250D03*
X36500Y10250D03*
X32750Y32750D03*
X30000Y17500D03*
X23500Y10750D03*
X29750Y34000D03*
X28750Y30250D03*
X29500Y35500D03*
X13000Y11500D03*
X35000Y31750D03*
X15250Y32000D03*
X13500Y22250D03*
X7000Y15250D03*
Y10250D03*
X29750Y4500D03*
X34250Y12250D03*
D44*
X61750Y37250D03*
X52000Y9000D03*
X51000Y28250D03*
X25750Y37250D03*
X16000Y9250D03*
X15000Y28250D03*
D45*
X69500Y20500D03*
X66000Y10250D03*
X33500Y20500D03*
X30000Y10250D03*
D46*
X48750Y13750D03*
X12750D03*
D47*
X56750Y36500D03*
X51000D03*
X20750D03*
X15000D03*
D48*
X41000Y33000D03*
X38250Y22250D03*
X5000Y33000D03*
X2750Y22500D03*
D13*
X62750Y37250D02*
Y34000D01*
X64750D02*
Y32750D01*
X67750Y29750D02*
Y26750D01*
X64750Y32750D02*
Y31500D01*
X67750Y26750D02*
Y28000D01*
X68750Y26750D02*
Y24500D01*
Y29750D02*
Y28250D01*
X69500Y22500D02*
X70750D01*
X67750Y28000D02*
Y8000D01*
X67250Y7500D01*
X56750D01*
X35000Y22750D02*
Y29500D01*
X68750Y28250D02*
X69000Y28000D01*
X69750D01*
Y29750D02*
X70000D01*
X70750Y22500D02*
X71000Y22750D01*
X69750Y29750D02*
Y30000D01*
X71000Y29750D02*
Y29500D01*
Y29750D02*
X70750D01*
X69750Y34000D02*
Y30000D01*
X58500Y24500D02*
X64750D01*
X67500Y35500D02*
Y31750D01*
X68750Y31500D02*
Y31250D01*
X51250Y11500D02*
X51000Y11250D01*
X49000Y19250D02*
X49500Y18750D01*
X67750Y31500D02*
X67500Y31750D01*
X70000Y18750D02*
Y17500D01*
Y16250D01*
X66000Y18750D02*
Y19000D01*
Y22500D02*
Y28500D01*
Y18750D02*
X65750D01*
X66000Y28500D02*
X65500Y29000D01*
X66000Y19000D02*
X65750Y18750D01*
X65500Y29000D02*
X58500D01*
X66000Y22500D02*
Y19000D01*
X63750Y18750D02*
X65750D01*
X66000Y15000D02*
Y16250D01*
Y15000D02*
Y12250D01*
X63500Y10750D02*
Y9000D01*
Y15250D01*
X63750Y15500D01*
X64750D01*
X57750Y13750D02*
Y15500D01*
X59750D02*
Y18500D01*
X49500Y19250D02*
X49000D01*
X61750Y18750D02*
X60000D01*
X51500Y19250D02*
X51250D01*
X60000Y18750D02*
X59750Y18500D01*
X51500Y19250D02*
Y19000D01*
X48000Y18250D02*
X46250D01*
X44750Y1000D02*
Y17750D01*
X45250Y18250D01*
X47500Y6750D02*
Y16750D01*
X45250Y18250D02*
X46250D01*
X56500Y19000D02*
Y16500D01*
X54500Y19000D02*
X56500D01*
Y16500D02*
Y11500D01*
X49500Y19250D02*
Y18750D01*
X51250Y11500D02*
X51000Y11750D01*
X49500Y16000D02*
X51000Y14500D01*
Y11500D01*
X52500D02*
X51000D01*
Y9000D01*
X48000Y25250D02*
Y27750D01*
X48500Y28250D01*
X50000D01*
X20250Y1000D02*
Y7000D01*
X20750Y7500D01*
X15250Y11500D02*
X15000Y11250D01*
X49500Y1000D02*
X54250D01*
X26750Y37250D02*
Y34000D01*
X28750D02*
Y32750D01*
X32750Y31500D02*
Y31250D01*
X31750Y29750D02*
Y26750D01*
X28750Y32750D02*
Y31500D01*
X31750Y26750D02*
Y28000D01*
X32750Y26750D02*
Y24500D01*
X33750Y29750D02*
Y30000D01*
Y29750D02*
X34000D01*
X32750D02*
Y28250D01*
X33500Y22500D02*
X34750D01*
X31750Y28000D02*
Y8000D01*
X31250Y7500D01*
X20750D01*
X34750Y29750D02*
X35000Y29500D01*
X32750Y28250D02*
X33000Y28000D01*
X35000Y29750D02*
X34750D01*
X33000Y28000D02*
X33750D01*
X34750Y22500D02*
X35000Y22750D01*
Y29750D02*
Y29500D01*
X34000Y29750D02*
X33750Y30000D01*
X34750Y29750D02*
X34000D01*
X33750Y34000D02*
Y30000D01*
X22500Y24500D02*
X28750D01*
X31500Y35500D02*
Y31750D01*
X32500Y31500D02*
X32750Y31250D01*
X31500Y31750D02*
X31750Y31500D01*
X32500D01*
X34000Y18750D02*
Y17500D01*
Y16250D01*
X30000Y18750D02*
Y19250D01*
Y22500D02*
Y28500D01*
Y18750D02*
X29500D01*
X30000Y28500D02*
X29500Y29000D01*
X30000Y19250D02*
X29500Y18750D01*
Y29000D02*
X22500D01*
X30000Y22500D02*
Y19250D01*
X27750Y18750D02*
X29500D01*
X30000Y15000D02*
Y16250D01*
Y15000D02*
Y12250D01*
X27500Y10750D02*
Y9000D01*
Y15250D01*
X27750Y15500D01*
X28750D01*
X21750Y13750D02*
Y15500D01*
X25750Y18750D02*
X24250D01*
X13500Y19250D02*
X13000D01*
X24250Y18750D02*
X23750Y18250D01*
X15500Y19250D02*
X14500D01*
X15500D02*
Y16750D01*
X12000Y18250D02*
X10250D01*
X8750Y1000D02*
Y18000D01*
X9000Y18250D01*
X11500Y6750D02*
Y16750D01*
X9000Y18250D02*
X10250D01*
X20500Y19000D02*
Y16500D01*
X18500Y19000D02*
X20500D01*
Y16500D02*
Y11500D01*
X13500Y19250D02*
Y18750D01*
X15250Y11500D02*
X15000Y11750D01*
X13500Y16000D02*
X15000Y14500D01*
Y11500D01*
X16500D02*
X15000D01*
Y9250D01*
X12000Y25250D02*
Y27750D01*
X12500Y28250D01*
X14000D01*
X71000Y22750D02*
Y29500D01*
X68750Y31500D02*
X68500D01*
X68750Y29750D02*
Y31250D01*
X67750Y31500D02*
X68500D01*
X68750Y31250D02*
X68500Y31500D01*
X51250Y19250D02*
X51500Y19000D01*
X70000Y29750D02*
X69750Y30000D01*
X50500Y19250D02*
X51250D01*
X51500Y16750D02*
Y19000D01*
X49500Y16000D02*
Y18750D01*
X48000Y19250D02*
X49000D01*
X70750Y29750D02*
X71000Y29500D01*
X32750Y31500D02*
X32500D01*
X32750Y29750D02*
Y31250D01*
X70000Y29750D02*
X70750D01*
X15250Y19250D02*
X15500Y19000D01*
X13000Y19250D02*
X13500Y18750D01*
X12000Y19250D02*
X13000D01*
X13500Y16000D02*
Y18750D01*
Y1000D02*
X18250D01*
X56250D02*
Y7000D01*
X56750Y7500D01*
X60750Y15500D02*
X62000D01*
X63250Y16750D01*
Y18250D01*
X63750Y18750D01*
X24750Y15500D02*
X26000D01*
X27250Y16750D01*
Y18250D01*
X27750Y18750D01*
X23750Y15500D02*
Y18250D01*
D15*
X48000Y20250D03*
X64750Y32750D03*
X68750Y31500D03*
X64750D03*
X66000Y16250D03*
X70000D03*
X66000Y15000D03*
X70000D03*
Y17500D03*
X63500Y10750D03*
X56500Y11500D03*
X52500D03*
X51500Y16750D03*
X47500D03*
X46250Y18250D03*
Y14250D03*
X70000Y18750D03*
X66000D03*
X64750Y15500D03*
X69750Y34000D03*
X68750Y24500D03*
X64750D03*
Y26250D03*
Y34000D03*
X62750D03*
X67500Y35500D03*
X67750Y28000D03*
X69750D03*
X63500Y9000D03*
X61500D03*
X51000Y11500D03*
X54500Y19000D03*
Y21000D03*
X57750Y15500D03*
X59750D03*
X64000Y22500D03*
X66000D03*
X71000Y29750D03*
X53250Y32000D03*
X56500Y16500D03*
X52500D03*
X36500Y13250D03*
X60750Y15500D03*
X48000Y19250D03*
Y18250D03*
X67750Y29750D03*
X68750D03*
X69750D03*
X66750Y26750D03*
X67750D03*
X68750D03*
X36500Y8250D03*
X51500Y22250D03*
X43500Y13250D03*
Y8500D03*
X67750Y4500D03*
X70250Y10250D03*
X52000Y25250D03*
X48000D03*
X12000Y20250D03*
Y19250D03*
Y18250D03*
X28750Y32750D03*
X32750Y31500D03*
X28750D03*
X30000Y16250D03*
X34000D03*
X30000Y15000D03*
X34000D03*
Y17500D03*
X27500Y10750D03*
X20500Y11500D03*
X16500D03*
X15500Y16750D03*
X11500D03*
X10250Y18250D03*
Y14250D03*
X34000Y18750D03*
X30000D03*
X28750Y15500D03*
X24750D03*
X33750Y34000D03*
X32750Y24500D03*
X28750D03*
Y26250D03*
Y34000D03*
X26750D03*
X31500Y35500D03*
X31750Y28000D03*
X33750D03*
X27500Y9000D03*
X25500D03*
X15000Y11500D03*
X18500Y19000D03*
Y21000D03*
X21750Y15500D03*
X23750D03*
X28000Y22500D03*
X30000D03*
X35000Y29750D03*
X17250Y32000D03*
X20500Y16500D03*
X16500D03*
X31750Y29750D03*
X32750D03*
X33750D03*
X30750Y26750D03*
X31750D03*
X32750D03*
X15500Y22250D03*
X7000Y13250D03*
Y8250D03*
X31750Y4500D03*
X34250Y10250D03*
X16000Y25250D03*
X12000D03*
D16*
X47500Y1000D02*
Y2000D01*
X11500Y1000D02*
Y2000D01*
D17*
X50500Y19250D03*
X51500D03*
X56250Y1000D03*
X54250D03*
X20250D03*
X49500D03*
X14500Y19250D03*
X15500D03*
X47500Y2000D03*
Y1000D03*
X18250D03*
X13500D03*
X11500D03*
Y2000D03*
D19*
X58500Y19000D03*
X63750Y18750D03*
X22500Y19000D03*
X27750Y18750D03*
D21*
X40250Y5250D03*
X61250D03*
X57750Y13750D03*
X4250Y5250D03*
X25250D03*
X21750Y13750D03*
D24*
X58500Y36500D02*
Y29000D01*
X40250Y1000D02*
Y2500D01*
X58500Y19000D02*
Y20500D01*
X46250Y14250D02*
Y5750D01*
X58500Y24500D02*
Y21500D01*
X46250Y5750D02*
X46750Y5250D01*
X48500D01*
X54500Y21000D02*
X58000D01*
X58500Y20500D01*
Y21000D02*
X58000D01*
X58500D02*
Y20500D01*
Y21000D02*
Y21500D01*
X58000Y21000D02*
X58500Y21500D01*
X49250Y2750D02*
X49750D01*
X51750D02*
Y5250D01*
X52250D02*
Y2750D01*
X60500Y3250D02*
X58000D01*
X40250Y3750D02*
Y3250D01*
X41000D02*
X40250D01*
X60500D02*
X61250Y2500D01*
Y3250D02*
X60500D01*
X51750Y5250D02*
X51250D01*
X60500Y3250D02*
X61250Y4000D01*
X40250Y3250D02*
Y2500D01*
X43250Y3250D02*
X41000D01*
X40250Y2500D01*
X41000Y3250D02*
X40250Y3750D01*
Y5250D01*
X52250Y2750D02*
X51250D01*
X52250Y5250D02*
X50750D01*
X51250D02*
Y2750D01*
X49250D02*
Y4250D01*
X51250Y2750D02*
X50750D01*
X50250D01*
X50750Y5250D02*
Y2750D01*
X49250Y5250D02*
X50750D01*
X49250D02*
X50250D01*
Y2750D01*
X49750D01*
Y5250D01*
X48500D02*
X49250Y4250D01*
Y5250D02*
X48500D01*
X49250D02*
Y4250D01*
X61250Y3250D02*
Y4000D01*
X4250D02*
Y3250D01*
Y2500D01*
X5000Y3250D02*
X4250D01*
X58000D02*
X61250D01*
X5000D02*
X4250Y2500D01*
X61250Y5250D02*
Y4000D01*
Y2500D01*
X22500Y36500D02*
Y29000D01*
X25250Y1000D02*
Y3250D01*
X4250Y1000D02*
Y2500D01*
X22500Y19000D02*
Y20500D01*
X10250Y14250D02*
Y5750D01*
X22500Y24500D02*
Y21500D01*
X10250Y5750D02*
X10750Y5250D01*
X12500D01*
X18500Y21000D02*
X22000D01*
X22500Y20500D01*
Y21000D02*
X22000D01*
X22500D02*
Y20500D01*
Y21000D02*
Y21500D01*
X22000Y21000D02*
X22500Y21500D01*
X13250Y2750D02*
X13750D01*
X15750D02*
Y5250D01*
X16250D02*
Y2750D01*
X25250Y5250D02*
Y3250D01*
X22000D02*
X24500D01*
X25000Y2750D01*
X25250Y3250D02*
X24500D01*
X15750Y5250D02*
X15250D01*
X24500Y3250D02*
X25000Y3750D01*
X7250Y3250D02*
X5000D01*
X4250Y4000D01*
Y5250D01*
X16250Y2750D02*
X15250D01*
X16250Y5250D02*
X14750D01*
X15250D02*
Y2750D01*
X13250D02*
Y4250D01*
X15250Y2750D02*
X14750D01*
X14250D01*
X14750Y5250D02*
Y2750D01*
X13250Y5250D02*
X14750D01*
X13250D02*
X14250D01*
Y2750D01*
X13750D01*
Y5250D01*
X12500D02*
X13250Y4250D01*
Y5250D02*
X12500D01*
X13250D02*
Y4250D01*
X61250Y3250D02*
Y2500D01*
Y1000D02*
Y2500D01*
D26*
X42500Y1000D03*
X61250D03*
X6500D03*
X25250D03*
D27*
X22500Y29000D03*
X58500D03*
D28*
X7250Y3250D03*
X15500D03*
X51500D03*
X43250D03*
D33*
X49500Y19250D03*
X62750Y37250D03*
X51000Y9000D03*
X50000Y28250D03*
X13500Y19250D03*
X26750Y37250D03*
X47500Y6750D03*
X15000Y9250D03*
X14000Y28250D03*
X11500Y6750D03*
D34*
X69500Y22500D03*
X56500Y19000D03*
X66000Y12250D03*
X61750Y18750D03*
X33500Y22500D03*
X20500Y19000D03*
X30000Y12250D03*
X25750Y18750D03*
D38*
X58500Y36500D03*
X52750D03*
X22500D03*
X16750D03*
D39*
X45500Y33000D03*
X42750Y22250D03*
X58500Y24500D03*
X9500Y33000D03*
X7250Y22500D03*
X22500Y24500D03*
D40*
X13750Y3250D03*
X22000D03*
X58000D03*
X49750D03*
D30*
X69190Y1620D02*
Y2810D01*
X70380D01*
X70620D02*
X71810D01*
Y1620D01*
Y1380D02*
Y190D01*
X70620D01*
X70380D02*
X69190D01*
Y1380D01*
Y37120D02*
Y38310D01*
X70380D01*
X70620D02*
X71810D01*
Y37120D01*
Y36880D02*
Y35690D01*
X70620D01*
X70380D02*
X69190D01*
Y36880D01*
D42*
X37500Y1500D03*
D30*
X36190Y37120D02*
Y38310D01*
X37380D01*
X37620D02*
X38810D01*
Y37120D01*
Y36880D02*
Y35690D01*
X37620D01*
X37380D02*
X36190D01*
Y36880D01*
X33190Y1620D02*
Y2810D01*
X34380D01*
X34620D02*
X35810D01*
Y1620D01*
Y1380D02*
Y190D01*
X34620D01*
X34380D02*
X33190D01*
Y1380D01*
Y37120D02*
Y38310D01*
X34380D01*
X34620D02*
X35810D01*
Y37120D01*
Y36880D02*
Y35690D01*
X34620D01*
X34380D02*
X33190D01*
Y36880D01*
D42*
X1500Y1500D03*
D30*
X190Y37120D02*
Y38310D01*
X1380D01*
X1620D02*
X2810D01*
Y37120D01*
Y36880D02*
Y35690D01*
X1620D01*
X1380D02*
X190D01*
Y36880D01*
%LPD*%
D10*
X62750Y37250D02*
Y34000D01*
X64750D02*
Y32750D01*
X67750Y29750D02*
Y26750D01*
X64750Y32750D02*
Y31500D01*
X67750Y26750D02*
Y28000D01*
X68750Y26750D02*
Y24500D01*
Y29750D02*
Y28250D01*
X69500Y22500D02*
X70750D01*
X67750Y28000D02*
Y8000D01*
X67250Y7500D01*
X56750D01*
X35000Y22750D02*
Y29500D01*
X68750Y28250D02*
X69000Y28000D01*
X69750D01*
Y29750D02*
X70000D01*
X70750Y22500D02*
X71000Y22750D01*
X69750Y29750D02*
Y30000D01*
X71000Y29750D02*
Y29500D01*
Y29750D02*
X70750D01*
X69750Y34000D02*
Y30000D01*
X58500Y24500D02*
X64750D01*
X67500Y35500D02*
Y31750D01*
X68750Y31500D02*
Y31250D01*
X51250Y11500D02*
X51000Y11250D01*
X49000Y19250D02*
X49500Y18750D01*
X67750Y31500D02*
X67500Y31750D01*
X70000Y18750D02*
Y17500D01*
Y16250D01*
X66000Y18750D02*
Y19000D01*
Y22500D02*
Y28500D01*
Y18750D02*
X65750D01*
X66000Y28500D02*
X65500Y29000D01*
X66000Y19000D02*
X65750Y18750D01*
X65500Y29000D02*
X58500D01*
X66000Y22500D02*
Y19000D01*
X63750Y18750D02*
X65750D01*
X66000Y15000D02*
Y16250D01*
Y15000D02*
Y12250D01*
X63500Y10750D02*
Y9000D01*
Y15250D01*
X63750Y15500D01*
X64750D01*
X57750Y13750D02*
Y15500D01*
X59750D02*
Y18500D01*
X49500Y19250D02*
X49000D01*
X61750Y18750D02*
X60000D01*
X51500Y19250D02*
X51250D01*
X60000Y18750D02*
X59750Y18500D01*
X51500Y19250D02*
Y19000D01*
X48000Y18250D02*
X46250D01*
X44750Y1000D02*
Y17750D01*
X45250Y18250D01*
X47500Y6750D02*
Y16750D01*
X45250Y18250D02*
X46250D01*
X56500Y19000D02*
Y16500D01*
X54500Y19000D02*
X56500D01*
Y16500D02*
Y11500D01*
X49500Y19250D02*
Y18750D01*
X51250Y11500D02*
X51000Y11750D01*
X49500Y16000D02*
X51000Y14500D01*
Y11500D01*
X52500D02*
X51000D01*
Y9000D01*
X48000Y25250D02*
Y27750D01*
X48500Y28250D01*
X50000D01*
X20250Y1000D02*
Y7000D01*
X20750Y7500D01*
X15250Y11500D02*
X15000Y11250D01*
X49500Y1000D02*
X54250D01*
X33500Y20250D02*
X33750D01*
X34500D02*
Y20000D01*
X33750Y20250D02*
X34500Y21000D01*
Y20000D02*
X32750Y19750D01*
X34500Y20250D02*
X33750D01*
X32750Y19750D02*
X33500Y20500D01*
X69500D02*
X68500Y19500D01*
X69500Y20500D02*
X70000Y19750D01*
X69500Y20500D02*
X70250Y19750D01*
X69500Y20500D02*
X70500Y20000D01*
X69500Y20500D02*
X70750Y20250D01*
X69500Y20500D02*
X70750D01*
X26750Y37250D02*
Y34000D01*
X28750D02*
Y32750D01*
X32750Y31500D02*
Y31250D01*
X31750Y29750D02*
Y26750D01*
X28750Y32750D02*
Y31500D01*
X31750Y26750D02*
Y28000D01*
X32750Y26750D02*
Y24500D01*
X33750Y29750D02*
Y30000D01*
Y29750D02*
X34000D01*
X32750D02*
Y28250D01*
X33500Y22500D02*
X34750D01*
X31750Y28000D02*
Y8000D01*
X31250Y7500D01*
X20750D01*
X34750Y29750D02*
X35000Y29500D01*
X32750Y28250D02*
X33000Y28000D01*
X35000Y29750D02*
X34750D01*
X33000Y28000D02*
X33750D01*
X34750Y22500D02*
X35000Y22750D01*
Y29750D02*
Y29500D01*
X34000Y29750D02*
X33750Y30000D01*
X34750Y29750D02*
X34000D01*
X33750Y34000D02*
Y30000D01*
X22500Y24500D02*
X28750D01*
X31500Y35500D02*
Y31750D01*
X32500Y31500D02*
X32750Y31250D01*
X31500Y31750D02*
X31750Y31500D01*
X32500D01*
X34000Y18750D02*
Y17500D01*
Y16250D01*
X30000Y18750D02*
Y19250D01*
Y22500D02*
Y28500D01*
Y18750D02*
X29500D01*
X30000Y28500D02*
X29500Y29000D01*
X30000Y19250D02*
X29500Y18750D01*
Y29000D02*
X22500D01*
X30000Y22500D02*
Y19250D01*
X27750Y18750D02*
X29500D01*
X30000Y15000D02*
Y16250D01*
Y15000D02*
Y12250D01*
X27500Y10750D02*
Y9000D01*
Y15250D01*
X27750Y15500D01*
X28750D01*
X21750Y13750D02*
Y15500D01*
X25750Y18750D02*
X24250D01*
X13500Y19250D02*
X13000D01*
X24250Y18750D02*
X23750Y18250D01*
X15500Y19250D02*
X14500D01*
X15500D02*
Y16750D01*
X69500Y20500D02*
X70750Y20750D01*
X12000Y18250D02*
X10250D01*
X8750Y1000D02*
Y18000D01*
X9000Y18250D01*
X11500Y6750D02*
Y16750D01*
X9000Y18250D02*
X10250D01*
X20500Y19000D02*
Y16500D01*
X18500Y19000D02*
X20500D01*
Y16500D02*
Y11500D01*
X13500Y19250D02*
Y18750D01*
X15250Y11500D02*
X15000Y11750D01*
X13500Y16000D02*
X15000Y14500D01*
Y11500D01*
X16500D02*
X15000D01*
X69500Y20500D02*
X70750Y21000D01*
X15000Y11500D02*
Y9250D01*
X12000Y25250D02*
Y27750D01*
X12500Y28250D01*
X14000D01*
X71000Y22750D02*
Y29500D01*
X68750Y31500D02*
X68500D01*
X68750Y29750D02*
Y31250D01*
X67750Y31500D02*
X68500D01*
X68750Y31250D02*
X68500Y31500D01*
X51250Y19250D02*
X51500Y19000D01*
X70000Y29750D02*
X69750Y30000D01*
X50500Y19250D02*
X51250D01*
X51500Y16750D02*
Y19000D01*
X49500Y16000D02*
Y18750D01*
X48000Y19250D02*
X49000D01*
X70750Y29750D02*
X71000Y29500D01*
X32750Y31500D02*
X32500D01*
X32750Y29750D02*
Y31250D01*
X70000Y29750D02*
X70750D01*
X15250Y19250D02*
X15500Y19000D01*
X13000Y19250D02*
X13500Y18750D01*
X12000Y19250D02*
X13000D01*
X13500Y16000D02*
Y18750D01*
X69500Y20500D02*
Y19250D01*
X33500Y20500D02*
Y19500D01*
X13500Y1000D02*
X18250D01*
X69500Y20500D02*
X70750Y21250D01*
X69500Y20500D02*
X70750Y21500D01*
X56250Y1000D02*
Y7000D01*
X56750Y7500D01*
X33500Y20500D02*
X34500Y21500D01*
X60750Y15500D02*
X62000D01*
X63250Y16750D01*
Y18250D01*
X63750Y18750D01*
X24750Y15500D02*
X26000D01*
X27250Y16750D01*
Y18250D01*
X27750Y18750D01*
X23750Y15500D02*
Y18250D01*
D11*
X48000Y20250D03*
X64750Y32750D03*
X68750D03*
Y31500D03*
X64750D03*
X66000Y16250D03*
X70000D03*
X66000Y15000D03*
X70000D03*
Y17500D03*
X66000D03*
X63500Y10750D03*
X59500D03*
X56500Y11500D03*
X52500D03*
X51500Y16750D03*
X47500D03*
X46250Y18250D03*
Y14250D03*
X70000Y18750D03*
X66000D03*
X64750Y15500D03*
X69750Y34000D03*
X65750D03*
X68750Y24500D03*
X64750D03*
Y30250D03*
Y26250D03*
Y34000D03*
X62750D03*
X65500Y35500D03*
X67500D03*
X67750Y28000D03*
X69750D03*
X63500Y9000D03*
X61500D03*
X51000Y11500D03*
X49000D03*
X54500Y19000D03*
Y21000D03*
X57750Y15500D03*
X59750D03*
X64000Y22500D03*
X66000D03*
X71000Y29750D03*
Y31750D03*
X53250Y32000D03*
X51250D03*
X56500Y16500D03*
X52500D03*
X36500Y13250D03*
Y15250D03*
X60750Y15500D03*
X48000Y19250D03*
Y18250D03*
X67750Y29750D03*
X68750D03*
X69750D03*
X66750Y26750D03*
X67750D03*
X68750D03*
X36500Y8250D03*
X51500Y22250D03*
X49500D03*
X43500Y13250D03*
Y15250D03*
Y8500D03*
Y10500D03*
X67750Y4500D03*
X65750D03*
X70250Y10250D03*
Y12250D03*
X36500Y10250D03*
X52000Y25250D03*
X48000D03*
X12000Y20250D03*
Y19250D03*
Y18250D03*
X28750Y32750D03*
X32750D03*
Y31500D03*
X28750D03*
X30000Y16250D03*
X34000D03*
X30000Y15000D03*
X34000D03*
Y17500D03*
X30000D03*
X27500Y10750D03*
X23500D03*
X20500Y11500D03*
X16500D03*
X15500Y16750D03*
X11500D03*
X10250Y18250D03*
Y14250D03*
X34000Y18750D03*
X30000D03*
X28750Y15500D03*
X24750D03*
X33750Y34000D03*
X29750D03*
X32750Y24500D03*
X28750D03*
Y30250D03*
Y26250D03*
Y34000D03*
X26750D03*
X29500Y35500D03*
X31500D03*
X31750Y28000D03*
X33750D03*
X27500Y9000D03*
X25500D03*
X15000Y11500D03*
X13000D03*
X18500Y19000D03*
Y21000D03*
X21750Y15500D03*
X23750D03*
X28000Y22500D03*
X30000D03*
X35000Y29750D03*
Y31750D03*
X17250Y32000D03*
X15250D03*
X20500Y16500D03*
X16500D03*
X31750Y29750D03*
X32750D03*
X33750D03*
X30750Y26750D03*
X31750D03*
X32750D03*
X15500Y22250D03*
X13500D03*
X7000Y13250D03*
Y15250D03*
Y8250D03*
Y10250D03*
X31750Y4500D03*
X29750D03*
X34250Y10250D03*
Y12250D03*
X16000Y25250D03*
X12000D03*
D12*
X47500Y1000D02*
Y2000D01*
X11500Y1000D02*
Y2000D01*
D14*
X50500Y19250D03*
X51500D03*
X56250Y1000D03*
X61750Y37250D03*
X52000Y9000D03*
X54250Y1000D03*
X20250D03*
X49500D03*
X51000Y28250D03*
X14500Y19250D03*
X15500D03*
X25750Y37250D03*
X47500Y2000D03*
Y1000D03*
X18250D03*
X13500D03*
X16000Y9250D03*
X15000Y28250D03*
X11500Y1000D03*
Y2000D03*
D15*
X69500Y20500D03*
X58500Y19000D03*
X66000Y10250D03*
X63750Y18750D03*
X33500Y20500D03*
X22500Y19000D03*
X30000Y10250D03*
X27750Y18750D03*
D18*
X49250Y5250D03*
X40250D03*
X61250D03*
X52250D03*
X48750Y13750D03*
X57750D03*
X13250Y5250D03*
X4250D03*
X25250D03*
X16250D03*
X12750Y13750D03*
X21750D03*
D20*
X58500Y36500D02*
Y29000D01*
X40250Y1000D02*
Y2500D01*
X58500Y19000D02*
Y20500D01*
X46250Y14250D02*
Y5750D01*
X58500Y24500D02*
Y21500D01*
X46250Y5750D02*
X46750Y5250D01*
X48500D01*
X54500Y21000D02*
X58000D01*
X58500Y20500D01*
Y21000D02*
X58000D01*
X58500D02*
Y20500D01*
Y21000D02*
Y21500D01*
X58000Y21000D02*
X58500Y21500D01*
X49250Y2750D02*
X49750D01*
X51750D02*
Y5250D01*
X52250D02*
Y2750D01*
X60500Y3250D02*
X58000D01*
X40250Y3750D02*
Y3250D01*
X41000D02*
X40250D01*
X60500D02*
X61250Y2500D01*
Y3250D02*
X60500D01*
X51750Y5250D02*
X51250D01*
X60500Y3250D02*
X61250Y4000D01*
X40250Y3250D02*
Y2500D01*
X43250Y3250D02*
X41000D01*
X40250Y2500D01*
X41000Y3250D02*
X40250Y3750D01*
Y5250D01*
X52250Y2750D02*
X51250D01*
X52250Y5250D02*
X50750D01*
X51250D02*
Y2750D01*
X49250D02*
Y4250D01*
X51250Y2750D02*
X50750D01*
X50250D01*
X50750Y5250D02*
Y2750D01*
X49250Y5250D02*
X50750D01*
X49250D02*
X50250D01*
Y2750D01*
X49750D01*
Y5250D01*
X48500D02*
X49250Y4250D01*
Y5250D02*
X48500D01*
X49250D02*
Y4250D01*
X61250Y3250D02*
Y4000D01*
X4250D02*
Y3250D01*
Y2500D01*
X5000Y3250D02*
X4250D01*
X58000D02*
X61250D01*
X5000D02*
X4250Y2500D01*
X61250Y5250D02*
Y4000D01*
Y2500D01*
X22500Y36500D02*
Y29000D01*
X25250Y1000D02*
Y3250D01*
X4250Y1000D02*
Y2500D01*
X22500Y19000D02*
Y20500D01*
X10250Y14250D02*
Y5750D01*
X22500Y24500D02*
Y21500D01*
X10250Y5750D02*
X10750Y5250D01*
X12500D01*
X18500Y21000D02*
X22000D01*
X22500Y20500D01*
Y21000D02*
X22000D01*
X22500D02*
Y20500D01*
Y21000D02*
Y21500D01*
X22000Y21000D02*
X22500Y21500D01*
X13250Y2750D02*
X13750D01*
X15750D02*
Y5250D01*
X16250D02*
Y2750D01*
X25250Y5250D02*
Y3250D01*
X22000D02*
X24500D01*
X25000Y2750D01*
X25250Y3250D02*
X24500D01*
X15750Y5250D02*
X15250D01*
X24500Y3250D02*
X25000Y3750D01*
X7250Y3250D02*
X5000D01*
X4250Y4000D01*
Y5250D01*
X16250Y2750D02*
X15250D01*
X16250Y5250D02*
X14750D01*
X15250D02*
Y2750D01*
X13250D02*
Y4250D01*
X15250Y2750D02*
X14750D01*
X14250D01*
X14750Y5250D02*
Y2750D01*
X13250Y5250D02*
X14750D01*
X13250D02*
X14250D01*
Y2750D01*
X13750D01*
Y5250D01*
X12500D02*
X13250Y4250D01*
Y5250D02*
X12500D01*
X13250D02*
Y4250D01*
X61250Y3250D02*
Y2500D01*
Y1000D02*
Y2500D01*
D22*
X56750Y36500D03*
X42500Y1000D03*
X40250D03*
X61250D03*
X59000D03*
X51000Y36500D03*
X6500Y1000D03*
X4250D03*
X20750Y36500D03*
X15000D03*
X25250Y1000D03*
X23000D03*
D23*
X41000Y33000D03*
X38250Y22250D03*
X5000Y33000D03*
X2750Y22500D03*
X22500Y29000D03*
X58500D03*
D25*
X7250Y3250D03*
X15500D03*
X51500D03*
X43250D03*
D31*
X49500Y19250D03*
X62750Y37250D03*
X51000Y9000D03*
X50000Y28250D03*
X13500Y19250D03*
X26750Y37250D03*
X47500Y6750D03*
X15000Y9250D03*
X14000Y28250D03*
X11500Y6750D03*
D32*
X69500Y22500D03*
X56500Y19000D03*
X66000Y12250D03*
X61750Y18750D03*
X33500Y22500D03*
X20500Y19000D03*
X30000Y12250D03*
X25750Y18750D03*
D35*
X44750Y1000D03*
X58500Y36500D03*
X52750D03*
X63500Y1000D03*
X8750D03*
X22500Y36500D03*
X16750D03*
X27500Y1000D03*
D36*
X45500Y33000D03*
X42750Y22250D03*
X58500Y24500D03*
X9500Y33000D03*
X7250Y22500D03*
X22500Y24500D03*
D37*
X13750Y3250D03*
X22000D03*
X58000D03*
X49750D03*
D41*
X70500Y1500D03*
Y37000D03*
X37500Y1500D03*
Y37000D03*
X34500Y1500D03*
Y37000D03*
X1500Y1500D03*
Y37000D03*
M02*
