G04*
G04 Format:               Gerber RS-274X*
G04 Layer:                TopSolderMask*
G04 This File Name:       5 T-Amp - Stereo.gts*
G04 Source File Name:     5 T-Amp - Stereo.pcb*
G04 Unique ID:            ade3dfdf-7e2b-446b-93ed-1f2b3b6aaaa2*
G04 Generated Date:       Sunday, 16 June 2024 12:46:47*
G04*
G04 Created Using:        Robot Room Copper Connection v2.7.5443*
G04 Software Contact:     http://www.robotroom.com/CopperConnection/Support.aspx*
G04 License Number:       1685*
G04 Student Edition:      true*
G04*
G04 Zero Suppression:     Leading*
G04 Number Precision:     2.4*
G04*
G04 Polarity:             Negative. Dark is solderable. Clear space is coating.*
G04*
%FSLAX24Y24*%
%MOIN*%
%LNTopSolderMask*%
%ADD10C,.066*%
%ADD11C,.085*%
%ADD12C,.09*%
%ADD13C,.11*%
%ADD14C,.14*%
%ADD15C,.15*%
%ADD16C,.16*%
%ADD17R,.006X.006*%
%ADD18R,.085X.085*%
%ADD19R,.09X.09*%
%ADD20R,.14X.14*%
%ADD21R,.15X.15*%
%ADD22R,.16X.16*%
%ADD23R,.26X.26*%
D10*
G01X18250Y48000D03*
X5750Y64750D03*
Y68750D03*
X7000D03*
Y64750D03*
X22250Y66000D03*
Y70000D03*
X23500Y66000D03*
Y70000D03*
X21000D03*
Y66000D03*
X27750Y63500D03*
Y59500D03*
X27000Y56500D03*
Y52500D03*
X21750Y51500D03*
Y47500D03*
X20250Y46250D03*
X24250D03*
X19750Y70000D03*
Y66000D03*
X23000Y64750D03*
Y60750D03*
X4500Y69750D03*
Y65750D03*
X14000Y68750D03*
Y64750D03*
X8250D03*
X12250D03*
X4500D03*
Y62750D03*
X3000Y65500D03*
Y67500D03*
X10500Y67750D03*
Y69750D03*
X29500Y63500D03*
Y61500D03*
X27000Y51000D03*
Y49000D03*
X19500Y54500D03*
X17500D03*
X23000Y57750D03*
Y59750D03*
X16000Y64000D03*
Y66000D03*
X8750Y71000D03*
X6750D03*
X6500Y53250D03*
Y51250D03*
X22000Y56500D03*
Y52500D03*
X25250Y36500D03*
X23250D03*
X19250Y48000D03*
X20250D03*
X8750Y67750D03*
Y68750D03*
Y69750D03*
X11750Y66750D03*
Y67750D03*
Y68750D03*
X30250Y36500D03*
X16250Y51500D03*
Y49500D03*
X25250Y43500D03*
X23250D03*
X30000D03*
X28000D03*
X34000Y67750D03*
Y65750D03*
X28250Y70250D03*
X26250D03*
X28250Y36500D03*
X13250Y52000D03*
Y48000D03*
X18250Y12000D03*
X19250D03*
X20250D03*
X5750Y28750D03*
Y32750D03*
X7000D03*
Y28750D03*
X22250Y30000D03*
Y34000D03*
X23500Y30000D03*
Y34000D03*
X21000D03*
Y30000D03*
X27750Y27500D03*
Y23500D03*
X27000Y20500D03*
Y16500D03*
X21750Y15500D03*
Y11500D03*
X20250Y10250D03*
X24250D03*
X19750Y34000D03*
Y30000D03*
X23000Y28750D03*
Y24750D03*
X4500Y33750D03*
Y29750D03*
X14000Y32750D03*
Y28750D03*
X8250D03*
X12250D03*
X4500D03*
Y26750D03*
X3000Y29500D03*
Y31500D03*
X10500Y31750D03*
Y33750D03*
X29500Y27500D03*
Y25500D03*
X27000Y15000D03*
Y13000D03*
X19500Y18500D03*
X17500D03*
X23000Y21750D03*
Y23750D03*
X16000Y28000D03*
Y30000D03*
X8750Y35000D03*
X6750D03*
X6500Y17250D03*
Y15250D03*
X22000Y20500D03*
Y16500D03*
X8750Y31750D03*
Y32750D03*
Y33750D03*
X11750Y30750D03*
Y31750D03*
Y32750D03*
X16250Y15500D03*
Y13500D03*
X25250Y7000D03*
X23250D03*
X30250D03*
X28250D03*
X34000Y31750D03*
Y29750D03*
X28250Y34250D03*
X26250D03*
X13250Y16000D03*
Y12000D03*
D11*
X19250Y50500D03*
Y51500D03*
X37500Y56250D03*
X1250Y61750D03*
X29500Y52000D03*
X37500Y54250D03*
Y20250D03*
Y49500D03*
X10250Y51000D03*
X19250Y14500D03*
Y15500D03*
X1250Y25750D03*
X36500Y47500D03*
X37500D03*
Y18250D03*
Y13500D03*
X29250Y16000D03*
X10250Y15000D03*
X37500Y11500D03*
X36500D03*
D12*
X18000Y69500D03*
X19500Y58500D03*
X28250Y66000D03*
X19750Y63750D03*
X18000Y33500D03*
X19500Y22500D03*
X28250Y30000D03*
X19750Y27750D03*
D13*
X33250Y49250D03*
Y40250D03*
Y61250D03*
Y52250D03*
X24750Y48750D03*
Y57750D03*
X33250Y13250D03*
Y4250D03*
Y25250D03*
Y16250D03*
X24750Y12750D03*
Y21750D03*
D14*
X2000Y56750D03*
X37500Y42500D03*
Y40250D03*
Y61250D03*
Y59000D03*
X2000Y51000D03*
X37500Y6500D03*
Y4250D03*
X2000Y20750D03*
Y15000D03*
X37500Y25250D03*
Y23000D03*
D15*
X5500Y41000D03*
X16250Y38250D03*
X5500Y5000D03*
X16000Y2750D03*
X9500Y22500D03*
Y58500D03*
D16*
X35250Y7250D03*
Y15500D03*
Y51500D03*
Y43250D03*
D18*
X19250Y49500D03*
X1250Y62750D03*
X29500Y51000D03*
X10250Y50000D03*
X19250Y13500D03*
X1250Y26750D03*
X31750Y47500D03*
X29250Y15000D03*
X10250Y14000D03*
X31750Y11500D03*
D19*
X16000Y69500D03*
X19500Y56500D03*
X26250Y66000D03*
X19750Y61750D03*
X16000Y33500D03*
X19500Y20500D03*
X26250Y30000D03*
X19750Y25750D03*
D20*
X37500Y44750D03*
X2000Y58500D03*
Y52750D03*
X37500Y63500D03*
Y8750D03*
X2000Y22500D03*
Y16750D03*
X37500Y27500D03*
D21*
X5500Y45500D03*
X16250Y42750D03*
X14000Y58500D03*
X5500Y9500D03*
X16000Y7250D03*
X14000Y22500D03*
D22*
X35250Y13750D03*
Y22000D03*
Y58000D03*
Y49750D03*
D23*
X37000Y70500D03*
X1500D03*
X37000Y37500D03*
X1500D03*
X37000Y34500D03*
X1500D03*
X37000Y1500D03*
X1500D03*
M02*
