M48
;
; Format:               Excellon NC Drill Ascii
; This File Name:       5 T-Amp - Stereo.txt
; Source File Name:     5 T-Amp - Stereo.pcb
; Unique ID:            6ea80e16-d85f-478e-b04a-fb366c90c49d
; Generated Date:       Sunday, 16 June 2024 14:50:20
;
; Created Using:        Robot Room Copper Connection v2.7.5443
; Software Contact:     http://www.robotroom.com/CopperConnection/Support.aspx
; License Number:       1685
; Student Edition:      true
;
; Zero Suppression:     Trailing
; Number Precision:     2.4
;
FMAT,2
INCH,LZ
T01C.029
T02C.035
T03C.04
T04C.046
T05C.067
T06C.079
T07C.15
%
T01
X007Y00825
Y01025
Y01325
Y01525
X01025Y01425
X0115Y01675
X012Y01825
Y01925
Y02025
X0135Y02225
X0155
X016Y02525
X012
X01025Y01825
X0155Y01675
X0165Y0165
X0185Y019
Y021
X0205Y0165
X02175Y0155
X02375
X02475
X02875
X03Y015
Y01625
Y0175
Y01875
Y0225
X028
X02875Y0245
Y02625
X03075Y02675
X03175
X03275
X03175Y028
Y02975
X03275
X03375
X035
Y03175
X03275Y0315
Y03275
X03375Y034
X0315Y0355
X0295
X02975Y034
X02875
Y03275
Y0315
Y03025
X02675Y034
X03375Y028
X03275Y0245
X034Y01875
Y0175
Y01625
Y015
X0365Y01525
Y01325
X03425Y01225
Y01025
X0365
Y00825
X03175Y0045
X02975
X0275Y009
Y01075
X0255Y009
X0235Y01075
X0205Y0115
X0165
X015
X013
X01525Y032
X01725
X0435Y01525
Y01325
Y0105
Y0085
X049Y0115
X051
X0525
X0565
X0595Y01075
X0615Y009
X0635
Y01075
X06475Y0155
X066Y015
Y01625
Y0175
Y01875
Y0225
X064
X06475Y0245
Y02625
X06675Y02675
X06775
X06875
X06775Y028
Y02975
X06875
X06975
X071
Y03175
X06875Y0315
Y03275
X06975Y034
X0675Y0355
X0655
X06575Y034
X06475
Y03275
Y0315
Y03025
X06275Y034
X06975Y028
X06875Y0245
X07Y01875
Y0175
Y01625
Y015
X07025Y01225
Y01025
X06775Y0045
X06575
X06075Y0155
X05975
X05775
X0565Y0165
X0545Y019
Y021
X0515Y02225
X0495
X048Y02025
Y01925
Y01825
X0475Y01675
X04625Y01825
Y01425
X0515Y01675
X0525Y0165
X052Y02525
X048
X05125Y032
X05325
T02
X0205Y019
X0225
X02575Y01875
X02775
X0335Y0205
Y0225
X03Y01225
Y01025
X0565Y019
X0585
X06175Y01875
X06375
X0695Y0205
Y0225
X066Y01225
Y01025
T03
X0115Y001
Y002
X0135Y001
X01825
X02025
X016Y00925
X015
X0115Y00675
X0135Y01925
X0145
X0155
X015Y02825
X014
X02575Y03725
X02675
X05Y02825
X051
X0505Y01925
X0495
X0515
X052Y009
X051
X0475Y00675
Y002
Y001
X0495
X05425
X05625
X06175Y03725
X06275
T04
X00425Y00525
X01325
X01625
X02525
X02175Y01375
X01275
X04025Y00525
X04925
X05225
X06125
X05775Y01375
X04875
T05
X00275Y0225
X00725
X0095Y033
X005
X0225Y029
Y0245
X03825Y02225
X04275
X041Y033
X0455
X0585Y029
Y0245
T06
X00425Y001
X0065
X00875
X00725Y00325
X01375
X0155
X022
X023Y001
X02525
X0275
X04025
X0425
X04475
X04325Y00325
X04975
X0515
X058
X059Y001
X06125
X0635
X0585Y0365
X05675
X05275
X051
X0225
X02075
X01675
X015
T07
X0015Y0015
X0345
X0375
X0705
Y037
X0375
X0345
X0015
M30
