G04*
G04 Format:               Gerber RS-274X*
G04 Layer:                TopSilkscreen*
G04 This File Name:       5 T-Amp - Stereo.gto*
G04 Source File Name:     5 T-Amp - Stereo.pcb*
G04 Unique ID:            d75ead66-c978-456b-9cef-1a1cc5206c06*
G04 Generated Date:       Sunday, 16 June 2024 14:33:59*
G04*
G04 Created Using:        Robot Room Copper Connection v2.7.5443*
G04 Software Contact:     http://www.robotroom.com/CopperConnection/Support.aspx*
G04 License Number:       1685*
G04 Student Edition:      true*
G04*
G04 Zero Suppression:     Leading*
G04 Number Precision:     2.4*
G04*
%FSLAX24Y24*%
%MOIN*%
%LNTopSilkscreen*%
%ADD10C,.006*%
%ADD11C,.0062*%
%ADD12C,.0071*%
%ADD13C,.0079*%
%ADD14C,.0094*%
%ADD15C,.0109*%
%ADD16C,.0118*%
%ADD17C,.012*%
%ADD18C,.0126*%
%ADD19C,.0141*%
%ADD20C,.0212*%
%ADD21C,.03*%
%ADD22C,.056*%
%ADD23C,.075*%
%ADD24C,.08*%
%ADD25C,.1*%
%ADD26C,.13*%
%ADD27C,.14*%
%ADD28C,.15*%
%ADD29R,.006X.006*%
%ADD30R,.075X.075*%
%ADD31R,.08X.08*%
%ADD32R,.13X.13*%
%ADD33R,.14X.14*%
%ADD34R,.15X.15*%
%ADD35R,.25X.25*%
D10*
G01X44900Y2200D02*
X44709D01*
G74*
G02X44645Y2264I0J64D01*
G01Y2327D01*
G02X44709Y2391I64J0D01*
G01X44900D01*
X44709D02*
G02X44645Y2455I0J64D01*
G01Y2519D01*
G02X44709Y2582I64J0D01*
G01X44900D01*
Y2200D01*
X42350Y2519D02*
G02X42414Y2582I64J0D01*
G01X42541D01*
G02X42605Y2519I0J64D01*
G01Y2264D01*
G02X42541Y2200I64J0D01*
G01X42414D01*
G02X42350Y2264I0J64D01*
G01X40055Y2200D02*
X40310D01*
Y2582D01*
X40055D01*
X40310Y2391D02*
X40119D01*
X63650Y2200D02*
X63459D01*
G02X63395Y2264I0J64D01*
G01Y2327D01*
G02X63459Y2391I64J0D01*
G01X63650D01*
X63459D02*
G02X63395Y2455I0J64D01*
G01Y2519D01*
G02X63459Y2582I64J0D01*
G01X63650D01*
Y2200D01*
X61100Y2519D02*
G02X61164Y2582I64J0D01*
G01X61291D01*
G02X61355Y2519I0J64D01*
G01Y2264D01*
G02X61291Y2200I64J0D01*
G01X61164D01*
G02X61100Y2264I0J64D01*
G01X58805Y2200D02*
X59060D01*
Y2582D01*
X58805D01*
X59060Y2391D02*
X58869D01*
X8900Y2200D02*
X8709D01*
G02X8645Y2264I0J64D01*
G01Y2327D01*
G02X8709Y2391I64J0D01*
G01X8900D01*
X8709D02*
G02X8645Y2455I0J64D01*
G01Y2519D01*
G02X8709Y2582I64J0D01*
G01X8900D01*
Y2200D01*
X6350Y2519D02*
G02X6414Y2582I64J0D01*
G01X6541D01*
G02X6605Y2519I0J64D01*
G01Y2264D01*
G02X6541Y2200I64J0D01*
G01X6414D01*
G02X6350Y2264I0J64D01*
G01X4055Y2200D02*
X4310D01*
Y2582D01*
X4055D01*
X4310Y2391D02*
X4119D01*
X27650Y2200D02*
X27459D01*
G02X27395Y2264I0J64D01*
G01Y2327D01*
G02X27459Y2391I64J0D01*
G01X27650D01*
X27459D02*
G02X27395Y2455I0J64D01*
G01Y2519D01*
G02X27459Y2582I64J0D01*
G01X27650D01*
Y2200D01*
X25100Y2519D02*
G02X25164Y2582I64J0D01*
G01X25291D01*
G02X25355Y2519I0J64D01*
G01Y2264D01*
G02X25291Y2200I64J0D01*
G01X25164D01*
G02X25100Y2264I0J64D01*
G01X22805Y2200D02*
X23060D01*
Y2582D01*
X22805D01*
X23060Y2391D02*
X22869D01*
X49100Y21130D02*
Y20748D01*
Y21130D02*
X49291D01*
G02X49355Y21066I0J64D01*
G01Y21003D01*
G02X49291Y20939I64J0D01*
G01X49100D01*
X49164D02*
X49355Y20748D01*
X49546Y21066D02*
X49610Y21130D01*
Y20748D01*
X49546D02*
X49674D01*
X49865Y20875D02*
G02X49929Y20939I64J0D01*
G01X50056D01*
G02X50120Y20875I0J64D01*
G01Y20811D01*
G02X50056Y20748I64J0D01*
G01X49929D01*
G02X49865Y20811I0J64D01*
G01Y21066D01*
G02X49929Y21130I64J0D01*
G01X50056D01*
G02X50120Y21066I0J64D01*
G01X63755Y33681D02*
G02X63691Y33617I64J0D01*
G01X63564D01*
G02X63500Y33681I0J64D01*
G01Y33936D01*
G02X63564Y34000I64J0D01*
G01X63691D01*
G02X63755Y33936I0J64D01*
G01X63946D02*
X64010Y34000D01*
Y33617D01*
X63946D02*
X64074D01*
X66255Y35431D02*
G02X66191Y35368I64J0D01*
G01X66064D01*
G02X66000Y35431I0J64D01*
G01Y35686D01*
G02X66064Y35750I64J0D01*
G01X66191D01*
G02X66255Y35686I0J64D01*
G01X66446D02*
X66510Y35750D01*
Y35368D01*
X66446D02*
X66574D01*
X66765Y35431D02*
Y35686D01*
G02X66829Y35750I64J0D01*
G01X66956D01*
G02X67020Y35686I0J64D01*
G01Y35431D01*
G02X66956Y35368I64J0D01*
G01X66829D01*
G02X66765Y35431I0J64D01*
G01X67020Y35686D01*
X54431Y20245D02*
G02X54367Y20309I0J64D01*
G01Y20436D01*
G02X54431Y20500I64J0D01*
G01X54686D01*
G02X54750Y20436I0J64D01*
G01Y20309D01*
G02X54686Y20245I64J0D01*
G01Y20054D02*
X54750Y19990D01*
X54367D01*
Y20054D02*
Y19926D01*
X54686Y19671D02*
X54750Y19608D01*
X54367D01*
Y19671D02*
Y19544D01*
X64755Y22181D02*
G02X64691Y22117I64J0D01*
G01X64564D01*
G02X64500Y22181I0J64D01*
G01Y22436D01*
G02X64564Y22500I64J0D01*
G01X64691D01*
G02X64755Y22436I0J64D01*
G01X64946D02*
X65010Y22500D01*
Y22117D01*
X64946D02*
X65074D01*
X65520Y22500D02*
X65265D01*
Y22309D01*
X65456D01*
G02X65520Y22245I0J64D01*
G01Y22181D01*
G02X65456Y22117I64J0D01*
G01X65329D01*
G02X65265Y22181I0J64D01*
G01X53390Y9010D02*
Y8755D01*
Y8882D02*
X53008D01*
X53390Y8627D02*
X53008D01*
X53390D02*
Y8436D01*
G02X53326Y8373I64J0D01*
G01X53263D01*
G02X53199Y8436I0J64D01*
G01Y8627D01*
X53326Y8181D02*
X53390Y8118D01*
X53008D01*
Y8181D02*
Y8054D01*
X47750Y20921D02*
Y21176D01*
G02X47814Y21240I64J0D01*
G01X47941D01*
G02X48005Y21176I0J64D01*
G01Y20921D01*
G02X47941Y20858I64J0D01*
G01X47814D01*
G02X47750Y20921I0J64D01*
G01X47877Y20985D02*
X48005Y20858D01*
X48387D02*
Y21240D01*
X48132D02*
Y21049D01*
X48387D01*
X50255Y22181D02*
G02X50191Y22117I64J0D01*
G01X50064D01*
G02X50000Y22181I0J64D01*
G01Y22436D01*
G02X50064Y22500I64J0D01*
G01X50191D01*
G02X50255Y22436I0J64D01*
G01X50446D02*
X50510Y22500D01*
Y22117D01*
X50446D02*
X50574D01*
X50765Y22500D02*
X51020D01*
X50829Y22117D01*
X43431Y14495D02*
G02X43368Y14559I0J64D01*
G01Y14686D01*
G02X43431Y14750I64J0D01*
G01X43686D01*
G02X43750Y14686I0J64D01*
G01Y14559D01*
G02X43686Y14495I64J0D01*
G01Y14304D02*
X43750Y14240D01*
X43368D01*
Y14304D02*
Y14176D01*
X43559Y13921D02*
G02X43623Y13985I64J0D01*
G01X43686D01*
G02X43750Y13921I0J64D01*
G01Y13794D01*
G02X43686Y13730I64J0D01*
G01X43623D01*
G02X43559Y13794I0J64D01*
G01Y13921D01*
Y13794D02*
G02X43495Y13730I64J0D01*
G01X43431D01*
G02X43368Y13794I0J64D01*
G01Y13921D01*
G02X43431Y13985I64J0D01*
G01X43495D01*
G02X43559Y13921I0J64D01*
G01X43431Y9745D02*
G02X43368Y9809I0J64D01*
G01Y9936D01*
G02X43431Y10000I64J0D01*
G01X43686D01*
G02X43750Y9936I0J64D01*
G01Y9809D01*
G02X43686Y9745I64J0D01*
G01Y9554D02*
X43750Y9490D01*
X43368D01*
Y9554D02*
Y9426D01*
X43623Y8980D02*
G02X43559Y9044I0J64D01*
G01Y9171D01*
G02X43623Y9235I64J0D01*
G01X43686D01*
G02X43750Y9171I0J64D01*
G01Y9044D01*
G02X43686Y8980I64J0D01*
G01X43495D01*
X43368D01*
X66505Y4431D02*
G02X66441Y4368I64J0D01*
G01X66314D01*
G02X66250Y4431I0J64D01*
G01Y4686D01*
G02X66314Y4750I64J0D01*
G01X66441D01*
G02X66505Y4686I0J64D01*
G01X66632D02*
G02X66696Y4750I64J0D01*
G01X66824D01*
G02X66887Y4686I0J64D01*
G01Y4623D01*
G02X66824Y4559I64J0D01*
G01X66696D01*
X66632Y4495D02*
G02X66696Y4559I64J0D01*
G01X66632Y4495D02*
Y4368D01*
X66887D01*
X67015Y4431D02*
Y4686D01*
G02X67079Y4750I64J0D01*
G01X67206D01*
G02X67270Y4686I0J64D01*
G01Y4431D01*
G02X67206Y4368I64J0D01*
G01X67079D01*
G02X67015Y4431I0J64D01*
G01X67270Y4686D01*
X70181Y11495D02*
G02X70117Y11559I0J64D01*
G01Y11686D01*
G02X70181Y11750I64J0D01*
G01X70436D01*
G02X70500Y11686I0J64D01*
G01Y11559D01*
G02X70436Y11495I64J0D01*
G01Y11368D02*
G02X70500Y11304I0J64D01*
G01Y11176D01*
G02X70436Y11113I64J0D01*
G01X70372D01*
G02X70309Y11176I0J64D01*
G01Y11304D01*
X70245Y11368D02*
G02X70309Y11304I0J64D01*
G01X70245Y11368D02*
X70117D01*
Y11113D01*
X70436Y10921D02*
X70500Y10858D01*
X70117D01*
Y10921D02*
Y10794D01*
X49250Y29245D02*
X48931D01*
G02X48867Y29309I0J64D01*
G01Y29436D01*
G02X48931Y29500I64J0D01*
G01X49186Y29118D02*
G02X49250Y29054I0J64D01*
G01Y28926D01*
G02X49186Y28863I64J0D01*
G01X49122D01*
G02X49059Y28926I0J64D01*
G01Y28990D01*
Y28926D02*
G02X48995Y28863I64J0D01*
G01X48931D01*
G02X48867Y28926I0J64D01*
G01Y29054D01*
G02X48931Y29118I64J0D01*
G01X13100Y21130D02*
Y20748D01*
Y21130D02*
X13291D01*
G02X13355Y21066I0J64D01*
G01Y21003D01*
G02X13291Y20939I64J0D01*
G01X13100D01*
X13164D02*
X13355Y20748D01*
X13546Y21066D02*
X13610Y21130D01*
Y20748D01*
X13546D02*
X13674D01*
X13865Y20875D02*
G02X13929Y20939I64J0D01*
G01X14056D01*
G02X14120Y20875I0J64D01*
G01Y20811D01*
G02X14056Y20748I64J0D01*
G01X13929D01*
G02X13865Y20811I0J64D01*
G01Y21066D01*
G02X13929Y21130I64J0D01*
G01X14056D01*
G02X14120Y21066I0J64D01*
G01X66731Y30250D02*
X66986D01*
G02X67050Y30186I0J64D01*
G01Y30059D01*
G02X66986Y29995I64J0D01*
G01X66731D01*
G02X66667Y30059I0J64D01*
G01Y30186D01*
G02X66731Y30250I64J0D01*
G01X66795Y30123D02*
X66667Y29995D01*
X66986Y29804D02*
X67050Y29740D01*
X66667D01*
Y29804D02*
Y29676D01*
X65681Y27250D02*
X65936D01*
G02X66000Y27186I0J64D01*
G01Y27059D01*
G02X65936Y26995I64J0D01*
G01X65681D01*
G02X65617Y27059I0J64D01*
G01Y27186D01*
G02X65681Y27250I64J0D01*
G01X65745Y27123D02*
X65617Y26995D01*
X65936Y26868D02*
G02X66000Y26804I0J64D01*
G01Y26676D01*
G02X65936Y26613I64J0D01*
G01X65872D01*
G02X65809Y26676I0J64D01*
G01Y26804D01*
X65745Y26868D02*
G02X65809Y26804I0J64D01*
G01X65745Y26868D02*
X65617D01*
Y26613D01*
X11750Y20921D02*
Y21176D01*
G02X11814Y21240I64J0D01*
G01X11941D01*
G02X12005Y21176I0J64D01*
G01Y20921D01*
G02X11941Y20858I64J0D01*
G01X11814D01*
G02X11750Y20921I0J64D01*
G01X11878Y20985D02*
X12005Y20858D01*
X12387D02*
Y21240D01*
X12133D02*
Y21049D01*
X12387D01*
X27755Y33681D02*
G02X27691Y33617I64J0D01*
G01X27564D01*
G02X27500Y33681I0J64D01*
G01Y33936D01*
G02X27564Y34000I64J0D01*
G01X27691D01*
G02X27755Y33936I0J64D01*
G01X27946D02*
X28010Y34000D01*
Y33617D01*
X27946D02*
X28074D01*
X30255Y35431D02*
G02X30191Y35368I64J0D01*
G01X30064D01*
G02X30000Y35431I0J64D01*
G01Y35686D01*
G02X30064Y35750I64J0D01*
G01X30191D01*
G02X30255Y35686I0J64D01*
G01X30446D02*
X30510Y35750D01*
Y35368D01*
X30446D02*
X30574D01*
X30765Y35431D02*
Y35686D01*
G02X30829Y35750I64J0D01*
G01X30956D01*
G02X31020Y35686I0J64D01*
G01Y35431D01*
G02X30956Y35368I64J0D01*
G01X30829D01*
G02X30765Y35431I0J64D01*
G01X31020Y35686D01*
X18431Y20245D02*
G02X18368Y20309I0J64D01*
G01Y20436D01*
G02X18431Y20500I64J0D01*
G01X18686D01*
G02X18750Y20436I0J64D01*
G01Y20309D01*
G02X18686Y20245I64J0D01*
G01Y20054D02*
X18750Y19990D01*
X18368D01*
Y20054D02*
Y19926D01*
X18686Y19671D02*
X18750Y19608D01*
X18368D01*
Y19671D02*
Y19544D01*
X28755Y22181D02*
G02X28691Y22117I64J0D01*
G01X28564D01*
G02X28500Y22181I0J64D01*
G01Y22436D01*
G02X28564Y22500I64J0D01*
G01X28691D01*
G02X28755Y22436I0J64D01*
G01X28946D02*
X29010Y22500D01*
Y22117D01*
X28946D02*
X29074D01*
X29520Y22500D02*
X29265D01*
Y22309D01*
X29456D01*
G02X29520Y22245I0J64D01*
G01Y22181D01*
G02X29456Y22117I64J0D01*
G01X29329D01*
G02X29265Y22181I0J64D01*
G01X17390Y9260D02*
Y9005D01*
Y9132D02*
X17008D01*
X17390Y8877D02*
X17008D01*
X17390D02*
Y8686D01*
G02X17326Y8622I64J0D01*
G01X17263D01*
G02X17199Y8686I0J64D01*
G01Y8877D01*
X17326Y8431D02*
X17390Y8367D01*
X17008D01*
Y8431D02*
Y8304D01*
X30731Y30250D02*
X30986D01*
G02X31050Y30186I0J64D01*
G01Y30059D01*
G02X30986Y29995I64J0D01*
G01X30731D01*
G02X30667Y30059I0J64D01*
G01Y30186D01*
G02X30731Y30250I64J0D01*
G01X30795Y30123D02*
X30667Y29995D01*
X30986Y29804D02*
X31050Y29740D01*
X30667D01*
Y29804D02*
Y29676D01*
X29681Y27250D02*
X29936D01*
G02X30000Y27186I0J64D01*
G01Y27059D01*
G02X29936Y26995I64J0D01*
G01X29681D01*
G02X29618Y27059I0J64D01*
G01Y27186D01*
G02X29681Y27250I64J0D01*
G01X29745Y27123D02*
X29618Y26995D01*
X29936Y26868D02*
G02X30000Y26804I0J64D01*
G01Y26676D01*
G02X29936Y26613I64J0D01*
G01X29873D01*
G02X29809Y26676I0J64D01*
G01Y26804D01*
X29745Y26868D02*
G02X29809Y26804I0J64D01*
G01X29745Y26868D02*
X29618D01*
Y26613D01*
X14255Y22181D02*
G02X14191Y22117I64J0D01*
G01X14064D01*
G02X14000Y22181I0J64D01*
G01Y22436D01*
G02X14064Y22500I64J0D01*
G01X14191D01*
G02X14255Y22436I0J64D01*
G01X14446D02*
X14510Y22500D01*
Y22117D01*
X14446D02*
X14574D01*
X14765Y22500D02*
X15020D01*
X14829Y22117D01*
X6931Y14495D02*
G02X6868Y14559I0J64D01*
G01Y14686D01*
G02X6931Y14750I64J0D01*
G01X7186D01*
G02X7250Y14686I0J64D01*
G01Y14559D01*
G02X7186Y14495I64J0D01*
G01Y14304D02*
X7250Y14240D01*
X6868D01*
Y14304D02*
Y14176D01*
X7059Y13921D02*
G02X7122Y13985I64J0D01*
G01X7186D01*
G02X7250Y13921I0J64D01*
G01Y13794D01*
G02X7186Y13730I64J0D01*
G01X7122D01*
G02X7059Y13794I0J64D01*
G01Y13921D01*
Y13794D02*
G02X6995Y13730I64J0D01*
G01X6931D01*
G02X6868Y13794I0J64D01*
G01Y13921D01*
G02X6931Y13985I64J0D01*
G01X6995D01*
G02X7059Y13921I0J64D01*
G01X6931Y9495D02*
G02X6868Y9559I0J64D01*
G01Y9686D01*
G02X6931Y9750I64J0D01*
G01X7186D01*
G02X7250Y9686I0J64D01*
G01Y9559D01*
G02X7186Y9495I64J0D01*
G01Y9304D02*
X7250Y9240D01*
X6868D01*
Y9304D02*
Y9176D01*
X7122Y8730D02*
G02X7059Y8794I0J64D01*
G01Y8921D01*
G02X7122Y8985I64J0D01*
G01X7186D01*
G02X7250Y8921I0J64D01*
G01Y8794D01*
G02X7186Y8730I64J0D01*
G01X6995D01*
X6868D01*
X30505Y4431D02*
G02X30441Y4368I64J0D01*
G01X30314D01*
G02X30250Y4431I0J64D01*
G01Y4686D01*
G02X30314Y4750I64J0D01*
G01X30441D01*
G02X30505Y4686I0J64D01*
G01X30632D02*
G02X30696Y4750I64J0D01*
G01X30824D01*
G02X30887Y4686I0J64D01*
G01Y4623D01*
G02X30824Y4559I64J0D01*
G01X30696D01*
X30632Y4495D02*
G02X30696Y4559I64J0D01*
G01X30632Y4495D02*
Y4368D01*
X30887D01*
X31015Y4431D02*
Y4686D01*
G02X31079Y4750I64J0D01*
G01X31206D01*
G02X31270Y4686I0J64D01*
G01Y4431D01*
G02X31206Y4368I64J0D01*
G01X31079D01*
G02X31015Y4431I0J64D01*
G01X31270Y4686D01*
X34181Y11495D02*
G02X34118Y11559I0J64D01*
G01Y11686D01*
G02X34181Y11750I64J0D01*
G01X34436D01*
G02X34500Y11686I0J64D01*
G01Y11559D01*
G02X34436Y11495I64J0D01*
G01Y11368D02*
G02X34500Y11304I0J64D01*
G01Y11176D01*
G02X34436Y11113I64J0D01*
G01X34373D01*
G02X34309Y11176I0J64D01*
G01Y11304D01*
X34245Y11368D02*
G02X34309Y11304I0J64D01*
G01X34245Y11368D02*
X34118D01*
Y11113D01*
X34436Y10921D02*
X34500Y10858D01*
X34118D01*
Y10921D02*
Y10794D01*
X13250Y29245D02*
X12931D01*
G02X12867Y29309I0J64D01*
G01Y29436D01*
G02X12931Y29500I64J0D01*
G01X13186Y29118D02*
G02X13250Y29054I0J64D01*
G01Y28926D01*
G02X13186Y28863I64J0D01*
G01X13122D01*
G02X13059Y28926I0J64D01*
G01Y28990D01*
Y28926D02*
G02X12995Y28863I64J0D01*
G01X12931D01*
G02X12867Y28926I0J64D01*
G01Y29054D01*
G02X12931Y29118I64J0D01*
G01X36431Y14495D02*
G02X36367Y14559I0J64D01*
G01Y14686D01*
G02X36431Y14750I64J0D01*
G01X36686D01*
G02X36750Y14686I0J64D01*
G01Y14559D01*
G02X36686Y14495I64J0D01*
G01Y14368D02*
G02X36750Y14304I0J64D01*
G01Y14176D01*
G02X36686Y14113I64J0D01*
G01X36622D01*
G02X36559Y14176I0J64D01*
G01Y14304D01*
X36495Y14368D02*
G02X36559Y14304I0J64D01*
G01X36495Y14368D02*
X36367D01*
Y14113D01*
X36686Y13985D02*
G02X36750Y13921I0J64D01*
G01Y13794D01*
G02X36686Y13730I64J0D01*
G01X36622D01*
G02X36559Y13794I0J64D01*
G01Y13921D01*
X36495Y13985D02*
G02X36559Y13921I0J64D01*
G01X36495Y13985D02*
X36367D01*
Y13730D01*
X36431Y9495D02*
G02X36367Y9559I0J64D01*
G01Y9686D01*
G02X36431Y9750I64J0D01*
G01X36686D01*
G02X36750Y9686I0J64D01*
G01Y9559D01*
G02X36686Y9495I64J0D01*
G01Y9368D02*
G02X36750Y9304I0J64D01*
G01Y9176D01*
G02X36686Y9113I64J0D01*
G01X36622D01*
G02X36559Y9176I0J64D01*
G01Y9304D01*
X36495Y9368D02*
G02X36559Y9304I0J64D01*
G01X36495Y9368D02*
X36367D01*
Y9113D01*
X36686Y8985D02*
G02X36750Y8921I0J64D01*
G01Y8794D01*
G02X36686Y8730I64J0D01*
G01X36622D01*
G02X36559Y8794I0J64D01*
G01Y8858D01*
Y8794D02*
G02X36495Y8730I64J0D01*
G01X36431D01*
G02X36367Y8794I0J64D01*
G01Y8921D01*
G02X36431Y8985I64J0D01*
D11*
G01X62265Y8919D02*
G02X62199Y8853I66J0D01*
G01X62066D01*
G02X62000Y8919I0J66D01*
G01Y9184D01*
G02X62066Y9250I66J0D01*
G01X62199D01*
G02X62265Y9184I0J66D01*
G01X62464D02*
X62530Y9250D01*
Y8853D01*
X62464D02*
X62596D01*
X62795Y9184D02*
G02X62861Y9250I66J0D01*
G01X62994D01*
G02X63060Y9184I0J66D01*
G01Y9118D01*
G02X62994Y9051I66J0D01*
G01X62861D01*
X62795Y8985D02*
G02X62861Y9051I66J0D01*
G01X62795Y8985D02*
Y8853D01*
X63060D01*
X49765Y11669D02*
G02X49699Y11602I66J0D01*
G01X49566D01*
G02X49500Y11669I0J66D01*
G01Y11934D01*
G02X49566Y12000I66J0D01*
G01X49699D01*
G02X49765Y11934I0J66D01*
G01X49964D02*
X50030Y12000D01*
Y11602D01*
X49964D02*
X50096D01*
X50295Y11934D02*
G02X50361Y12000I66J0D01*
G01X50494D01*
G02X50560Y11934I0J66D01*
G01Y11868D01*
G02X50494Y11801I66J0D01*
G01X50428D01*
X50494D02*
G02X50560Y11735I0J66D01*
G01Y11669D01*
G02X50494Y11602I66J0D01*
G01X50361D01*
G02X50295Y11669I0J66D01*
G01X59465Y16529D02*
G02X59399Y16463I66J0D01*
G01X59266D01*
G02X59200Y16529I0J66D01*
G01Y16794D01*
G02X59266Y16860I66J0D01*
G01X59399D01*
G02X59465Y16794I0J66D01*
G01X59862Y16727D02*
G02X59796Y16661I66J0D01*
G01X59664D01*
G02X59597Y16727I0J66D01*
G01Y16794D01*
G02X59664Y16860I66J0D01*
G01X59796D01*
G02X59862Y16794I0J66D01*
G01Y16595D01*
Y16463D01*
X70829Y31065D02*
G02X70763Y31131I0J66D01*
G01Y31264D01*
G02X70829Y31330I66J0D01*
G01X71094D01*
G02X71160Y31264I0J66D01*
G01Y31131D01*
G02X71094Y31065I66J0D01*
G01Y30866D02*
X71160Y30800D01*
X70763D01*
Y30866D02*
Y30734D01*
Y30270D02*
X71160D01*
Y30535D02*
X70961D01*
Y30270D01*
X26265Y8919D02*
G02X26199Y8853I66J0D01*
G01X26066D01*
G02X26000Y8919I0J66D01*
G01Y9184D01*
G02X26066Y9250I66J0D01*
G01X26199D01*
G02X26265Y9184I0J66D01*
G01X26464D02*
X26530Y9250D01*
Y8853D01*
X26464D02*
X26596D01*
X26795Y9184D02*
G02X26861Y9250I66J0D01*
G01X26994D01*
G02X27060Y9184I0J66D01*
G01Y9118D01*
G02X26994Y9051I66J0D01*
G01X26861D01*
X26795Y8985D02*
G02X26861Y9051I66J0D01*
G01X26795Y8985D02*
Y8853D01*
X27060D01*
X13765Y11669D02*
G02X13699Y11602I66J0D01*
G01X13566D01*
G02X13500Y11669I0J66D01*
G01Y11934D01*
G02X13566Y12000I66J0D01*
G01X13699D01*
G02X13765Y11934I0J66D01*
G01X13964D02*
X14030Y12000D01*
Y11602D01*
X13964D02*
X14096D01*
X14295Y11934D02*
G02X14361Y12000I66J0D01*
G01X14494D01*
G02X14560Y11934I0J66D01*
G01Y11868D01*
G02X14494Y11801I66J0D01*
G01X14427D01*
X14494D02*
G02X14560Y11735I0J66D01*
G01Y11669D01*
G02X14494Y11602I66J0D01*
G01X14361D01*
G02X14295Y11669I0J66D01*
G01X23465Y16529D02*
G02X23399Y16463I66J0D01*
G01X23266D01*
G02X23200Y16529I0J66D01*
G01Y16794D01*
G02X23266Y16860I66J0D01*
G01X23399D01*
G02X23465Y16794I0J66D01*
G01X23863Y16727D02*
G02X23796Y16661I66J0D01*
G01X23664D01*
G02X23597Y16727I0J66D01*
G01Y16794D01*
G02X23664Y16860I66J0D01*
G01X23796D01*
G02X23863Y16794I0J66D01*
G01Y16595D01*
Y16463D01*
X34829Y31065D02*
G02X34763Y31131I0J66D01*
G01Y31264D01*
G02X34829Y31330I66J0D01*
G01X35094D01*
G02X35160Y31264I0J66D01*
G01Y31131D01*
G02X35094Y31065I66J0D01*
G01Y30866D02*
X35160Y30800D01*
X34763D01*
Y30866D02*
Y30734D01*
Y30270D02*
X35160D01*
Y30535D02*
X34961D01*
Y30270D01*
D12*
X60300Y38250D02*
X60675D01*
G02X60750Y38175I0J75D01*
G01Y38025D01*
G02X60675Y37950I75J0D01*
G01X60300D01*
X60525Y38250D02*
Y37950D01*
X60750Y37500D02*
X60375D01*
G02X60300Y37575I0J75D01*
G01Y37725D01*
G02X60375Y37800I75J0D01*
G01X60750D01*
Y37350D02*
Y37125D01*
G02X60675Y37050I75J0D01*
G01X60375D01*
G02X60300Y37125I0J75D01*
G01Y37350D01*
X60750D01*
Y36825D02*
Y36675D01*
Y36750D02*
X60300D01*
Y36825D02*
Y36675D01*
X60375Y36450D02*
X60675D01*
G02X60750Y36375I0J75D01*
G01Y36225D01*
G02X60675Y36150I75J0D01*
G01X60375D01*
G02X60300Y36225I0J75D01*
G01Y36375D01*
G02X60375Y36450I75J0D01*
G01X60750Y35475D02*
Y35325D01*
Y35400D02*
X60300D01*
Y35475D02*
Y35325D01*
Y35100D02*
X60750D01*
X60300Y34800D01*
X60750D01*
X24300Y38250D02*
X24675D01*
G02X24750Y38175I0J75D01*
G01Y38025D01*
G02X24675Y37950I75J0D01*
G01X24300D01*
X24525Y38250D02*
Y37950D01*
X24750Y37500D02*
X24375D01*
G02X24300Y37575I0J75D01*
G01Y37725D01*
G02X24375Y37800I75J0D01*
G01X24750D01*
Y37350D02*
Y37125D01*
G02X24675Y37050I75J0D01*
G01X24375D01*
G02X24300Y37125I0J75D01*
G01Y37350D01*
X24750D01*
Y36825D02*
Y36675D01*
Y36750D02*
X24300D01*
Y36825D02*
Y36675D01*
X24375Y36450D02*
X24675D01*
G02X24750Y36375I0J75D01*
G01Y36225D01*
G02X24675Y36150I75J0D01*
G01X24375D01*
G02X24300Y36225I0J75D01*
G01Y36375D01*
G02X24375Y36450I75J0D01*
G01X24750Y35475D02*
Y35325D01*
Y35400D02*
X24300D01*
Y35475D02*
Y35325D01*
Y35100D02*
X24750D01*
X24300Y34800D01*
X24750D01*
D13*
X52230Y630D02*
X52481D01*
G02X52565Y546I0J84D01*
G01Y211D01*
G02X52481Y127I84J0D01*
G01X52230D01*
Y630D01*
X52732Y546D02*
G02X52816Y630I84J0D01*
G01X52984D01*
G02X53067Y546I0J84D01*
G01Y462D01*
G02X52984Y379I84J0D01*
G01X52816D01*
X52732Y295D02*
G02X52816Y379I84J0D01*
G01X52732Y295D02*
Y127D01*
X53067D01*
X50730Y630D02*
X50981D01*
G02X51065Y546I0J84D01*
G01Y211D01*
G02X50981Y127I84J0D01*
G01X50730D01*
Y630D01*
X51316Y546D02*
X51400Y630D01*
Y127D01*
X51316D02*
X51484D01*
X16230Y630D02*
X16481D01*
G02X16565Y546I0J84D01*
G01Y211D01*
G02X16481Y127I84J0D01*
G01X16230D01*
Y630D01*
X16733Y546D02*
G02X16816Y630I84J0D01*
G01X16984D01*
G02X17068Y546I0J84D01*
G01Y462D01*
G02X16984Y379I84J0D01*
G01X16816D01*
X16733Y295D02*
G02X16816Y379I84J0D01*
G01X16733Y295D02*
Y127D01*
X17068D01*
X14730Y630D02*
X14981D01*
G02X15065Y546I0J84D01*
G01Y211D01*
G02X14981Y127I84J0D01*
G01X14730D01*
Y630D01*
X15316Y546D02*
X15400Y630D01*
Y127D01*
X15316D02*
X15484D01*
X45831Y1500D02*
X46166D01*
G02X46250Y1416I0J84D01*
G01Y1249D01*
G02X46166Y1165I84J0D01*
G01X45831D01*
G02X45747Y1249I0J84D01*
G01Y1416D01*
G02X45831Y1500I84J0D01*
G01X45915Y1332D02*
X45747Y1165D01*
X46250Y662D02*
Y997D01*
X45999D01*
Y746D01*
G02X45915Y662I84J0D01*
G01X45831D01*
G02X45747Y746I0J84D01*
G01Y914D01*
G02X45831Y997I84J0D01*
G01X44250Y5500D02*
Y4998D01*
Y5500D02*
X44501D01*
G02X44585Y5416I0J84D01*
G01Y5333D01*
G02X44501Y5249I84J0D01*
G01X44250D01*
X44334D02*
X44585Y4998D01*
X44836Y5416D02*
X44920Y5500D01*
Y4998D01*
X44836D02*
X45004D01*
X45590D02*
Y5500D01*
X45255D02*
Y5249D01*
X45590D01*
X56250Y5500D02*
Y4998D01*
Y5500D02*
X56501D01*
G02X56585Y5416I0J84D01*
G01Y5333D01*
G02X56501Y5249I84J0D01*
G01X56250D01*
X56334D02*
X56585Y4998D01*
X56836Y5416D02*
X56920Y5500D01*
Y4998D01*
X56836D02*
X57004D01*
X57590Y5500D02*
X57255D01*
Y5249D01*
X57506D01*
G02X57590Y5165I0J84D01*
G01Y5081D01*
G02X57506Y4998I84J0D01*
G01X57339D01*
G02X57255Y5081I0J84D01*
G01X52430Y14000D02*
Y13497D01*
Y14000D02*
X52681D01*
G02X52765Y13916I0J84D01*
G01Y13833D01*
G02X52681Y13749I84J0D01*
G01X52430D01*
X52514D02*
X52765Y13497D01*
X53016Y13916D02*
X53100Y14000D01*
Y13497D01*
X53016D02*
X53184D01*
X53435Y13916D02*
G02X53519Y14000I84J0D01*
G01X53686D01*
G02X53770Y13916I0J84D01*
G01Y13833D01*
G02X53686Y13749I84J0D01*
G01X53602D01*
X53686D02*
G02X53770Y13665I0J84D01*
G01Y13581D01*
G02X53686Y13497I84J0D01*
G01X53519D01*
G02X53435Y13581I0J84D01*
G01X66000Y33000D02*
Y32497D01*
Y33000D02*
X66251D01*
G02X66335Y32916I0J84D01*
G01Y32832D01*
G02X66251Y32749I84J0D01*
G01X66000D01*
X66084D02*
X66335Y32497D01*
X66586Y32916D02*
X66670Y33000D01*
Y32497D01*
X66586D02*
X66754D01*
X64250Y37915D02*
X63831D01*
G02X63748Y37999I0J84D01*
G01Y38166D01*
G02X63831Y38250I84J0D01*
G01X64166Y37664D02*
X64250Y37580D01*
X63748D01*
Y37664D02*
Y37496D01*
X66000Y31750D02*
Y31247D01*
Y31750D02*
X66251D01*
G02X66335Y31666I0J84D01*
G01Y31582D01*
G02X66251Y31499I84J0D01*
G01X66000D01*
X66084D02*
X66335Y31247D01*
X66586Y31666D02*
X66670Y31750D01*
Y31247D01*
X66586D02*
X66754D01*
X67005Y31750D02*
X67340D01*
X67089Y31247D01*
X67250Y16500D02*
Y15997D01*
Y16500D02*
X67501D01*
G02X67585Y16416I0J84D01*
G01Y16333D01*
G02X67501Y16249I84J0D01*
G01X67250D01*
X67334D02*
X67585Y15997D01*
X67752Y16416D02*
G02X67836Y16500I84J0D01*
G01X68004D01*
G02X68087Y16416I0J84D01*
G01Y16333D01*
G02X68004Y16249I84J0D01*
G01X67836D01*
X67752Y16165D02*
G02X67836Y16249I84J0D01*
G01X67752Y16165D02*
Y15997D01*
X68087D01*
X67250Y15250D02*
Y14747D01*
Y15250D02*
X67501D01*
G02X67585Y15166I0J84D01*
G01Y15083D01*
G02X67501Y14999I84J0D01*
G01X67250D01*
X67334D02*
X67585Y14747D01*
X67752Y15166D02*
G02X67836Y15250I84J0D01*
G01X68004D01*
G02X68087Y15166I0J84D01*
G01Y15083D01*
G02X68004Y14999I84J0D01*
G01X67920D01*
X68004D02*
G02X68087Y14915I0J84D01*
G01Y14831D01*
G02X68004Y14747I84J0D01*
G01X67836D01*
G02X67752Y14831I0J84D01*
G01X67250Y17750D02*
Y17247D01*
Y17750D02*
X67501D01*
G02X67585Y17666I0J84D01*
G01Y17583D01*
G02X67501Y17499I84J0D01*
G01X67250D01*
X67334D02*
X67585Y17247D01*
X68087D02*
Y17750D01*
X67752D02*
Y17499D01*
X68087D01*
X61000Y11000D02*
Y10497D01*
Y11000D02*
X61251D01*
G02X61335Y10916I0J84D01*
G01Y10832D01*
G02X61251Y10749I84J0D01*
G01X61000D01*
X61084D02*
X61335Y10497D01*
X61502Y10665D02*
G02X61586Y10749I84J0D01*
G01X61754D01*
G02X61837Y10665I0J84D01*
G01Y10581D01*
G02X61754Y10497I84J0D01*
G01X61586D01*
G02X61502Y10581I0J84D01*
G01Y10916D01*
G02X61586Y11000I84J0D01*
G01X61754D01*
G02X61837Y10916I0J84D01*
G01X54000Y11750D02*
Y11248D01*
Y11750D02*
X54251D01*
G02X54335Y11666I0J84D01*
G01Y11583D01*
G02X54251Y11499I84J0D01*
G01X54000D01*
X54084D02*
X54335Y11248D01*
X54586Y11499D02*
G02X54502Y11583I0J84D01*
G01Y11666D01*
G02X54586Y11750I84J0D01*
G01X54754D01*
G02X54838Y11666I0J84D01*
G01Y11583D01*
G02X54754Y11499I84J0D01*
G01X54586D01*
X54754D02*
G02X54838Y11415I0J84D01*
G01Y11331D01*
G02X54754Y11248I84J0D01*
G01X54586D01*
G02X54502Y11331I0J84D01*
G01Y11415D01*
G02X54586Y11499I84J0D01*
G01X49000Y17000D02*
Y16498D01*
Y17000D02*
X49251D01*
G02X49335Y16916I0J84D01*
G01Y16833D01*
G02X49251Y16749I84J0D01*
G01X49000D01*
X49084D02*
X49335Y16498D01*
X49838Y16833D02*
G02X49754Y16749I84J0D01*
G01X49586D01*
G02X49502Y16833I0J84D01*
G01Y16916D01*
G02X49586Y17000I84J0D01*
G01X49754D01*
G02X49838Y16916I0J84D01*
G01Y16665D01*
Y16498D01*
X46500Y17000D02*
X45997D01*
X46500D02*
Y16749D01*
G02X46416Y16665I84J0D01*
G01X46332D01*
G02X46249Y16749I0J84D01*
G01Y17000D01*
Y16916D02*
X45997Y16665D01*
X46416Y16414D02*
X46500Y16330D01*
X45997D01*
Y16414D02*
Y16246D01*
X46416Y15911D02*
X46500Y15827D01*
X45997D01*
Y15911D02*
Y15744D01*
X67250Y19000D02*
Y18497D01*
Y19000D02*
X67501D01*
G02X67585Y18916I0J84D01*
G01Y18833D01*
G02X67501Y18749I84J0D01*
G01X67250D01*
X67334D02*
X67585Y18497D01*
X67836Y18916D02*
X67920Y19000D01*
Y18497D01*
X67836D02*
X68004D01*
X68255Y18916D02*
G02X68339Y19000I84J0D01*
G01X68506D01*
G02X68590Y18916I0J84D01*
G01Y18833D01*
G02X68506Y18749I84J0D01*
G01X68339D01*
X68255Y18665D02*
G02X68339Y18749I84J0D01*
G01X68255Y18665D02*
Y18497D01*
X68590D01*
X67000Y34250D02*
Y33747D01*
Y34250D02*
X67251D01*
G02X67335Y34166I0J84D01*
G01Y34082D01*
G02X67251Y33999I84J0D01*
G01X67000D01*
X67084D02*
X67335Y33747D01*
X67837Y34250D02*
X67502D01*
Y33999D01*
X67754D01*
G02X67837Y33915I0J84D01*
G01Y33831D01*
G02X67754Y33747I84J0D01*
G01X67586D01*
G02X67502Y33831I0J84D01*
G01X66000Y24750D02*
Y24247D01*
Y24750D02*
X66251D01*
G02X66335Y24666I0J84D01*
G01Y24582D01*
G02X66251Y24499I84J0D01*
G01X66000D01*
X66084D02*
X66335Y24247D01*
X66502Y24750D02*
X66837D01*
X66586Y24247D01*
X65000Y29000D02*
X64498D01*
X65000D02*
Y28749D01*
G02X64916Y28665I84J0D01*
G01X64833D01*
G02X64749Y28749I0J84D01*
G01Y29000D01*
Y28916D02*
X64498Y28665D01*
X64916Y28414D02*
X65000Y28330D01*
X64498D01*
Y28414D02*
Y28246D01*
X64833Y27660D02*
G02X64749Y27744I0J84D01*
G01Y27911D01*
G02X64833Y27995I84J0D01*
G01X64916D01*
G02X65000Y27911I0J84D01*
G01Y27744D01*
G02X64916Y27660I84J0D01*
G01X64665D01*
X64498D01*
X68585Y27581D02*
G02X68501Y27497I84J0D01*
G01X68334D01*
G02X68250Y27581I0J84D01*
G01Y27916D01*
G02X68334Y28000I84J0D01*
G01X68501D01*
G02X68585Y27916I0J84D01*
G01X68752D02*
G02X68836Y28000I84J0D01*
G01X69004D01*
G02X69087Y27916I0J84D01*
G01Y27832D01*
G02X69004Y27749I84J0D01*
G01X68920D01*
X69004D02*
G02X69087Y27665I0J84D01*
G01Y27581D01*
G02X69004Y27497I84J0D01*
G01X68836D01*
G02X68752Y27581I0J84D01*
G01X66831Y11415D02*
G02X66748Y11499I0J84D01*
G01Y11666D01*
G02X66831Y11750I84J0D01*
G01X67166D01*
G02X67250Y11666I0J84D01*
G01Y11499D01*
G02X67166Y11415I84J0D01*
G01Y11248D02*
G02X67250Y11164I0J84D01*
G01Y10996D01*
G02X67166Y10913I84J0D01*
G01X67083D01*
G02X66999Y10996I0J84D01*
G01Y11164D01*
X66915Y11248D02*
G02X66999Y11164I0J84D01*
G01X66915Y11248D02*
X66748D01*
Y10913D01*
X62500Y19750D02*
Y19247D01*
X62835D01*
X63086Y19666D02*
X63170Y19750D01*
Y19247D01*
X63086D02*
X63254D01*
X52085Y31831D02*
G02X52001Y31748I84J0D01*
G01X51834D01*
G02X51750Y31831I0J84D01*
G01Y32166D01*
G02X51834Y32250I84J0D01*
G01X52001D01*
G02X52085Y32166I0J84D01*
G01X52336Y31999D02*
G02X52252Y32082I0J84D01*
G01Y32166D01*
G02X52336Y32250I84J0D01*
G01X52504D01*
G02X52587Y32166I0J84D01*
G01Y32082D01*
G02X52504Y31999I84J0D01*
G01X52336D01*
X52504D02*
G02X52587Y31915I0J84D01*
G01Y31831D01*
G02X52504Y31748I84J0D01*
G01X52336D01*
G02X52252Y31831I0J84D01*
G01Y31915D01*
G02X52336Y31999I84J0D01*
G01X53750Y16750D02*
Y16247D01*
Y16750D02*
X54001D01*
G02X54085Y16666I0J84D01*
G01Y16582D01*
G02X54001Y16499I84J0D01*
G01X53750D01*
X53834D02*
X54085Y16247D01*
X54336Y16666D02*
X54420Y16750D01*
Y16247D01*
X54336D02*
X54504D01*
X54755Y16331D02*
Y16666D01*
G02X54839Y16750I84J0D01*
G01X55006D01*
G02X55090Y16666I0J84D01*
G01Y16331D01*
G02X55006Y16247I84J0D01*
G01X54839D01*
G02X54755Y16331I0J84D01*
G01X55090Y16666D01*
X49250Y25500D02*
Y24997D01*
Y25500D02*
X49501D01*
G02X49585Y25416I0J84D01*
G01Y25332D01*
G02X49501Y25249I84J0D01*
G01X49250D01*
X49334D02*
X49585Y24997D01*
X49752Y25416D02*
G02X49836Y25500I84J0D01*
G01X50004D01*
G02X50087Y25416I0J84D01*
G01Y25332D01*
G02X50004Y25249I84J0D01*
G01X49836D01*
X49752Y25165D02*
G02X49836Y25249I84J0D01*
G01X49752Y25165D02*
Y24997D01*
X50087D01*
X50255Y25081D02*
Y25416D01*
G02X50339Y25500I84J0D01*
G01X50506D01*
G02X50590Y25416I0J84D01*
G01Y25081D01*
G02X50506Y24997I84J0D01*
G01X50339D01*
G02X50255Y25081I0J84D01*
G01X50590Y25416D01*
X57581Y1500D02*
X57916D01*
G02X58000Y1416I0J84D01*
G01Y1249D01*
G02X57916Y1165I84J0D01*
G01X57581D01*
G02X57498Y1249I0J84D01*
G01Y1416D01*
G02X57581Y1500I84J0D01*
G01X57665Y1332D02*
X57498Y1165D01*
X57916Y997D02*
G02X58000Y914I0J84D01*
G01Y746D01*
G02X57916Y662I84J0D01*
G01X57833D01*
G02X57749Y746I0J84D01*
G01Y830D01*
Y746D02*
G02X57665Y662I84J0D01*
G01X57581D01*
G02X57498Y746I0J84D01*
G01Y914D01*
G02X57581Y997I84J0D01*
G01X10000Y3500D02*
X10251D01*
G02X10335Y3416I0J84D01*
G01Y3081D01*
G02X10251Y2997I84J0D01*
G01X10000D01*
Y3500D01*
X10838Y2997D02*
Y3500D01*
X10502D02*
Y3249D01*
X10838D01*
X18250Y3500D02*
X18501D01*
G02X18585Y3416I0J84D01*
G01Y3081D01*
G02X18501Y2997I84J0D01*
G01X18250D01*
Y3500D01*
X18753Y3416D02*
G02X18836Y3500I84J0D01*
G01X19004D01*
G02X19088Y3416I0J84D01*
G01Y3332D01*
G02X19004Y3249I84J0D01*
G01X18920D01*
X19004D02*
G02X19088Y3165I0J84D01*
G01Y3081D01*
G02X19004Y2997I84J0D01*
G01X18836D01*
G02X18753Y3081I0J84D01*
G01X9831Y1500D02*
X10166D01*
G02X10250Y1416I0J84D01*
G01Y1249D01*
G02X10166Y1165I84J0D01*
G01X9831D01*
G02X9748Y1249I0J84D01*
G01Y1416D01*
G02X9831Y1500I84J0D01*
G01X9915Y1332D02*
X9748Y1165D01*
X10250Y662D02*
Y997D01*
X9999D01*
Y746D01*
G02X9915Y662I84J0D01*
G01X9831D01*
G02X9748Y746I0J84D01*
G01Y914D01*
G02X9831Y997I84J0D01*
G01X28250Y37915D02*
X27831D01*
G02X27748Y37999I0J84D01*
G01Y38166D01*
G02X27831Y38250I84J0D01*
G01X28166Y37664D02*
X28250Y37580D01*
X27748D01*
Y37664D02*
Y37496D01*
X8250Y5500D02*
Y4998D01*
Y5500D02*
X8501D01*
G02X8585Y5416I0J84D01*
G01Y5333D01*
G02X8501Y5249I84J0D01*
G01X8250D01*
X8334D02*
X8585Y4998D01*
X8836Y5416D02*
X8920Y5500D01*
Y4998D01*
X8836D02*
X9004D01*
X9590D02*
Y5500D01*
X9255D02*
Y5249D01*
X9590D01*
X20250Y5500D02*
Y4998D01*
Y5500D02*
X20501D01*
G02X20585Y5416I0J84D01*
G01Y5333D01*
G02X20501Y5249I84J0D01*
G01X20250D01*
X20334D02*
X20585Y4998D01*
X20836Y5416D02*
X20920Y5500D01*
Y4998D01*
X20836D02*
X21004D01*
X21590Y5500D02*
X21255D01*
Y5249D01*
X21506D01*
G02X21590Y5165I0J84D01*
G01Y5081D01*
G02X21506Y4998I84J0D01*
G01X21339D01*
G02X21255Y5081I0J84D01*
G01X16430Y14000D02*
Y13497D01*
Y14000D02*
X16681D01*
G02X16765Y13916I0J84D01*
G01Y13833D01*
G02X16681Y13749I84J0D01*
G01X16430D01*
X16514D02*
X16765Y13497D01*
X17016Y13916D02*
X17100Y14000D01*
Y13497D01*
X17016D02*
X17184D01*
X17435Y13916D02*
G02X17519Y14000I84J0D01*
G01X17686D01*
G02X17770Y13916I0J84D01*
G01Y13833D01*
G02X17686Y13749I84J0D01*
G01X17603D01*
X17686D02*
G02X17770Y13665I0J84D01*
G01Y13581D01*
G02X17686Y13497I84J0D01*
G01X17519D01*
G02X17435Y13581I0J84D01*
G01X30000Y33000D02*
Y32497D01*
Y33000D02*
X30251D01*
G02X30335Y32916I0J84D01*
G01Y32832D01*
G02X30251Y32749I84J0D01*
G01X30000D01*
X30084D02*
X30335Y32497D01*
X30586Y32916D02*
X30670Y33000D01*
Y32497D01*
X30586D02*
X30754D01*
X30000Y31750D02*
Y31247D01*
Y31750D02*
X30251D01*
G02X30335Y31666I0J84D01*
G01Y31582D01*
G02X30251Y31499I84J0D01*
G01X30000D01*
X30084D02*
X30335Y31247D01*
X30586Y31666D02*
X30670Y31750D01*
Y31247D01*
X30586D02*
X30754D01*
X31005Y31750D02*
X31340D01*
X31089Y31247D01*
X31250Y16500D02*
Y15997D01*
Y16500D02*
X31501D01*
G02X31585Y16416I0J84D01*
G01Y16333D01*
G02X31501Y16249I84J0D01*
G01X31250D01*
X31334D02*
X31585Y15997D01*
X31753Y16416D02*
G02X31836Y16500I84J0D01*
G01X32004D01*
G02X32088Y16416I0J84D01*
G01Y16333D01*
G02X32004Y16249I84J0D01*
G01X31836D01*
X31753Y16165D02*
G02X31836Y16249I84J0D01*
G01X31753Y16165D02*
Y15997D01*
X32088D01*
X31250Y15250D02*
Y14747D01*
Y15250D02*
X31501D01*
G02X31585Y15166I0J84D01*
G01Y15083D01*
G02X31501Y14999I84J0D01*
G01X31250D01*
X31334D02*
X31585Y14747D01*
X31753Y15166D02*
G02X31836Y15250I84J0D01*
G01X32004D01*
G02X32088Y15166I0J84D01*
G01Y15083D01*
G02X32004Y14999I84J0D01*
G01X31920D01*
X32004D02*
G02X32088Y14915I0J84D01*
G01Y14831D01*
G02X32004Y14747I84J0D01*
G01X31836D01*
G02X31753Y14831I0J84D01*
G01X31250Y17750D02*
Y17247D01*
Y17750D02*
X31501D01*
G02X31585Y17666I0J84D01*
G01Y17583D01*
G02X31501Y17499I84J0D01*
G01X31250D01*
X31334D02*
X31585Y17247D01*
X32088D02*
Y17750D01*
X31753D02*
Y17499D01*
X32088D01*
X25000Y11000D02*
Y10497D01*
Y11000D02*
X25251D01*
G02X25335Y10916I0J84D01*
G01Y10832D01*
G02X25251Y10749I84J0D01*
G01X25000D01*
X25084D02*
X25335Y10497D01*
X25503Y10665D02*
G02X25586Y10749I84J0D01*
G01X25754D01*
G02X25838Y10665I0J84D01*
G01Y10581D01*
G02X25754Y10497I84J0D01*
G01X25586D01*
G02X25503Y10581I0J84D01*
G01Y10916D01*
G02X25586Y11000I84J0D01*
G01X25754D01*
G02X25838Y10916I0J84D01*
G01X18000Y11750D02*
Y11248D01*
Y11750D02*
X18251D01*
G02X18335Y11666I0J84D01*
G01Y11583D01*
G02X18251Y11499I84J0D01*
G01X18000D01*
X18084D02*
X18335Y11248D01*
X18586Y11499D02*
G02X18503Y11583I0J84D01*
G01Y11666D01*
G02X18586Y11750I84J0D01*
G01X18754D01*
G02X18838Y11666I0J84D01*
G01Y11583D01*
G02X18754Y11499I84J0D01*
G01X18586D01*
X18754D02*
G02X18838Y11415I0J84D01*
G01Y11331D01*
G02X18754Y11248I84J0D01*
G01X18586D01*
G02X18503Y11331I0J84D01*
G01Y11415D01*
G02X18586Y11499I84J0D01*
G01X13000Y17000D02*
Y16498D01*
Y17000D02*
X13251D01*
G02X13335Y16916I0J84D01*
G01Y16833D01*
G02X13251Y16749I84J0D01*
G01X13000D01*
X13084D02*
X13335Y16498D01*
X13838Y16833D02*
G02X13754Y16749I84J0D01*
G01X13586D01*
G02X13503Y16833I0J84D01*
G01Y16916D01*
G02X13586Y17000I84J0D01*
G01X13754D01*
G02X13838Y16916I0J84D01*
G01Y16665D01*
Y16498D01*
X10500Y17000D02*
X9998D01*
X10500D02*
Y16749D01*
G02X10416Y16665I84J0D01*
G01X10333D01*
G02X10249Y16749I0J84D01*
G01Y17000D01*
Y16916D02*
X9998Y16665D01*
X10416Y16414D02*
X10500Y16330D01*
X9998D01*
Y16414D02*
Y16246D01*
X10416Y15911D02*
X10500Y15827D01*
X9998D01*
Y15911D02*
Y15744D01*
X31250Y19000D02*
Y18497D01*
Y19000D02*
X31501D01*
G02X31585Y18916I0J84D01*
G01Y18833D01*
G02X31501Y18749I84J0D01*
G01X31250D01*
X31334D02*
X31585Y18497D01*
X31836Y18916D02*
X31920Y19000D01*
Y18497D01*
X31836D02*
X32004D01*
X32255Y18916D02*
G02X32339Y19000I84J0D01*
G01X32506D01*
G02X32590Y18916I0J84D01*
G01Y18833D01*
G02X32506Y18749I84J0D01*
G01X32339D01*
X32255Y18665D02*
G02X32339Y18749I84J0D01*
G01X32255Y18665D02*
Y18497D01*
X32590D01*
X26000Y15750D02*
Y15248D01*
Y15750D02*
X26251D01*
G02X26335Y15666I0J84D01*
G01Y15583D01*
G02X26251Y15499I84J0D01*
G01X26000D01*
X26084D02*
X26335Y15248D01*
X26586Y15666D02*
X26670Y15750D01*
Y15248D01*
X26586D02*
X26754D01*
X27089Y15499D02*
G02X27005Y15583I0J84D01*
G01Y15666D01*
G02X27089Y15750I84J0D01*
G01X27256D01*
G02X27340Y15666I0J84D01*
G01Y15583D01*
G02X27256Y15499I84J0D01*
G01X27089D01*
X27256D02*
G02X27340Y15415I0J84D01*
G01Y15331D01*
G02X27256Y15248I84J0D01*
G01X27089D01*
G02X27005Y15331I0J84D01*
G01Y15415D01*
G02X27089Y15499I84J0D01*
G01X31000Y34250D02*
Y33747D01*
Y34250D02*
X31251D01*
G02X31335Y34166I0J84D01*
G01Y34082D01*
G02X31251Y33999I84J0D01*
G01X31000D01*
X31084D02*
X31335Y33747D01*
X31838Y34250D02*
X31503D01*
Y33999D01*
X31754D01*
G02X31838Y33915I0J84D01*
G01Y33831D01*
G02X31754Y33747I84J0D01*
G01X31586D01*
G02X31503Y33831I0J84D01*
G01X30000Y24750D02*
Y24247D01*
Y24750D02*
X30251D01*
G02X30335Y24666I0J84D01*
G01Y24582D01*
G02X30251Y24499I84J0D01*
G01X30000D01*
X30084D02*
X30335Y24247D01*
X30503Y24750D02*
X30838D01*
X30586Y24247D01*
X29000Y29000D02*
X28497D01*
X29000D02*
Y28749D01*
G02X28916Y28665I84J0D01*
G01X28832D01*
G02X28749Y28749I0J84D01*
G01Y29000D01*
Y28916D02*
X28497Y28665D01*
X28916Y28414D02*
X29000Y28330D01*
X28497D01*
Y28414D02*
Y28246D01*
X28832Y27660D02*
G02X28749Y27744I0J84D01*
G01Y27911D01*
G02X28832Y27995I84J0D01*
G01X28916D01*
G02X29000Y27911I0J84D01*
G01Y27744D01*
G02X28916Y27660I84J0D01*
G01X28665D01*
X28497D01*
X32585Y27581D02*
G02X32501Y27497I84J0D01*
G01X32334D01*
G02X32250Y27581I0J84D01*
G01Y27916D01*
G02X32334Y28000I84J0D01*
G01X32501D01*
G02X32585Y27916I0J84D01*
G01X32753D02*
G02X32836Y28000I84J0D01*
G01X33004D01*
G02X33088Y27916I0J84D01*
G01Y27832D01*
G02X33004Y27749I84J0D01*
G01X32920D01*
X33004D02*
G02X33088Y27665I0J84D01*
G01Y27581D01*
G02X33004Y27497I84J0D01*
G01X32836D01*
G02X32753Y27581I0J84D01*
G01X30831Y11415D02*
G02X30747Y11499I0J84D01*
G01Y11666D01*
G02X30831Y11750I84J0D01*
G01X31166D01*
G02X31250Y11666I0J84D01*
G01Y11499D01*
G02X31166Y11415I84J0D01*
G01Y11248D02*
G02X31250Y11164I0J84D01*
G01Y10996D01*
G02X31166Y10913I84J0D01*
G01X31082D01*
G02X30999Y10996I0J84D01*
G01Y11164D01*
X30915Y11248D02*
G02X30999Y11164I0J84D01*
G01X30915Y11248D02*
X30747D01*
Y10913D01*
X26500Y19750D02*
Y19247D01*
X26835D01*
X27086Y19666D02*
X27170Y19750D01*
Y19247D01*
X27086D02*
X27254D01*
X16085Y31831D02*
G02X16001Y31748I84J0D01*
G01X15834D01*
G02X15750Y31831I0J84D01*
G01Y32166D01*
G02X15834Y32250I84J0D01*
G01X16001D01*
G02X16085Y32166I0J84D01*
G01X16336Y31999D02*
G02X16253Y32082I0J84D01*
G01Y32166D01*
G02X16336Y32250I84J0D01*
G01X16504D01*
G02X16588Y32166I0J84D01*
G01Y32082D01*
G02X16504Y31999I84J0D01*
G01X16336D01*
X16504D02*
G02X16588Y31915I0J84D01*
G01Y31831D01*
G02X16504Y31748I84J0D01*
G01X16336D01*
G02X16253Y31831I0J84D01*
G01Y31915D01*
G02X16336Y31999I84J0D01*
G01X17750Y16750D02*
Y16247D01*
Y16750D02*
X18001D01*
G02X18085Y16666I0J84D01*
G01Y16582D01*
G02X18001Y16499I84J0D01*
G01X17750D01*
X17834D02*
X18085Y16247D01*
X18336Y16666D02*
X18420Y16750D01*
Y16247D01*
X18336D02*
X18504D01*
X18755Y16331D02*
Y16666D01*
G02X18839Y16750I84J0D01*
G01X19006D01*
G02X19090Y16666I0J84D01*
G01Y16331D01*
G02X19006Y16247I84J0D01*
G01X18839D01*
G02X18755Y16331I0J84D01*
G01X19090Y16666D01*
X21581Y1500D02*
X21916D01*
G02X22000Y1416I0J84D01*
G01Y1249D01*
G02X21916Y1165I84J0D01*
G01X21581D01*
G02X21497Y1249I0J84D01*
G01Y1416D01*
G02X21581Y1500I84J0D01*
G01X21665Y1332D02*
X21497Y1165D01*
X21916Y997D02*
G02X22000Y914I0J84D01*
G01Y746D01*
G02X21916Y662I84J0D01*
G01X21832D01*
G02X21749Y746I0J84D01*
G01Y830D01*
Y746D02*
G02X21665Y662I84J0D01*
G01X21581D01*
G02X21497Y746I0J84D01*
G01Y914D01*
G02X21581Y997I84J0D01*
G01X13250Y25500D02*
Y24997D01*
Y25500D02*
X13501D01*
G02X13585Y25416I0J84D01*
G01Y25332D01*
G02X13501Y25249I84J0D01*
G01X13250D01*
X13334D02*
X13585Y24997D01*
X13753Y25416D02*
G02X13836Y25500I84J0D01*
G01X14004D01*
G02X14088Y25416I0J84D01*
G01Y25332D01*
G02X14004Y25249I84J0D01*
G01X13836D01*
X13753Y25165D02*
G02X13836Y25249I84J0D01*
G01X13753Y25165D02*
Y24997D01*
X14088D01*
X14255Y25081D02*
Y25416D01*
G02X14339Y25500I84J0D01*
G01X14506D01*
G02X14590Y25416I0J84D01*
G01Y25081D01*
G02X14506Y24997I84J0D01*
G01X14339D01*
G02X14255Y25081I0J84D01*
G01X14590Y25416D01*
X54250Y3500D02*
X54501D01*
G02X54585Y3416I0J84D01*
G01Y3081D01*
G02X54501Y2997I84J0D01*
G01X54250D01*
Y3500D01*
X54752Y3416D02*
G02X54836Y3500I84J0D01*
G01X55004D01*
G02X55087Y3416I0J84D01*
G01Y3332D01*
G02X55004Y3249I84J0D01*
G01X54920D01*
X55004D02*
G02X55087Y3165I0J84D01*
G01Y3081D01*
G02X55004Y2997I84J0D01*
G01X54836D01*
G02X54752Y3081I0J84D01*
G01X46000Y3500D02*
X46251D01*
G02X46335Y3416I0J84D01*
G01Y3081D01*
G02X46251Y2997I84J0D01*
G01X46000D01*
Y3500D01*
X46838Y2997D02*
Y3500D01*
X46503D02*
Y3249D01*
X46838D01*
X62000Y15750D02*
Y15248D01*
Y15750D02*
X62251D01*
G02X62335Y15666I0J84D01*
G01Y15583D01*
G02X62251Y15499I84J0D01*
G01X62000D01*
X62084D02*
X62335Y15248D01*
X62586Y15666D02*
X62670Y15750D01*
Y15248D01*
X62586D02*
X62754D01*
X63089Y15499D02*
G02X63005Y15583I0J84D01*
G01Y15666D01*
G02X63089Y15750I84J0D01*
G01X63256D01*
G02X63340Y15666I0J84D01*
G01Y15583D01*
G02X63256Y15499I84J0D01*
G01X63089D01*
X63256D02*
G02X63340Y15415I0J84D01*
G01Y15331D01*
G02X63256Y15248I84J0D01*
G01X63089D01*
G02X63005Y15331I0J84D01*
G01Y15415D01*
G02X63089Y15499I84J0D01*
D14*
G01X49750Y36250D02*
X49150D01*
X49750D02*
Y35950D01*
G02X49650Y35850I100J0D01*
G01X49550D01*
G02X49450Y35950I0J100D01*
G01Y36250D01*
X49750Y35250D02*
X49250D01*
G02X49150Y35350I0J100D01*
X49250Y35450I100J0D01*
G01X49450D01*
X49250D01*
G02X49150Y35550I0J100D01*
X49250Y35650I100J0D01*
G01X49750D01*
Y35050D02*
X49150D01*
X49750D02*
Y34750D01*
G02X49650Y34650I100J0D01*
G01X49550D01*
G02X49450Y34750I0J100D01*
G01Y35050D01*
Y34950D02*
X49150Y34650D01*
X900Y9500D02*
G02X1000Y9400I0J100D01*
G01Y9200D01*
G02X900Y9100I100J0D01*
G01X800D01*
G02X700Y9200I0J100D01*
G01Y9400D01*
X600Y9500D02*
G02X700Y9400I0J100D01*
G01X600Y9500D02*
X400D01*
Y9100D01*
X500Y8900D02*
X900D01*
G02X1000Y8800I0J100D01*
G01Y8600D01*
G02X900Y8500I100J0D01*
G01X500D01*
G02X400Y8600I0J100D01*
G01Y8800D01*
G02X500Y8900I100J0D01*
G01X900Y8500D01*
Y8300D02*
G02X1000Y8200I0J100D01*
G01Y8000D01*
G02X900Y7900I100J0D01*
G01X800D01*
G02X700Y8000I0J100D01*
G01Y8200D01*
X600Y8300D02*
G02X700Y8200I0J100D01*
G01X600Y8300D02*
X400D01*
Y7900D01*
Y7300D02*
X1000D01*
Y7700D02*
X700D01*
Y7300D01*
X2250Y12350D02*
Y12750D01*
X1950D01*
Y12450D01*
G02X1850Y12350I100J0D01*
G01X1750D01*
G02X1650Y12450I0J100D01*
G01Y12650D01*
G02X1750Y12750I100J0D01*
G01X2250Y12150D02*
Y11750D01*
Y11950D02*
X1650D01*
X1950Y11550D02*
Y11150D01*
X1650Y10950D02*
X2150D01*
G02X2250Y10850I0J100D01*
G01Y10650D01*
G02X2150Y10550I100J0D01*
G01X1650D01*
X1950Y10950D02*
Y10550D01*
X2050Y10350D02*
X1650D01*
X1950D02*
G02X2050Y10250I0J100D01*
X1950Y10150I100J0D01*
G01X1650D01*
X1950D02*
G02X2050Y10050I0J100D01*
X1950Y9950I100J0D01*
G01X1650D01*
X2050Y9750D02*
X1450D01*
X1950D02*
G02X2050Y9650I0J100D01*
G01Y9450D01*
G02X1950Y9350I100J0D01*
G01X1750D01*
G02X1650Y9450I0J100D01*
G01Y9650D01*
G02X1750Y9750I100J0D01*
G01X2050Y8550D02*
X1650Y8350D01*
X2050Y8150D01*
X2150Y7950D02*
G02X2250Y7850I0J100D01*
G01Y7650D01*
G02X2150Y7550I100J0D01*
G01X2050D01*
G02X1950Y7650I0J100D01*
G01Y7850D01*
X1850Y7950D02*
G02X1950Y7850I0J100D01*
G01X1850Y7950D02*
X1650D01*
Y7550D01*
X13750Y36250D02*
X13150D01*
X13750D02*
Y35950D01*
G02X13650Y35850I100J0D01*
G01X13550D01*
G02X13450Y35950I0J100D01*
G01Y36250D01*
X13750Y35250D02*
X13250D01*
G02X13150Y35350I0J100D01*
X13250Y35450I100J0D01*
G01X13450D01*
X13250D01*
G02X13150Y35550I0J100D01*
X13250Y35650I100J0D01*
G01X13750D01*
Y35050D02*
X13150D01*
X13750D02*
Y34750D01*
G02X13650Y34650I100J0D01*
G01X13550D01*
G02X13450Y34750I0J100D01*
G01Y35050D01*
Y34950D02*
X13150Y34650D01*
X38900Y14600D02*
X39500D01*
Y15000D02*
X39200D01*
Y14600D01*
Y14300D02*
G02X39300Y14400I100J0D01*
G01X39400D01*
G02X39500Y14300I0J100D01*
G01Y14100D01*
G02X39400Y14000I100J0D01*
G01X39300D01*
G02X39200Y14100I0J100D01*
G01Y14300D01*
Y14100D02*
G02X39100Y14000I100J0D01*
G01X39000D01*
G02X38900Y14100I0J100D01*
G01Y14300D01*
G02X39000Y14400I100J0D01*
G01X39100D01*
G02X39200Y14300I0J100D01*
G01X39500Y13200D02*
X38900Y13000D01*
X39500Y12800D01*
Y12600D02*
Y12300D01*
G02X39400Y12200I100J0D01*
G01X39000D01*
G02X38900Y12300I0J100D01*
G01Y12600D01*
X39500D01*
X39000Y11600D02*
G02X38900Y11700I0J100D01*
G01Y11900D01*
G02X39000Y12000I100J0D01*
G01X39400D01*
G02X39500Y11900I0J100D01*
G01Y11700D01*
G02X39400Y11600I100J0D01*
G01X39500Y10400D02*
Y10800D01*
X39200D01*
Y10500D01*
G02X39100Y10400I100J0D01*
G01X39000D01*
G02X38900Y10500I0J100D01*
G01Y10700D01*
G02X39000Y10800I100J0D01*
G01X38900Y10200D02*
X39400D01*
G02X39500Y10100I0J100D01*
G01Y9900D01*
G02X39400Y9800I100J0D01*
G01X38900D01*
X39200Y10200D02*
Y9800D01*
X41900Y15400D02*
X42000Y15300D01*
X41400D01*
Y15400D02*
Y15200D01*
X41500Y14900D02*
X41900D01*
G02X42000Y14800I0J100D01*
G01Y14600D01*
G02X41900Y14500I100J0D01*
G01X41500D01*
G02X41400Y14600I0J100D01*
G01Y14800D01*
G02X41500Y14900I100J0D01*
G01X41900Y14500D01*
X41500Y14300D02*
X41900D01*
G02X42000Y14200I0J100D01*
G01Y14000D01*
G02X41900Y13900I100J0D01*
G01X41500D01*
G02X41400Y14000I0J100D01*
G01Y14200D01*
G02X41500Y14300I100J0D01*
G01X41900Y13900D01*
X42000Y12700D02*
X41500D01*
G02X41400Y12800I0J100D01*
X41500Y12900I100J0D01*
G01X41700D01*
X41500D01*
G02X41400Y13000I0J100D01*
X41500Y13100I100J0D01*
G01X42000D01*
X41800Y12400D02*
Y12200D01*
G02X41700Y12100I100J0D01*
G01X41400D01*
X41500D02*
G02X41400Y12200I0J100D01*
G01Y12400D01*
G02X41500Y12500I100J0D01*
X41600Y12400I0J100D01*
G01Y12100D01*
X41500Y11550D02*
G02X41400Y11650I0J100D01*
G01Y11700D01*
G02X41500Y11800I100J0D01*
G01X42000D01*
X41800Y11900D02*
Y11600D01*
X41500Y10950D02*
G02X41400Y11050I0J100D01*
G01Y11100D01*
G02X41500Y11200I100J0D01*
G01X42000D01*
X41800Y11300D02*
Y11000D01*
Y10100D02*
X41400Y9700D01*
Y10100D02*
X41800Y9700D01*
X41900Y9500D02*
G02X42000Y9400I0J100D01*
G01Y9200D01*
G02X41900Y9100I100J0D01*
G01X41800D01*
G02X41700Y9200I0J100D01*
G01Y9400D01*
X41600Y9500D02*
G02X41700Y9400I0J100D01*
G01X41600Y9500D02*
X41400D01*
Y9100D01*
X40450Y15950D02*
G02X40350Y15850I100J0D01*
G01X40250D01*
G02X40150Y15950I0J100D01*
G01Y16150D01*
G02X40250Y16250I100J0D01*
G01X40450Y15950D02*
Y16150D01*
G02X40550Y16250I100J0D01*
G01X40650D01*
G02X40750Y16150I0J100D01*
G01Y15950D01*
G02X40650Y15850I100J0D01*
G01X40250Y15300D02*
G02X40150Y15400I0J100D01*
G01Y15450D01*
G02X40250Y15550I100J0D01*
G01X40750D01*
X40550Y15650D02*
Y15350D01*
X40150Y14650D02*
Y14950D01*
G02X40250Y15050I100J0D01*
G01X40450D01*
G02X40550Y14950I0J100D01*
G01Y14750D01*
G02X40450Y14650I100J0D01*
G01X40350D01*
Y15050D01*
X40550Y14450D02*
X40150D01*
X40450D02*
G02X40550Y14350I0J100D01*
G01Y14150D01*
G02X40450Y14050I100J0D01*
G01X40150Y13450D02*
Y13750D01*
G02X40250Y13850I100J0D01*
G01X40450D01*
G02X40550Y13750I0J100D01*
G01Y13550D01*
G02X40450Y13450I100J0D01*
G01X40350D01*
Y13850D01*
X40250Y13250D02*
X40450D01*
G02X40550Y13150I0J100D01*
G01Y12950D01*
G02X40450Y12850I100J0D01*
G01X40250D01*
G02X40150Y12950I0J100D01*
G01Y13150D01*
G02X40250Y13250I100J0D01*
G01X40450Y12050D02*
Y11650D01*
X40150Y10450D02*
X40750D01*
Y10850D02*
X40450D01*
Y10450D01*
Y10250D02*
Y9850D01*
X40250Y9650D02*
X40650D01*
G02X40750Y9550I0J100D01*
G01Y9350D01*
G02X40650Y9250I100J0D01*
G01X40250D01*
G02X40150Y9350I0J100D01*
G01Y9550D01*
G02X40250Y9650I100J0D01*
G01X40750Y9050D02*
X40150D01*
X40450D02*
G02X40550Y8950I0J100D01*
G01Y8750D01*
G02X40450Y8650I100J0D01*
G01X40150D01*
X40550Y8450D02*
X40150D01*
X40450D02*
G02X40550Y8350I0J100D01*
X40450Y8250I100J0D01*
G01X40150D01*
X40450D02*
G02X40550Y8150I0J100D01*
X40450Y8050I100J0D01*
G01X40150D01*
D15*
X52500Y29250D02*
X51802D01*
Y28785D01*
X52500Y28088D02*
Y28552D01*
X51802D01*
Y28088D01*
X52151Y28552D02*
Y28204D01*
X52500Y27855D02*
Y27506D01*
G02X52384Y27390I116J0D01*
G01X51919D01*
G02X51802Y27506I0J116D01*
G01Y27855D01*
X52500D01*
X16500Y29250D02*
X15802D01*
Y28785D01*
X16500Y28088D02*
Y28552D01*
X15802D01*
Y28088D01*
X16151Y28552D02*
Y28204D01*
X16500Y27855D02*
Y27506D01*
G02X16384Y27390I116J0D01*
G01X15919D01*
G02X15802Y27506I0J116D01*
G01Y27855D01*
X16500D01*
X55151Y35901D02*
G02X55035Y35785I116J0D01*
G01X54919D01*
G02X54803Y35901I0J116D01*
G01Y36134D01*
G02X54919Y36250I116J0D01*
G01X55151Y35901D02*
Y36134D01*
G02X55267Y36250I116J0D01*
G01X55384D01*
G02X55500Y36134I0J116D01*
G01Y35901D01*
G02X55384Y35785I116J0D01*
G01X55500Y35552D02*
X54803D01*
X55500D02*
Y35204D01*
G02X55384Y35087I116J0D01*
G01X55267D01*
G02X55151Y35204I0J116D01*
G01Y35552D01*
X55384Y34739D02*
X55500Y34623D01*
X54803D01*
Y34739D02*
Y34506D01*
X40419Y24785D02*
G02X40302Y24901I0J116D01*
G01Y25134D01*
G02X40419Y25250I116J0D01*
G01X40884D01*
G02X41000Y25134I0J116D01*
G01Y24901D01*
G02X40884Y24785I116J0D01*
G01Y24436D02*
X41000Y24320D01*
X40302D01*
Y24436D02*
Y24204D01*
X40535Y23855D02*
G02X40651Y23739I0J116D01*
G01Y23506D01*
G02X40535Y23390I116J0D01*
G01X40419D01*
G02X40302Y23506I0J116D01*
G01Y23739D01*
G02X40419Y23855I116J0D01*
G01X40884D01*
G02X41000Y23739I0J116D01*
G01Y23506D01*
G02X40884Y23390I116J0D01*
G01X19151Y35901D02*
G02X19035Y35785I116J0D01*
G01X18919D01*
G02X18802Y35901I0J116D01*
G01Y36134D01*
G02X18919Y36250I116J0D01*
G01X19151Y35901D02*
Y36134D01*
G02X19268Y36250I116J0D01*
G01X19384D01*
G02X19500Y36134I0J116D01*
G01Y35901D01*
G02X19384Y35785I116J0D01*
G01X19500Y35552D02*
X18802D01*
X19500D02*
Y35204D01*
G02X19384Y35087I116J0D01*
G01X19268D01*
G02X19151Y35204I0J116D01*
G01Y35552D01*
X19384Y34855D02*
G02X19500Y34739I0J116D01*
G01Y34506D01*
G02X19384Y34390I116J0D01*
G01X19268D01*
G02X19151Y34506I0J116D01*
G01Y34739D01*
X19035Y34855D02*
G02X19151Y34739I0J116D01*
G01X19035Y34855D02*
X18802D01*
Y34390D01*
X7169Y35785D02*
G02X7053Y35901I0J116D01*
G01Y36134D01*
G02X7169Y36250I116J0D01*
G01X7634D01*
G02X7750Y36134I0J116D01*
G01Y35901D01*
G02X7634Y35785I116J0D01*
G01X7750Y35552D02*
Y35087D01*
X7053Y35436D01*
X4919Y25035D02*
G02X4803Y25151I0J116D01*
G01Y25384D01*
G02X4919Y25500I116J0D01*
G01X5384D01*
G02X5500Y25384I0J116D01*
G01Y25151D01*
G02X5384Y25035I116J0D01*
G01Y24686D02*
X5500Y24570D01*
X4803D01*
Y24686D02*
Y24454D01*
X5035Y24105D02*
G02X5151Y23989I0J116D01*
G01Y23756D01*
G02X5035Y23640I116J0D01*
G01X4919D01*
G02X4803Y23756I0J116D01*
G01Y23989D01*
G02X4919Y24105I116J0D01*
G01X5384D01*
G02X5500Y23989I0J116D01*
G01Y23756D01*
G02X5384Y23640I116J0D01*
G01X24169Y26785D02*
G02X24053Y26901I0J116D01*
G01Y27134D01*
G02X24169Y27250I116J0D01*
G01X24634D01*
G02X24750Y27134I0J116D01*
G01Y26901D01*
G02X24634Y26785I116J0D01*
G01X24285Y26553D02*
G02X24401Y26436I0J116D01*
G01Y26204D01*
G02X24285Y26088I116J0D01*
G01X24169D01*
G02X24053Y26204I0J116D01*
G01Y26436D01*
G02X24169Y26553I116J0D01*
G01X24634D01*
G02X24750Y26436I0J116D01*
G01Y26204D01*
G02X24634Y26088I116J0D01*
G01X43169Y35535D02*
G02X43052Y35651I0J116D01*
G01Y35884D01*
G02X43169Y36000I116J0D01*
G01X43634D01*
G02X43750Y35884I0J116D01*
G01Y35651D01*
G02X43634Y35535I116J0D01*
G01X43750Y35303D02*
Y34838D01*
X43052Y35186D01*
X60169Y29035D02*
G02X60053Y29151I0J116D01*
G01Y29384D01*
G02X60169Y29500I116J0D01*
G01X60634D01*
G02X60750Y29384I0J116D01*
G01Y29151D01*
G02X60634Y29035I116J0D01*
G01X60285Y28802D02*
G02X60401Y28686I0J116D01*
G01Y28454D01*
G02X60285Y28338I116J0D01*
G01X60169D01*
G02X60053Y28454I0J116D01*
G01Y28686D01*
G02X60169Y28802I116J0D01*
G01X60634D01*
G02X60750Y28686I0J116D01*
G01Y28454D01*
G02X60634Y28338I116J0D01*
D16*
G01X37831Y16415D02*
G02X37748Y16499I0J84D01*
G01Y16666D01*
G02X37831Y16750I84J0D01*
G01X38166D01*
G02X38250Y16666I0J84D01*
G01Y16499D01*
G02X38166Y16415I84J0D01*
G01X38250Y16247D02*
X37748D01*
Y15912D01*
Y15745D02*
X38166D01*
G02X38250Y15661I0J84D01*
G01Y15494D01*
G02X38166Y15410I84J0D01*
G01X37748D01*
X37999Y15745D02*
Y15410D01*
Y14991D02*
G02X37915Y14907I84J0D01*
G01X37831D01*
G02X37748Y14991I0J84D01*
G01Y15159D01*
G02X37831Y15242I84J0D01*
G01X37999Y14991D02*
Y15159D01*
G02X38083Y15242I84J0D01*
G01X38166D01*
G02X38250Y15159I0J84D01*
G01Y14991D01*
G02X38166Y14907I84J0D01*
G01X37999Y14489D02*
G02X37915Y14405I84J0D01*
G01X37831D01*
G02X37748Y14489I0J84D01*
G01Y14656D01*
G02X37831Y14740I84J0D01*
G01X37999Y14489D02*
Y14656D01*
G02X38083Y14740I84J0D01*
G01X38166D01*
G02X38250Y14656I0J84D01*
G01Y14489D01*
G02X38166Y14405I84J0D01*
G01X37748Y13735D02*
X38166D01*
G02X38250Y13651I0J84D01*
G01Y13484D01*
G02X38166Y13400I84J0D01*
G01X37748D01*
X37999Y13735D02*
Y13400D01*
X38250Y13232D02*
Y12981D01*
G02X38166Y12897I84J0D01*
G01X38083D01*
G02X37999Y12981I0J84D01*
G01Y13232D01*
Y12981D02*
G02X37915Y12897I84J0D01*
G01X37831D01*
G02X37748Y12981I0J84D01*
G01Y13232D01*
X38250D01*
X37748Y12227D02*
X38166D01*
G02X38250Y12144I0J84D01*
G01Y11976D01*
G02X38166Y11892I84J0D01*
G01X37748D01*
X37999Y12227D02*
Y11892D01*
X38083Y11390D02*
X37831D01*
G02X37748Y11474I0J84D01*
G01Y11641D01*
G02X37831Y11725I84J0D01*
G01X38083D01*
X38250Y10887D02*
X37748D01*
X37831D02*
G02X37748Y10971I0J84D01*
G01Y11139D01*
G02X37831Y11222I84J0D01*
G01X37999D01*
G02X38083Y11139I0J84D01*
G01Y10971D01*
G02X37999Y10887I84J0D01*
G01X38083Y10552D02*
X37748D01*
X38250D02*
X38208D01*
X37831Y10217D02*
X37999D01*
G02X38083Y10134I0J84D01*
G01Y9966D01*
G02X37999Y9882I84J0D01*
G01X37831D01*
G02X37748Y9966I0J84D01*
G01Y10134D01*
G02X37831Y10217I84J0D01*
G01X37748Y9212D02*
X38166D01*
G02X38250Y9129I0J84D01*
G01Y8961D01*
G02X38166Y8877I84J0D01*
G01X37748D01*
X37999Y9212D02*
Y8877D01*
X38083Y8710D02*
X37748D01*
X37999D02*
G02X38083Y8626I0J84D01*
X37999Y8542I84J0D01*
G01X37748D01*
X37999D02*
G02X38083Y8459I0J84D01*
X37999Y8375I84J0D01*
G01X37748D01*
X38083Y8207D02*
X37580D01*
X37999D02*
G02X38083Y8124I0J84D01*
G01Y7956D01*
G02X37999Y7872I84J0D01*
G01X37831D01*
G02X37748Y7956I0J84D01*
G01Y8124D01*
G02X37831Y8207I84J0D01*
G01X37789Y7579D02*
G02X37831Y7537I0J42D01*
X37789Y7496I42J0D01*
X37748Y7537I0J42D01*
X37789Y7579I42J0D01*
G01X37810Y7537D02*
X37768D01*
D17*
X48900Y18000D02*
Y20500D01*
X52100D02*
X48900D01*
X52100D02*
Y18000D01*
X48900D02*
X52100D01*
X49500Y18060D02*
Y18240D01*
X51500D02*
X49500D01*
X51500D02*
Y18060D01*
X49500D02*
X51500D01*
X49500Y18120D02*
Y18180D01*
X51500D02*
X49500D01*
X51500D02*
Y18120D01*
X49500D02*
X51500D01*
X59470Y38500D02*
Y34500D01*
X55810D02*
X59460D01*
X55810D02*
Y38500D01*
X59460D02*
X55810D01*
X56560Y38260D02*
X58420D01*
X56560D02*
Y38440D01*
X58420D02*
X56560D01*
Y38320D02*
X58420D01*
X47650Y6250D02*
Y4250D01*
X41850D02*
X47650D01*
X41850D02*
Y6250D01*
X47650D02*
X41850D01*
X47650Y5250D02*
X48450D01*
X41850D02*
X41050D01*
X59650Y6250D02*
Y4250D01*
X53850D02*
X59650D01*
X53850D02*
Y6250D01*
X59650D02*
X53850D01*
X59650Y5250D02*
X60450D01*
X53850D02*
X53050D01*
X50350Y12750D02*
Y14750D01*
X56150D02*
X50350D01*
X56150D02*
Y12750D01*
X50350D02*
X56150D01*
X50350Y13750D02*
X49550D01*
X56150D02*
X56950D01*
X65600Y32250D02*
Y33250D01*
X67900D02*
X65600D01*
X67900D02*
Y32250D01*
X65600D02*
X67900D01*
X65600Y32750D02*
X65250D01*
X67900D02*
X68250D01*
X67900Y32000D02*
Y31000D01*
X65600D02*
X67900D01*
X56560Y38320D02*
Y38380D01*
X58420D02*
X56560D01*
X63350Y38500D02*
Y36000D01*
X61150D02*
X63350D01*
X61150D02*
Y38500D01*
X63350D02*
X61150D01*
X62750Y38440D02*
Y38260D01*
X61750D02*
X62750D01*
X61750D02*
Y38440D01*
X62750D02*
X61750D01*
X62750Y38380D02*
Y38320D01*
X61750D02*
X62750D01*
X61750D02*
Y38380D01*
X62750D02*
X61750D01*
X65600Y31000D02*
Y32000D01*
X67900D02*
X65600D01*
X67900Y31500D02*
X68250D01*
X65600D02*
X65250D01*
X66850Y15750D02*
Y16750D01*
X69150D02*
X66850D01*
X69150D02*
Y15750D01*
X66850D02*
X69150D01*
X66850Y16250D02*
X66500D01*
X69150D02*
X69500D01*
X66850Y14500D02*
Y15500D01*
X69150D02*
X66850D01*
X69150D02*
Y14500D01*
X66850D02*
X69150D01*
X66850Y15000D02*
X66500D01*
X69150D02*
X69500D01*
X69150Y18000D02*
Y17000D01*
X66850D02*
X69150D01*
X66850D02*
Y18000D01*
X69150D02*
X66850D01*
X69150Y17500D02*
X69500D01*
X66850D02*
X66500D01*
X62650Y11250D02*
Y10250D01*
X60350D02*
X62650D01*
X60350D02*
Y11250D01*
X62650D02*
X60350D01*
X62650Y10750D02*
X63000D01*
X60350D02*
X60000D01*
X55650Y12000D02*
Y11000D01*
X53350D02*
X55650D01*
X53350D02*
Y12000D01*
X55650D02*
X53350D01*
X55650Y11500D02*
X56000D01*
X53350D02*
X53000D01*
X50650Y17250D02*
Y16250D01*
X48350D02*
X50650D01*
X48350D02*
Y17250D01*
X50650D02*
X48350D01*
X50650Y16750D02*
X51000D01*
X48350D02*
X48000D01*
X45750Y17400D02*
X46750D01*
Y15100D02*
Y17400D01*
Y15100D02*
X45750D01*
Y17400D02*
Y15100D01*
X46250Y17400D02*
Y17750D01*
Y15100D02*
Y14750D01*
X69150Y19250D02*
Y18250D01*
X66850D02*
X69150D01*
X66850D02*
Y19250D01*
X69150D02*
X66850D01*
X69150Y18750D02*
X69500D01*
X66850D02*
X66500D01*
X63900Y16000D02*
Y15000D01*
X61600D02*
X63900D01*
X61600D02*
Y16000D01*
X63900D02*
X61600D01*
X63900Y15500D02*
X64250D01*
X68900Y34500D02*
Y33500D01*
X66600D02*
X68900D01*
X66600D02*
Y34500D01*
X68900D02*
X66600D01*
X68900Y34000D02*
X69250D01*
X66600D02*
X66250D01*
X67900Y25000D02*
Y24000D01*
X65600D02*
X67900D01*
X65600D02*
Y25000D01*
X67900D02*
X65600D01*
X67900Y24500D02*
X68250D01*
X65600D02*
X65250D01*
X64250Y29400D02*
X65250D01*
Y27100D02*
Y29400D01*
Y27100D02*
X64250D01*
Y29400D02*
Y27100D01*
X64750Y29400D02*
Y29750D01*
Y27100D02*
Y26750D01*
X65250Y34450D02*
Y33550D01*
X64950Y33250D01*
X62550D01*
X62250Y33550D01*
Y34450D01*
X62550Y34750D01*
X64950D01*
X65250Y34450D01*
X65000Y35050D02*
Y35950D01*
X65300Y36250D01*
X67700D01*
X68000Y35950D01*
Y35050D01*
X67700Y34750D01*
X65300D01*
X65000Y35050D01*
X67250Y27550D02*
Y28450D01*
X67550Y28750D01*
X69950D01*
X70250Y28450D01*
Y27550D01*
X69950Y27250D01*
X67550D01*
X67250Y27550D01*
X64000Y9450D02*
Y8550D01*
X63700Y8250D01*
X61300D01*
X61000Y8550D01*
Y9450D01*
X61300Y9750D01*
X63700D01*
X64000Y9450D01*
X51500Y11950D02*
Y11050D01*
X51200Y10750D01*
X48800D01*
X48500Y11050D01*
Y11950D01*
X48800Y12250D01*
X51200D01*
X51500Y11950D01*
X67410Y23300D02*
X67990D01*
X67700Y23590D02*
Y23010D01*
X55700Y16910D02*
Y17490D01*
X55410Y17200D02*
X55990D01*
X67460Y12960D02*
X68040D01*
X67750Y13250D02*
Y12670D01*
X54950Y18500D02*
X54050D01*
X53750Y18800D01*
Y21200D01*
X54050Y21500D01*
X54950D01*
X55250Y21200D01*
Y18800D01*
X54950Y18500D01*
X57250Y15050D02*
Y15950D01*
X57550Y16250D01*
X59950D01*
X60250Y15950D01*
Y15050D01*
X59950Y14750D01*
X57550D01*
X57250Y15050D01*
X63500Y22050D02*
Y22950D01*
X63800Y23250D01*
X66200D01*
X66500Y22950D01*
Y22050D01*
X66200Y21750D01*
X63800D01*
X63500Y22050D01*
X50400Y7750D02*
Y10250D01*
X52600D02*
X50400D01*
X52600D02*
Y7750D01*
X50400D02*
X52600D01*
X51000Y7810D02*
Y7990D01*
X52000D02*
X51000D01*
X52000D02*
Y7810D01*
X51000D02*
X52000D01*
X51000Y7870D02*
Y7930D01*
X52000D02*
X51000D01*
X52000D02*
Y7870D01*
X51000D02*
X52000D01*
X71450Y29250D02*
X70550D01*
X70250Y29550D01*
Y31950D01*
X70550Y32250D01*
X53750Y32450D02*
Y31550D01*
X53450Y31250D01*
X51050D01*
X50750Y31550D01*
Y32450D01*
X51050Y32750D01*
X53450D01*
X53750Y32450D01*
X55650Y17000D02*
Y16000D01*
X53350D02*
X55650D01*
X53350D02*
Y17000D01*
X55650D02*
X53350D01*
X55650Y16500D02*
X56000D01*
X53350D02*
X53000D01*
X70550Y32250D02*
X71450D01*
X71750Y31950D01*
Y29550D01*
X71450Y29250D01*
X45500Y1750D02*
Y250D01*
X39500Y0D02*
X45500D01*
X39500Y250D02*
Y1750D01*
X45250Y2000D02*
X39750D01*
X45500Y250D02*
Y0D01*
X39500D02*
Y250D01*
X45250Y2000D02*
X45500Y1750D01*
X39750Y2000D02*
X39500Y1750D01*
X64250D02*
Y250D01*
X58250Y0D02*
X64250D01*
X58250Y250D02*
Y1750D01*
X57250Y-50D02*
X53250D01*
Y1750D02*
Y-50D01*
Y1750D02*
X57250D01*
Y-50D02*
Y1750D01*
X48500Y20710D02*
X47550D01*
X47100Y20260D01*
Y18240D01*
X47550Y17790D01*
X48500D01*
Y20710D01*
X67290Y30250D02*
Y29300D01*
X67740Y28850D01*
X57250Y10D02*
X53250D01*
Y70D02*
Y10D01*
Y70D02*
X57250D01*
X53720Y38500D02*
Y34500D01*
X50060D02*
X53710D01*
X50060D02*
Y38500D01*
X53710D02*
X50060D01*
X50810Y38260D02*
X52670D01*
X50810D02*
Y38440D01*
X52670D02*
X50810D01*
Y38320D02*
X52670D01*
X50810D02*
Y38380D01*
X57250Y10D02*
Y70D01*
Y130D02*
X53250D01*
Y190D02*
Y130D01*
Y190D02*
X57250D01*
Y130D02*
Y190D01*
X52670Y38380D02*
X50810D01*
X45300Y26450D02*
Y25550D01*
X45750Y26000D02*
X44850D01*
X52000Y22700D02*
Y21800D01*
X51700Y21500D01*
X49300D01*
X49000Y21800D01*
Y22700D01*
X49300Y23000D01*
X51700D01*
X52000Y22700D01*
X43950Y12750D02*
X43050D01*
X42750Y13050D01*
Y15450D01*
X43050Y15750D01*
X43950D01*
X44250Y15450D01*
Y13050D01*
X43950Y12750D01*
Y8000D02*
X43050D01*
X42750Y8300D01*
Y10700D01*
X43050Y11000D01*
X43950D01*
X44250Y10700D01*
Y8300D01*
X43950Y8000D01*
X68250Y4950D02*
Y4050D01*
X67950Y3750D01*
X65550D01*
X65250Y4050D01*
Y4950D01*
X65550Y5250D01*
X67950D01*
X68250Y4950D01*
X70700Y9750D02*
X69800D01*
X69500Y10050D01*
Y12450D01*
X69800Y12750D01*
X70700D01*
X71000Y12450D01*
Y10050D01*
X70700Y9750D01*
X36950Y12750D02*
X36050D01*
X49400Y27000D02*
Y29500D01*
X51600D02*
X49400D01*
X51600D02*
Y27000D01*
X49400D02*
X51600D01*
X50000Y27060D02*
Y27240D01*
X51000D02*
X50000D01*
X51000D02*
Y27060D01*
X50000D02*
X51000D01*
X50000Y27120D02*
Y27180D01*
X51000D02*
X50000D01*
X51000D02*
Y27120D01*
X50000D02*
X51000D01*
X51150Y25750D02*
Y24750D01*
X48850D02*
X51150D01*
X48850D02*
Y25750D01*
X51150D02*
X48850D01*
X51150Y25250D02*
X51500D01*
X48850D02*
X48500D01*
X50500Y-50D02*
X46500D01*
Y1750D02*
Y-50D01*
Y1750D02*
X50500D01*
Y-50D02*
Y1750D01*
Y10D02*
X46500D01*
Y70D02*
Y10D01*
Y70D02*
X50500D01*
Y10D02*
Y70D01*
Y130D02*
X46500D01*
Y190D02*
Y130D01*
Y190D02*
X50500D01*
Y130D02*
Y190D01*
X36050Y12750D02*
X35750Y13050D01*
X48050Y37200D02*
Y36300D01*
X48500Y36750D02*
X47600D01*
X12900Y18000D02*
Y20500D01*
X16100D02*
X12900D01*
X16100D02*
Y18000D01*
X12900D02*
X16100D01*
X13500Y18060D02*
Y18240D01*
X15500D02*
X13500D01*
X15500D02*
Y18060D01*
X13500D02*
X15500D01*
X13500Y18120D02*
Y18180D01*
X15500D02*
X13500D01*
X15500D02*
Y18120D01*
X13500D02*
X15500D01*
X35750Y13050D02*
Y15450D01*
X9500Y1750D02*
Y250D01*
X3500Y0D02*
X9500D01*
X3500Y250D02*
Y1750D01*
X9250Y2000D02*
X3750D01*
X64000D02*
X58500D01*
X64250Y250D02*
Y0D01*
X58250D02*
Y250D01*
X64000Y2000D02*
X64250Y1750D01*
X58500Y2000D02*
X58250Y1750D01*
X62700Y21950D02*
X61800D01*
X35750Y15450D02*
X36050Y15750D01*
X12200Y4000D02*
Y2500D01*
X8800D02*
X12200D01*
X8800D02*
Y4000D01*
X12200D02*
X8800D01*
X12200Y3250D02*
X12700D01*
X8800D02*
X8300D01*
X11690Y4000D02*
Y2500D01*
X20450Y4000D02*
Y2500D01*
X17050D02*
X20450D01*
X17050D02*
Y4000D01*
X20450D02*
X17050D01*
X20450Y3250D02*
X20950D01*
X17050D02*
X16550D01*
X19940Y4000D02*
Y2500D01*
X67740Y28850D02*
X69760D01*
X70210Y29300D01*
Y30250D01*
X67290D01*
X66290Y27250D02*
Y26300D01*
X66740Y25850D01*
X68760D01*
X69210Y26300D01*
Y27250D01*
X66290D01*
X9500Y250D02*
Y0D01*
X3500D02*
Y250D01*
X9250Y2000D02*
X9500Y1750D01*
X3750Y2000D02*
X3500Y1750D01*
X27350Y38500D02*
Y36000D01*
X25150D02*
X27350D01*
X25150D02*
Y38500D01*
X27350D02*
X25150D01*
X26750Y38440D02*
Y38260D01*
X25750D02*
X26750D01*
X25750D02*
Y38440D01*
X26750D02*
X25750D01*
X26750Y38380D02*
Y38320D01*
X25750D02*
X26750D01*
X25750D02*
Y38380D01*
X26750D02*
X25750D01*
X23470Y38500D02*
Y34500D01*
X19810D02*
X23460D01*
X19810D02*
Y38500D01*
X23460D02*
X19810D01*
X20560Y38260D02*
X22420D01*
X20560D02*
Y38440D01*
X22420D02*
X20560D01*
Y38320D02*
X22420D01*
X20560D02*
Y38380D01*
X22420D02*
X20560D01*
X11650Y6250D02*
Y4250D01*
X5850D02*
X11650D01*
X5850D02*
Y6250D01*
X11650D02*
X5850D01*
X11650Y5250D02*
X12450D01*
X5850D02*
X5050D01*
X23650Y6250D02*
Y4250D01*
X17850D02*
X23650D01*
X17850D02*
Y6250D01*
X23650D02*
X17850D01*
X23650Y5250D02*
X24450D01*
X17850D02*
X17050D01*
X12500Y20710D02*
X11550D01*
X11100Y20260D01*
Y18240D01*
X11550Y17790D01*
X12500D01*
Y20710D01*
X14350Y12750D02*
Y14750D01*
X20150D02*
X14350D01*
X20150D02*
Y12750D01*
X14350D02*
X20150D01*
X14350Y13750D02*
X13550D01*
X20150D02*
X20950D01*
X29600Y32250D02*
Y33250D01*
X31900D02*
X29600D01*
X31900D02*
Y32250D01*
X29600D02*
X31900D01*
X29600Y32750D02*
X29250D01*
X31900D02*
X32250D01*
X31900Y32000D02*
Y31000D01*
X29600D02*
X31900D01*
X29600D02*
Y32000D01*
X31900D02*
X29600D01*
X31900Y31500D02*
X32250D01*
X29600D02*
X29250D01*
X12050Y37200D02*
Y36300D01*
X12500Y36750D02*
X11600D01*
X17720Y38500D02*
Y34500D01*
X14060D02*
X17710D01*
X14060D02*
Y38500D01*
X17710D02*
X14060D01*
X14810Y38260D02*
X16670D01*
X14810D02*
Y38440D01*
X16670D02*
X14810D01*
Y38320D02*
X16670D01*
X14810D02*
Y38380D01*
X16670D02*
X14810D01*
X30850Y15750D02*
Y16750D01*
X33150D02*
X30850D01*
X33150D02*
Y15750D01*
X30850D02*
X33150D01*
X30850Y16250D02*
X30500D01*
X33150D02*
X33500D01*
X30850Y14500D02*
Y15500D01*
X33150D02*
X30850D01*
X33150D02*
Y14500D01*
X30850D02*
X33150D01*
X30850Y15000D02*
X30500D01*
X33150D02*
X33500D01*
X33150Y18000D02*
Y17000D01*
X30850D02*
X33150D01*
X30850D02*
Y18000D01*
X33150D02*
X30850D01*
X33150Y17500D02*
X33500D01*
X30850D02*
X30500D01*
X26650Y11250D02*
Y10250D01*
X24350D02*
X26650D01*
X24350D02*
Y11250D01*
X26650D02*
X24350D01*
X26650Y10750D02*
X27000D01*
X24350D02*
X24000D01*
X19650Y12000D02*
Y11000D01*
X17350D02*
X19650D01*
X17350D02*
Y12000D01*
X19650D02*
X17350D01*
X19650Y11500D02*
X20000D01*
X17350D02*
X17000D01*
X14650Y17250D02*
Y16250D01*
X12350D02*
X14650D01*
X12350D02*
Y17250D01*
X14650D02*
X12350D01*
X14650Y16750D02*
X15000D01*
X12350D02*
X12000D01*
X9750Y17400D02*
X10750D01*
Y15100D02*
Y17400D01*
Y15100D02*
X9750D01*
Y17400D02*
Y15100D01*
X10250Y17400D02*
Y17750D01*
Y15100D02*
Y14750D01*
X33150Y19250D02*
Y18250D01*
X30850D02*
X33150D01*
X30850D02*
Y19250D01*
X33150D02*
X30850D01*
X33150Y18750D02*
X33500D01*
X30850D02*
X30500D01*
X27900Y16000D02*
Y15000D01*
X25600D02*
X27900D01*
X25600D02*
Y16000D01*
X27900D02*
X25600D01*
X27900Y15500D02*
X28250D01*
X25600D02*
X25250D01*
X32900Y34500D02*
Y33500D01*
X30600D02*
X32900D01*
X30600D02*
Y34500D01*
X32900D02*
X30600D01*
X32900Y34000D02*
X33250D01*
X30600D02*
X30250D01*
X31900Y25000D02*
Y24000D01*
X29600D02*
X31900D01*
X29600D02*
Y25000D01*
X31900D02*
X29600D01*
X31900Y24500D02*
X32250D01*
X29600D02*
X29250D01*
X28250Y29400D02*
X29250D01*
Y27100D02*
Y29400D01*
Y27100D02*
X28250D01*
Y29400D02*
Y27100D01*
X28750Y29400D02*
Y29750D01*
Y27100D02*
Y26750D01*
X29250Y34450D02*
Y33550D01*
X28950Y33250D01*
X26550D01*
X26250Y33550D01*
Y34450D01*
X26550Y34750D01*
X28950D01*
X29250Y34450D01*
X29000Y35050D02*
Y35950D01*
X29300Y36250D01*
X31700D01*
X32000Y35950D01*
Y35050D01*
X31700Y34750D01*
X29300D01*
X29000Y35050D01*
X31250Y27550D02*
Y28450D01*
X31550Y28750D01*
X33950D01*
X34250Y28450D01*
Y27550D01*
X33950Y27250D01*
X31550D01*
X31250Y27550D01*
X28000Y9450D02*
Y8550D01*
X27700Y8250D01*
X25300D01*
X25000Y8550D01*
Y9450D01*
X25300Y9750D01*
X27700D01*
X28000Y9450D01*
X15500Y11950D02*
Y11050D01*
X15200Y10750D01*
X12800D01*
X12500Y11050D01*
Y11950D01*
X12800Y12250D01*
X15200D01*
X15500Y11950D01*
X31410Y23300D02*
X31990D01*
X31700Y23590D02*
Y23010D01*
X19700Y16910D02*
Y17490D01*
X19410Y17200D02*
X19990D01*
X31460Y12960D02*
X32040D01*
X31750Y13250D02*
Y12670D01*
X18950Y18500D02*
X18050D01*
X17750Y18800D01*
Y21200D01*
X18050Y21500D01*
X18950D01*
X19250Y21200D01*
Y18800D01*
X18950Y18500D01*
X21250Y15050D02*
Y15950D01*
X21550Y16250D01*
X23950D01*
X24250Y15950D01*
Y15050D01*
X23950Y14750D01*
X21550D01*
X21250Y15050D01*
X27500Y22050D02*
Y22950D01*
X27800Y23250D01*
X30200D01*
X30500Y22950D01*
Y22050D01*
X30200Y21750D01*
X27800D01*
X27500Y22050D01*
X14400Y8000D02*
Y10500D01*
X16600D02*
X14400D01*
X16600D02*
Y8000D01*
X14400D02*
X16600D01*
X15000Y8060D02*
Y8240D01*
X16000D02*
X15000D01*
X16000D02*
Y8060D01*
X15000D02*
X16000D01*
X15000Y8120D02*
Y8180D01*
X16000D02*
X15000D01*
X16000D02*
Y8120D01*
X15000D02*
X16000D01*
X35450Y29250D02*
X34550D01*
X34250Y29550D01*
Y31950D01*
X34550Y32250D01*
X35450D01*
X35750Y31950D01*
Y29550D01*
X35450Y29250D01*
X17750Y32450D02*
Y31550D01*
X17450Y31250D01*
X15050D01*
X14750Y31550D01*
Y32450D01*
X15050Y32750D01*
X17450D01*
X17750Y32450D01*
X19650Y17000D02*
Y16000D01*
X17350D02*
X19650D01*
X17350D02*
Y17000D01*
X19650D02*
X17350D01*
X19650Y16500D02*
X20000D01*
X17350D02*
X17000D01*
X28250Y1750D02*
Y250D01*
X22250Y0D02*
X28250D01*
X22250Y250D02*
Y1750D01*
X28000Y2000D02*
X22500D01*
X28250Y250D02*
Y0D01*
X22250D02*
Y250D01*
X28000Y2000D02*
X28250Y1750D01*
X22500Y2000D02*
X22250Y1750D01*
X31290Y30250D02*
Y29300D01*
X31740Y28850D01*
X33760D01*
X34210Y29300D01*
Y30250D01*
X31290D01*
X30290Y27250D02*
Y26300D01*
X30740Y25850D01*
X32760D01*
X33210Y26300D01*
Y27250D01*
X30290D01*
X9800Y26700D02*
Y25800D01*
X10250Y26250D02*
X9350D01*
X16000Y22700D02*
Y21800D01*
X15700Y21500D01*
X13300D01*
X13000Y21800D01*
Y22700D01*
X13300Y23000D01*
X15700D01*
X16000Y22700D01*
X7450Y12750D02*
X6550D01*
X6250Y13050D01*
Y15450D01*
X6550Y15750D01*
X7450D01*
X7750Y15450D01*
Y13050D01*
X7450Y12750D01*
Y7750D02*
X6550D01*
X6250Y8050D01*
Y10450D01*
X6550Y10750D01*
X7450D01*
X7750Y10450D01*
Y8050D01*
X7450Y7750D01*
X32250Y4950D02*
Y4050D01*
X31950Y3750D01*
X29550D01*
X29250Y4050D01*
Y4950D01*
X29550Y5250D01*
X31950D01*
X32250Y4950D01*
X34700Y9750D02*
X33800D01*
X33500Y10050D01*
Y12450D01*
X33800Y12750D01*
X34700D01*
X35000Y12450D01*
Y10050D01*
X34700Y9750D01*
X26700Y21950D02*
X25800D01*
X26250Y21500D02*
Y22400D01*
X36050Y15750D02*
X36950D01*
X37250Y15450D01*
X13400Y27000D02*
Y29500D01*
X15600D02*
X13400D01*
X15600D02*
Y27000D01*
X13400D02*
X15600D01*
X14000Y27060D02*
Y27240D01*
X15000D02*
X14000D01*
X15000D02*
Y27060D01*
X14000D02*
X15000D01*
X14000Y27120D02*
Y27180D01*
X15000D02*
X14000D01*
X15000D02*
Y27120D01*
X14000D02*
X15000D01*
X15150Y25750D02*
Y24750D01*
X12850D02*
X15150D01*
X12850D02*
Y25750D01*
X15150D02*
X12850D01*
X15150Y25250D02*
X15500D01*
X12850D02*
X12500D01*
X37250Y15450D02*
Y13050D01*
X36950Y12750D01*
Y7750D02*
X36050D01*
X35750Y8050D01*
Y10450D01*
X36050Y10750D01*
X36950D01*
X37250Y10450D01*
Y8050D01*
X36950Y7750D01*
X56450Y4000D02*
Y2500D01*
X53050D02*
X56450D01*
X53050D02*
Y4000D01*
X56450D02*
X53050D01*
X56450Y3250D02*
X56950D01*
X53050D02*
X52550D01*
X55940Y4000D02*
Y2500D01*
X48200Y4000D02*
Y2500D01*
X44800D02*
X48200D01*
X44800D02*
Y4000D01*
X48200D02*
X44800D01*
X48200Y3250D02*
X48700D01*
X44800D02*
X44300D01*
X47690Y4000D02*
Y2500D01*
X21250Y-50D02*
X17250D01*
Y1750D02*
Y-50D01*
Y1750D02*
X21250D01*
Y-50D02*
Y1750D01*
Y10D02*
X17250D01*
Y70D02*
Y10D01*
Y70D02*
X21250D01*
Y10D02*
Y70D01*
Y130D02*
X17250D01*
Y190D02*
Y130D01*
Y190D02*
X21250D01*
Y130D02*
Y190D01*
X14500Y-50D02*
X10500D01*
Y1750D02*
Y-50D01*
Y1750D02*
X14500D01*
Y-50D02*
Y1750D01*
Y10D02*
X10500D01*
Y70D02*
Y10D01*
Y70D02*
X14500D01*
Y10D02*
Y70D01*
Y130D02*
X10500D01*
Y190D02*
Y130D01*
Y190D02*
X14500D01*
Y130D02*
Y190D01*
X62250Y21500D02*
Y22400D01*
X61600Y15500D02*
X61250D01*
G75*
X69500Y19500D02*
G02I0J2000D01*
G01X59500Y19000D02*
G02I-2000J0D01*
G01X66000Y9250D02*
G02I0J2000D01*
G01X64750Y18750D02*
G02I-2000J0D01*
G01X35750Y22250D02*
G02I5000J0D01*
G01X38500Y33000D02*
G02I5000J0D01*
G01X58500Y31500D02*
G02I0J-5000D01*
G01X2500Y33000D02*
G02I5000J0D01*
G01X33500Y19500D02*
G02I0J2000D01*
G01X23500Y19000D02*
G02I-2000J0D01*
G01X30000Y9250D02*
G02I0J2000D01*
G01X28750Y18750D02*
G02I-2000J0D01*
G01X250Y22500D02*
G02I5000J0D01*
G01X22500Y31500D02*
G02I0J-5000D01*
D18*
G01X70131Y21535D02*
G74*
G02X69998Y21669I0J134D01*
G01Y21936D01*
G02X70131Y22070I134J0D01*
G01X70666D01*
G02X70800Y21936I0J134D01*
G01Y21669D01*
G02X70666Y21535I134J0D01*
G01X69998Y20733D02*
X70800D01*
Y21268D02*
X70399D01*
Y20733D01*
X57455Y17731D02*
G02X57321Y17597I134J0D01*
G01X57054D01*
G02X56920Y17731I0J134D01*
G01Y18266D01*
G02X57054Y18400I134J0D01*
G01X57321D01*
G02X57455Y18266I0J134D01*
G01X58257Y18400D02*
X57722D01*
Y17999D01*
X58124D01*
G02X58257Y17865I0J134D01*
G01Y17731D01*
G02X58124Y17597I134J0D01*
G01X57856D01*
G02X57722Y17731I0J134D01*
G01X34131Y21535D02*
G02X33997Y21669I0J134D01*
G01Y21936D01*
G02X34131Y22070I134J0D01*
G01X34666D01*
G02X34800Y21936I0J134D01*
G01Y21669D01*
G02X34666Y21535I134J0D01*
G01X33997Y20733D02*
X34800D01*
Y21268D02*
X34399D01*
Y20733D01*
X21455Y17731D02*
G02X21321Y17597I134J0D01*
G01X21054D01*
G02X20920Y17731I0J134D01*
G01Y18266D01*
G02X21054Y18400I134J0D01*
G01X21321D01*
G02X21455Y18266I0J134D01*
G01X22257Y18400D02*
X21722D01*
Y17999D01*
X22124D01*
G02X22257Y17865I0J134D01*
G01Y17731D01*
G02X22124Y17597I134J0D01*
G01X21856D01*
G02X21722Y17731I0J134D01*
D19*
G01X50800Y34250D02*
Y33650D01*
X52800Y34250D02*
Y33650D01*
X53100Y33950D02*
X52500D01*
X56550Y34250D02*
Y33650D01*
X58550Y34250D02*
Y33650D01*
X58850Y33950D02*
X58250D01*
X61550Y35750D02*
Y35150D01*
X62800Y35750D02*
Y35150D01*
X63100Y35450D02*
X62500D01*
X49950Y29750D02*
Y30350D01*
X49650Y30050D02*
X50250D01*
X51200Y29750D02*
Y30350D01*
X14800Y34250D02*
Y33650D01*
X16800Y34250D02*
Y33650D01*
X17100Y33950D02*
X16500D01*
X20550Y34250D02*
Y33650D01*
X22550Y34250D02*
Y33650D01*
X22850Y33950D02*
X22250D01*
X25550Y35750D02*
Y35150D01*
X26800Y35750D02*
Y35150D01*
X27100Y35450D02*
X26500D01*
X13950Y29750D02*
Y30350D01*
X13650Y30050D02*
X14250D01*
X15200Y29750D02*
Y30350D01*
D20*
X4250Y15650D02*
Y16250D01*
X3350D01*
X3800D02*
Y15800D01*
X3950Y15050D02*
X3350D01*
X4250D02*
X4175D01*
X3950Y13850D02*
X3200D01*
G02X3050Y14000I0J150D01*
G01Y14450D01*
X3500Y13850D02*
G02X3350Y14000I0J150D01*
G01Y14300D01*
G02X3500Y14450I150J0D01*
G01X3800D01*
G02X3950Y14300I0J150D01*
G01Y14000D01*
G02X3800Y13850I150J0D01*
G01X4250Y13550D02*
Y12950D01*
Y13250D02*
X3350D01*
X3950Y12650D02*
X3350D01*
X3800D02*
G02X3950Y12500I0J150D01*
G01Y12200D01*
G02X3800Y12050I150J0D01*
G01X3500Y11750D02*
X3800D01*
G02X3950Y11600I0J150D01*
G01Y11300D01*
G02X3800Y11150I150J0D01*
G01X3500D01*
G02X3350Y11300I0J150D01*
G01Y11600D01*
G02X3500Y11750I150J0D01*
G01X3950Y10850D02*
X3350D01*
X3800D02*
G02X3950Y10700I0J150D01*
G01Y10400D01*
G02X3800Y10250I150J0D01*
G01X3350D01*
X3950Y9650D02*
X3350D01*
X4250D02*
X4175D01*
X4250Y9050D02*
X3350Y8450D01*
Y9050D02*
X4250Y8450D01*
D21*
X55620Y160D02*
Y1660D01*
X48870Y160D02*
Y1660D01*
X19620Y160D02*
Y1660D01*
X12870Y160D02*
Y1660D01*
%LPC*%
D22*
X48000Y20250D03*
X64750Y32750D03*
X68750D03*
Y31500D03*
X64750D03*
X66000Y16250D03*
X70000D03*
X66000Y15000D03*
X70000D03*
Y17500D03*
X66000D03*
X63500Y10750D03*
X59500D03*
X56500Y11500D03*
X52500D03*
X51500Y16750D03*
X47500D03*
X46250Y18250D03*
Y14250D03*
X70000Y18750D03*
X66000D03*
X64750Y15500D03*
X69750Y34000D03*
X65750D03*
X68750Y24500D03*
X64750D03*
Y30250D03*
Y26250D03*
Y34000D03*
X62750D03*
X65500Y35500D03*
X67500D03*
X67750Y28000D03*
X69750D03*
X63500Y9000D03*
X61500D03*
X51000Y11500D03*
X49000D03*
X54500Y19000D03*
Y21000D03*
X57750Y15500D03*
X59750D03*
X64000Y22500D03*
X66000D03*
X71000Y29750D03*
Y31750D03*
X53250Y32000D03*
X51250D03*
X56500Y16500D03*
X52500D03*
X36500Y13250D03*
Y15250D03*
X60750Y15500D03*
X48000Y19250D03*
Y18250D03*
X67750Y29750D03*
X68750D03*
X69750D03*
X66750Y26750D03*
X67750D03*
X68750D03*
X36500Y8250D03*
X51500Y22250D03*
X49500D03*
X43500Y13250D03*
Y15250D03*
Y8500D03*
Y10500D03*
X67750Y4500D03*
X65750D03*
X70250Y10250D03*
Y12250D03*
X36500Y10250D03*
X52000Y25250D03*
X48000D03*
X12000Y20250D03*
Y19250D03*
Y18250D03*
X28750Y32750D03*
X32750D03*
Y31500D03*
X28750D03*
X30000Y16250D03*
X34000D03*
X30000Y15000D03*
X34000D03*
Y17500D03*
X30000D03*
X27500Y10750D03*
X23500D03*
X20500Y11500D03*
X16500D03*
X15500Y16750D03*
X11500D03*
X10250Y18250D03*
Y14250D03*
X34000Y18750D03*
X30000D03*
X28750Y15500D03*
X24750D03*
X33750Y34000D03*
X29750D03*
X32750Y24500D03*
X28750D03*
Y30250D03*
Y26250D03*
Y34000D03*
X26750D03*
X29500Y35500D03*
X31500D03*
X31750Y28000D03*
X33750D03*
X27500Y9000D03*
X25500D03*
X15000Y11500D03*
X13000D03*
X18500Y19000D03*
Y21000D03*
X21750Y15500D03*
X23750D03*
X28000Y22500D03*
X30000D03*
X35000Y29750D03*
Y31750D03*
X17250Y32000D03*
X15250D03*
X20500Y16500D03*
X16500D03*
X31750Y29750D03*
X32750D03*
X33750D03*
X30750Y26750D03*
X31750D03*
X32750D03*
X15500Y22250D03*
X13500D03*
X7000Y13250D03*
Y15250D03*
Y8250D03*
Y10250D03*
X31750Y4500D03*
X29750D03*
X34250Y10250D03*
Y12250D03*
X16000Y25250D03*
X12000D03*
D23*
X50500Y19250D03*
X51500D03*
X56250Y1000D03*
X61750Y37250D03*
X52000Y9000D03*
X54250Y1000D03*
X20250D03*
X49500D03*
X51000Y28250D03*
X14500Y19250D03*
X15500D03*
X25750Y37250D03*
X47500Y2000D03*
Y1000D03*
X18250D03*
X13500D03*
X16000Y9250D03*
X15000Y28250D03*
X11500Y1000D03*
Y2000D03*
D24*
X69500Y20500D03*
X58500Y19000D03*
X66000Y10250D03*
X63750Y18750D03*
X33500Y20500D03*
X22500Y19000D03*
X30000Y10250D03*
X27750Y18750D03*
D25*
X49250Y5250D03*
X40250D03*
X61250D03*
X52250D03*
X48750Y13750D03*
X57750D03*
X13250Y5250D03*
X4250D03*
X25250D03*
X16250D03*
X12750Y13750D03*
X21750D03*
D26*
X56750Y36500D03*
X42500Y1000D03*
X40250D03*
X61250D03*
X59000D03*
X51000Y36500D03*
X6500Y1000D03*
X4250D03*
X20750Y36500D03*
X15000D03*
X25250Y1000D03*
X23000D03*
D27*
X41000Y33000D03*
X38250Y22250D03*
X5000Y33000D03*
X2750Y22500D03*
X22500Y29000D03*
X58500D03*
D28*
X7250Y3250D03*
X15500D03*
X51500D03*
X43250D03*
D30*
X49500Y19250D03*
X62750Y37250D03*
X51000Y9000D03*
X50000Y28250D03*
X13500Y19250D03*
X26750Y37250D03*
X47500Y6750D03*
X15000Y9250D03*
X14000Y28250D03*
X11500Y6750D03*
D31*
X69500Y22500D03*
X56500Y19000D03*
X66000Y12250D03*
X61750Y18750D03*
X33500Y22500D03*
X20500Y19000D03*
X30000Y12250D03*
X25750Y18750D03*
D32*
X44750Y1000D03*
X58500Y36500D03*
X52750D03*
X63500Y1000D03*
X8750D03*
X22500Y36500D03*
X16750D03*
X27500Y1000D03*
D33*
X45500Y33000D03*
X42750Y22250D03*
X58500Y24500D03*
X9500Y33000D03*
X7250Y22500D03*
X22500Y24500D03*
D34*
X13750Y3250D03*
X22000D03*
X58000D03*
X49750D03*
D35*
X70500Y1500D03*
Y37000D03*
X37500Y1500D03*
Y37000D03*
X34500Y1500D03*
Y37000D03*
X1500Y1500D03*
Y37000D03*
%LPD*%
D29*
X0Y38500D02*
X72000D01*
Y0D01*
X0D01*
Y38500D01*
M02*
