G04*
G04 Format:               Gerber RS-274X*
G04 Layer:                BottomCopper*
G04 This File Name:       5 T-Amp - Stereo.gbl*
G04 Source File Name:     5 T-Amp - Stereo.pcb*
G04 Unique ID:            ade3dfdf-7e2b-446b-93ed-1f2b3b6aaaa2*
G04 Generated Date:       Sunday, 16 June 2024 12:46:47*
G04*
G04 Created Using:        Robot Room Copper Connection v2.7.5443*
G04 Software Contact:     http://www.robotroom.com/CopperConnection/Support.aspx*
G04 License Number:       1685*
G04 Student Edition:      true*
G04*
G04 Zero Suppression:     Leading*
G04 Number Precision:     2.4*
G04*
%FSLAX24Y24*%
%MOIN*%
%LNBottomCopper*%
%ADD10C,.05*%
%ADD11C,.056*%
%ADD12C,.06*%
%ADD13C,.074*%
%ADD14C,.075*%
%ADD15C,.08*%
%ADD16C,.084*%
%ADD17C,.099*%
%ADD18C,.1*%
%ADD19C,.104*%
%ADD20C,.12*%
%ADD21C,.124*%
%ADD22C,.13*%
%ADD23C,.14*%
%ADD24C,.144*%
%ADD25C,.15*%
%ADD26C,.154*%
%ADD27C,.164*%
%ADD28C,.174*%
%ADD29R,.006X.006*%
%ADD30R,.012X.012*%
%ADD31R,.075X.075*%
%ADD32R,.08X.08*%
%ADD33R,.099X.099*%
%ADD34R,.104X.104*%
%ADD35R,.13X.13*%
%ADD36R,.14X.14*%
%ADD37R,.15X.15*%
%ADD38R,.154X.154*%
%ADD39R,.164X.164*%
%ADD40R,.174X.174*%
%ADD41R,.25X.25*%
%ADD42R,.274X.274*%
%AMTHERMAL*7,0,0,$1,$1-$2-$2,$2,0*%
%ADD43THERMAL,.08X.012*%
%ADD44THERMAL,.099X.012*%
%ADD45THERMAL,.104X.012*%
%ADD46THERMAL,.124X.012*%
%ADD47THERMAL,.154X.012*%
%ADD48THERMAL,.164X.012*%
G36*
G01X30500Y49000D02*
X31500D01*
Y52500D01*
X30500D01*
Y49000D01*
G37*
G36*
X7250Y34000D02*
X8500Y34750D01*
Y33750D01*
X7250Y34000D01*
G37*
G36*
X30500Y13000D02*
X31500D01*
Y16500D01*
X30500D01*
Y13000D01*
G37*
G36*
X0Y72000D02*
Y0D01*
X38500D01*
Y72000D01*
X0D01*
G37*
%LPC*%
G36*
X37500Y53000D02*
Y48750D01*
X36250D01*
Y53000D01*
X37500D01*
G37*
G36*
X31250Y0D02*
X38500D01*
Y72000D01*
X31250D01*
Y0D01*
G37*
G36*
X30500Y18000D02*
Y18250D01*
X31250Y18500D01*
Y18000D01*
X30500D01*
G37*
G36*
X30500Y18250D02*
Y18500D01*
X31250Y19750D01*
Y18250D01*
X30500D01*
G37*
G36*
X30500Y18500D02*
Y19750D01*
X30750Y20500D01*
X31750Y19500D01*
Y18500D01*
X30500D01*
G37*
G36*
X30750Y20000D02*
Y20750D01*
X30500Y20000D01*
Y19750D01*
X30750Y20000D01*
G37*
G36*
X30500Y20000D02*
Y20500D01*
X30750Y21000D01*
Y20000D01*
X30500D01*
G37*
G36*
X30500Y54000D02*
Y56500D01*
X30750Y57000D01*
X31750Y55750D01*
Y54000D01*
X30500D01*
G37*
G36*
X31000Y67000D02*
Y69250D01*
X31750Y70000D01*
Y67000D01*
X31000D01*
G37*
G36*
X30500Y67750D02*
Y69500D01*
X31500Y70250D01*
Y66750D01*
X31000D01*
X30500Y67750D01*
G37*
G36*
X30500Y31750D02*
Y33000D01*
X31500Y34250D01*
Y30250D01*
X31000D01*
X30500Y31750D01*
G37*
G36*
X37500Y17000D02*
Y12750D01*
X36250D01*
Y17000D01*
X37500D01*
G37*
G36*
X32000Y10500D02*
Y18000D01*
X30500D01*
Y10500D01*
X32000D01*
G37*
G36*
X23500Y10250D02*
Y11500D01*
X31000D01*
Y10250D01*
X23500D01*
G37*
G36*
X23500Y46250D02*
Y47500D01*
X31000D01*
Y46250D01*
X23500D01*
G37*
G36*
X32000Y46750D02*
Y54250D01*
X30500D01*
Y46750D01*
X32000D01*
G37*
G36*
X18750Y50750D02*
Y49500D01*
X19750D01*
Y50750D01*
X18750D01*
G37*
G36*
X17750Y44750D02*
Y52000D01*
X23000D01*
Y44750D01*
X17750D01*
G37*
G36*
X23500Y10500D02*
Y8500D01*
X32000D01*
Y10500D01*
X23500D01*
G37*
G36*
X23500Y46750D02*
Y44750D01*
X32000D01*
Y46750D01*
X23500D01*
G37*
G36*
X20250Y11500D02*
Y9250D01*
X20750Y8750D01*
X24500D01*
Y11500D01*
X20250D01*
G37*
G36*
X20250Y47500D02*
Y45250D01*
X20750Y44750D01*
X24500D01*
Y47500D01*
X20250D01*
G37*
G36*
X8250Y66000D02*
X18500D01*
Y70500D01*
X8250D01*
Y66000D01*
G37*
G36*
X8500Y70000D02*
Y71250D01*
X15750D01*
X16000Y71000D01*
Y68000D01*
X8500D01*
Y70000D01*
G37*
G36*
X8500Y33750D02*
Y35000D01*
X15750D01*
X16000Y34750D01*
Y31750D01*
X8500D01*
Y33750D01*
G37*
G36*
X8250Y29750D02*
X18500D01*
Y34250D01*
X8250D01*
Y29750D01*
G37*
G36*
X17750Y8750D02*
Y16000D01*
X23000D01*
Y8750D01*
X17750D01*
G37*
D43*
X5750Y68750D03*
X21000Y66000D03*
X27750Y59500D03*
X4500Y65750D03*
X8250Y64750D03*
X3000Y65500D03*
X27000Y49000D03*
X6750Y71000D03*
X6500Y51250D03*
X23250Y36500D03*
X16250Y49500D03*
X23250Y43500D03*
X28000D03*
X34000Y65750D03*
X26250Y70250D03*
X28250Y36500D03*
X5750Y32750D03*
X21000Y30000D03*
X27750Y23500D03*
X4500Y29750D03*
X8250Y28750D03*
X3000Y29500D03*
X27000Y13000D03*
X6750Y35000D03*
X6500Y15250D03*
X16250Y13500D03*
X23250Y7000D03*
X28250D03*
X34000Y29750D03*
X26250Y34250D03*
D44*
X1250Y61750D03*
X29500Y52000D03*
X10250Y51000D03*
X1250Y25750D03*
X29250Y16000D03*
X10250Y15000D03*
D45*
X18000Y69500D03*
X28250Y66000D03*
X18000Y33500D03*
X28250Y30000D03*
D46*
X24750Y48750D03*
Y12750D03*
D47*
X2000Y56750D03*
Y51000D03*
Y20750D03*
Y15000D03*
D48*
X5500Y41000D03*
X16250Y38250D03*
X5500Y5000D03*
X16000Y2750D03*
D13*
X1250Y62750D02*
X4500D01*
Y64750D02*
X5750D01*
X8750Y67750D02*
X11750D01*
X5750Y64750D02*
X7000D01*
X11750Y67750D02*
X10500D01*
X11750Y68750D02*
X14000D01*
X8750D02*
X10250D01*
X16000Y69500D02*
Y70750D01*
X10500Y67750D02*
X30500D01*
X31000Y67250D01*
Y56750D01*
X15750Y35000D02*
X9000D01*
X10250Y68750D02*
X10500Y69000D01*
Y69750D01*
X8750D02*
Y70000D01*
X16000Y70750D02*
X15750Y71000D01*
X8750Y69750D02*
X8500D01*
X8750Y71000D02*
X9000D01*
X8750D02*
Y70750D01*
X4500Y69750D02*
X8500D01*
X14000Y58500D02*
Y64750D01*
X3000Y67500D02*
X6750D01*
X7000Y68750D02*
X7250D01*
X27000Y51250D02*
X27250Y51000D01*
X19250Y49000D02*
X19750Y49500D01*
X7000Y67750D02*
X6750Y67500D01*
X19750Y70000D02*
X21000D01*
X22250D01*
X19750Y66000D02*
X19500D01*
X16000D02*
X10000D01*
X19750D02*
Y65750D01*
X10000Y66000D02*
X9500Y65500D01*
X19500Y66000D02*
X19750Y65750D01*
X9500Y65500D02*
Y58500D01*
X16000Y66000D02*
X19500D01*
X19750Y63750D02*
Y65750D01*
X23500Y66000D02*
X22250D01*
X23500D02*
X26250D01*
X27750Y63500D02*
X29500D01*
X23250D01*
X23000Y63750D01*
Y64750D01*
X24750Y57750D02*
X23000D01*
Y59750D02*
Y60750D01*
X19750Y61750D02*
X22750D01*
X19250Y49500D02*
Y49000D01*
X22750Y61750D02*
X23000Y61500D01*
X19250Y51500D02*
Y51250D01*
X23000Y61500D02*
Y60750D01*
X19250Y51500D02*
X19500D01*
X20250Y48000D02*
Y46250D01*
X37500Y44750D02*
X20750D01*
X20250Y45250D01*
X31750Y47500D02*
X21750D01*
X20250Y45250D02*
Y46250D01*
X19500Y56500D02*
X22000D01*
X19500Y54500D02*
Y56500D01*
X22000D02*
X27000D01*
X19250Y49500D02*
X19750D01*
X27000Y51250D02*
X26750Y51000D01*
X22500Y49500D02*
X24000Y51000D01*
X27000D01*
Y52500D02*
Y51000D01*
X29500D01*
X13250Y48000D02*
X10750D01*
X10250Y48500D01*
Y50000D01*
X37500Y20250D02*
X31500D01*
X31000Y20750D01*
X27000Y15250D02*
X27250Y15000D01*
X37500Y49500D02*
Y54250D01*
X1250Y26750D02*
X4500D01*
Y28750D02*
X5750D01*
X7000Y32750D02*
X7250D01*
X8750Y31750D02*
X11750D01*
X5750Y28750D02*
X7000D01*
X11750Y31750D02*
X10500D01*
X11750Y32750D02*
X14000D01*
X8750Y33750D02*
X8500D01*
X8750D02*
Y34000D01*
Y32750D02*
X10250D01*
X16000Y33500D02*
Y34750D01*
X10500Y31750D02*
X30500D01*
X31000Y31250D01*
Y20750D01*
X8750Y34750D02*
X9000Y35000D01*
X10250Y32750D02*
X10500Y33000D01*
X8750Y35000D02*
Y34750D01*
X10500Y33000D02*
Y33750D01*
X16000Y34750D02*
X15750Y35000D01*
X8750D02*
X9000D01*
X8750Y34000D02*
X8500Y33750D01*
X8750Y34750D02*
Y34000D01*
X4500Y33750D02*
X8500D01*
X14000Y22500D02*
Y28750D01*
X3000Y31500D02*
X6750D01*
X7000Y32500D02*
X7250Y32750D01*
X6750Y31500D02*
X7000Y31750D01*
Y32500D01*
X19750Y34000D02*
X21000D01*
X22250D01*
X19750Y30000D02*
X19250D01*
X16000D02*
X10000D01*
X19750D02*
Y29500D01*
X10000Y30000D02*
X9500Y29500D01*
X19250Y30000D02*
X19750Y29500D01*
X9500D02*
Y22500D01*
X16000Y30000D02*
X19250D01*
X19750Y27750D02*
Y29500D01*
X23500Y30000D02*
X22250D01*
X23500D02*
X26250D01*
X27750Y27500D02*
X29500D01*
X23250D01*
X23000Y27750D01*
Y28750D01*
X24750Y21750D02*
X23000D01*
Y23750D02*
Y24750D01*
X19750Y25750D02*
X22750D01*
X19250Y13500D02*
Y13000D01*
X22750Y25750D02*
X23000Y25500D01*
X19250Y15500D02*
Y14500D01*
X23000Y25500D02*
Y24750D01*
X19250Y15500D02*
X21750D01*
X20250Y12000D02*
Y10250D01*
X37500Y8750D02*
X20500D01*
X20250Y9000D01*
X31750Y11500D02*
X21750D01*
X20250Y9000D02*
Y10250D01*
X19500Y20500D02*
X22000D01*
X19500Y18500D02*
Y20500D01*
X22000D02*
X27000D01*
X19250Y13500D02*
X19750D01*
X27000Y15250D02*
X26750Y15000D01*
X22500Y13500D02*
X24000Y15000D01*
X27000D01*
Y16500D02*
Y15000D01*
X29250D01*
X13250Y12000D02*
X10750D01*
X10250Y12500D01*
Y14000D01*
X15750Y71000D02*
X9000D01*
X7000Y68750D02*
Y68500D01*
X8750Y68750D02*
X7250D01*
X7000Y67750D02*
Y68500D01*
X7250Y68750D02*
X7000Y68500D01*
X19250Y51250D02*
X19500Y51500D01*
X8750Y70000D02*
X8500Y69750D01*
X19250Y50500D02*
Y51250D01*
X21750Y51500D02*
X19500D01*
X22500Y49500D02*
X19750D01*
X19250Y48000D02*
Y49000D01*
X8750Y70750D02*
X9000Y71000D01*
X7000Y32750D02*
Y32500D01*
X8750Y32750D02*
X7250D01*
X8750Y70000D02*
Y70750D01*
X19250Y15250D02*
X19500Y15500D01*
X19250Y13000D02*
X19750Y13500D01*
X19250Y12000D02*
Y13000D01*
X22500Y13500D02*
X19750D01*
X37500D02*
Y18250D01*
Y56250D02*
X31500D01*
X31000Y56750D01*
D15*
X18250Y48000D03*
X5750Y64750D03*
X7000Y68750D03*
Y64750D03*
X22250Y66000D03*
Y70000D03*
X23500Y66000D03*
Y70000D03*
X21000D03*
X27750Y63500D03*
X27000Y56500D03*
Y52500D03*
X21750Y51500D03*
Y47500D03*
X20250Y46250D03*
X24250D03*
X19750Y70000D03*
Y66000D03*
X23000Y64750D03*
Y60750D03*
X4500Y69750D03*
X14000Y68750D03*
Y64750D03*
X12250D03*
X4500D03*
Y62750D03*
X3000Y67500D03*
X10500Y67750D03*
Y69750D03*
X29500Y63500D03*
Y61500D03*
X27000Y51000D03*
X19500Y54500D03*
X17500D03*
X23000Y57750D03*
Y59750D03*
X16000Y64000D03*
Y66000D03*
X8750Y71000D03*
X6500Y53250D03*
X22000Y56500D03*
Y52500D03*
X25250Y36500D03*
X19250Y48000D03*
X20250D03*
X8750Y67750D03*
Y68750D03*
Y69750D03*
X11750Y66750D03*
Y67750D03*
Y68750D03*
X30250Y36500D03*
X16250Y51500D03*
X25250Y43500D03*
X30000D03*
X34000Y67750D03*
X28250Y70250D03*
X13250Y52000D03*
Y48000D03*
X18250Y12000D03*
X19250D03*
X20250D03*
X5750Y28750D03*
X7000Y32750D03*
Y28750D03*
X22250Y30000D03*
Y34000D03*
X23500Y30000D03*
Y34000D03*
X21000D03*
X27750Y27500D03*
X27000Y20500D03*
Y16500D03*
X21750Y15500D03*
Y11500D03*
X20250Y10250D03*
X24250D03*
X19750Y34000D03*
Y30000D03*
X23000Y28750D03*
Y24750D03*
X4500Y33750D03*
X14000Y32750D03*
Y28750D03*
X12250D03*
X4500D03*
Y26750D03*
X3000Y31500D03*
X10500Y31750D03*
Y33750D03*
X29500Y27500D03*
Y25500D03*
X27000Y15000D03*
X19500Y18500D03*
X17500D03*
X23000Y21750D03*
Y23750D03*
X16000Y28000D03*
Y30000D03*
X8750Y35000D03*
X6500Y17250D03*
X22000Y20500D03*
Y16500D03*
X8750Y31750D03*
Y32750D03*
Y33750D03*
X11750Y30750D03*
Y31750D03*
Y32750D03*
X16250Y15500D03*
X25250Y7000D03*
X30250D03*
X34000Y31750D03*
X28250Y34250D03*
X13250Y16000D03*
Y12000D03*
D16*
X37500Y47500D02*
X36500D01*
X37500Y11500D02*
X36500D01*
D17*
X19250Y50500D03*
Y51500D03*
X37500Y56250D03*
Y54250D03*
Y20250D03*
Y49500D03*
X19250Y14500D03*
Y15500D03*
X36500Y47500D03*
X37500D03*
Y18250D03*
Y13500D03*
Y11500D03*
X36500D03*
D19*
X19500Y58500D03*
X19750Y63750D03*
X19500Y22500D03*
X19750Y27750D03*
D21*
X33250Y40250D03*
Y61250D03*
X24750Y57750D03*
X33250Y4250D03*
Y25250D03*
X24750Y21750D03*
D24*
X2000Y58500D02*
X9500D01*
X37500Y40250D02*
X36000D01*
X19500Y58500D02*
X18000D01*
X24250Y46250D02*
X32750D01*
X14000Y58500D02*
X17000D01*
X32750Y46250D02*
X33250Y46750D01*
Y48500D01*
X17500Y54500D02*
Y58000D01*
X18000Y58500D01*
X17500D02*
Y58000D01*
Y58500D02*
X18000D01*
X17500D02*
X17000D01*
X17500Y58000D02*
X17000Y58500D01*
X35750Y49250D02*
Y49750D01*
Y51750D02*
X33250D01*
Y52250D02*
X35750D01*
X35250Y60500D02*
Y58000D01*
X34750Y40250D02*
X35250D01*
Y41000D02*
Y40250D01*
Y60500D02*
X36000Y61250D01*
X35250D02*
Y60500D01*
X33250Y51750D02*
Y51250D01*
X35250Y60500D02*
X34500Y61250D01*
X35250Y40250D02*
X36000D01*
X35250Y43250D02*
Y41000D01*
X36000Y40250D01*
X35250Y41000D02*
X34750Y40250D01*
X33250D01*
X35750Y52250D02*
Y51250D01*
X33250Y52250D02*
Y50750D01*
Y51250D02*
X35750D01*
Y49250D02*
X34250D01*
X35750Y51250D02*
Y50750D01*
Y50250D01*
X33250Y50750D02*
X35750D01*
X33250Y49250D02*
Y50750D01*
Y49250D02*
Y50250D01*
X35750D01*
Y49750D01*
X33250D01*
Y48500D02*
X34250Y49250D01*
X33250D02*
Y48500D01*
Y49250D02*
X34250D01*
X35250Y61250D02*
X34500D01*
Y4250D02*
X35250D01*
X36000D01*
X35250Y5000D02*
Y4250D01*
Y58000D02*
Y61250D01*
Y5000D02*
X36000Y4250D01*
X33250Y61250D02*
X34500D01*
X36000D01*
X2000Y22500D02*
X9500D01*
X37500Y25250D02*
X35250D01*
X37500Y4250D02*
X36000D01*
X19500Y22500D02*
X18000D01*
X24250Y10250D02*
X32750D01*
X14000Y22500D02*
X17000D01*
X32750Y10250D02*
X33250Y10750D01*
Y12500D01*
X17500Y18500D02*
Y22000D01*
X18000Y22500D01*
X17500D02*
Y22000D01*
Y22500D02*
X18000D01*
X17500D02*
X17000D01*
X17500Y22000D02*
X17000Y22500D01*
X35750Y13250D02*
Y13750D01*
Y15750D02*
X33250D01*
Y16250D02*
X35750D01*
X33250Y25250D02*
X35250D01*
Y22000D02*
Y24500D01*
X35750Y25000D01*
X35250Y25250D02*
Y24500D01*
X33250Y15750D02*
Y15250D01*
X35250Y24500D02*
X34750Y25000D01*
X35250Y7250D02*
Y5000D01*
X34500Y4250D01*
X33250D01*
X35750Y16250D02*
Y15250D01*
X33250Y16250D02*
Y14750D01*
Y15250D02*
X35750D01*
Y13250D02*
X34250D01*
X35750Y15250D02*
Y14750D01*
Y14250D01*
X33250Y14750D02*
X35750D01*
X33250Y13250D02*
Y14750D01*
Y13250D02*
Y14250D01*
X35750D01*
Y13750D01*
X33250D01*
Y12500D02*
X34250Y13250D01*
X33250D02*
Y12500D01*
Y13250D02*
X34250D01*
X35250Y61250D02*
X36000D01*
X37500D02*
X36000D01*
D26*
X37500Y42500D03*
Y61250D03*
Y6500D03*
Y25250D03*
D27*
X9500Y22500D03*
Y58500D03*
D28*
X35250Y7250D03*
Y15500D03*
Y51500D03*
Y43250D03*
D33*
X19250Y49500D03*
X1250Y62750D03*
X29500Y51000D03*
X10250Y50000D03*
X19250Y13500D03*
X1250Y26750D03*
X31750Y47500D03*
X29250Y15000D03*
X10250Y14000D03*
X31750Y11500D03*
D34*
X16000Y69500D03*
X19500Y56500D03*
X26250Y66000D03*
X19750Y61750D03*
X16000Y33500D03*
X19500Y20500D03*
X26250Y30000D03*
X19750Y25750D03*
D38*
X2000Y58500D03*
Y52750D03*
Y22500D03*
Y16750D03*
D39*
X5500Y45500D03*
X16250Y42750D03*
X14000Y58500D03*
X5500Y9500D03*
X16000Y7250D03*
X14000Y22500D03*
D40*
X35250Y13750D03*
Y22000D03*
Y58000D03*
Y49750D03*
D30*
X35690Y70620D02*
Y71810D01*
X36880D01*
X37120D02*
X38310D01*
Y70620D01*
Y70380D02*
Y69190D01*
X37120D01*
X36880D02*
X35690D01*
Y70380D01*
X190Y70620D02*
Y71810D01*
X1380D01*
X1620D02*
X2810D01*
Y70620D01*
Y70380D02*
Y69190D01*
X1620D01*
X1380D02*
X190D01*
Y70380D01*
D42*
X37000Y37500D03*
D30*
X190Y37620D02*
Y38810D01*
X1380D01*
X1620D02*
X2810D01*
Y37620D01*
Y37380D02*
Y36190D01*
X1620D01*
X1380D02*
X190D01*
Y37380D01*
X35690Y34620D02*
Y35810D01*
X36880D01*
X37120D02*
X38310D01*
Y34620D01*
Y34380D02*
Y33190D01*
X37120D01*
X36880D02*
X35690D01*
Y34380D01*
X190Y34620D02*
Y35810D01*
X1380D01*
X1620D02*
X2810D01*
Y34620D01*
Y34380D02*
Y33190D01*
X1620D01*
X1380D02*
X190D01*
Y34380D01*
D42*
X37000Y1500D03*
D30*
X190Y1620D02*
Y2810D01*
X1380D01*
X1620D02*
X2810D01*
Y1620D01*
Y1380D02*
Y190D01*
X1620D01*
X1380D02*
X190D01*
Y1380D01*
%LPD*%
D10*
X1250Y62750D02*
X4500D01*
Y64750D02*
X5750D01*
X8750Y67750D02*
X11750D01*
X5750Y64750D02*
X7000D01*
X11750Y67750D02*
X10500D01*
X11750Y68750D02*
X14000D01*
X8750D02*
X10250D01*
X16000Y69500D02*
Y70750D01*
X10500Y67750D02*
X30500D01*
X31000Y67250D01*
Y56750D01*
X15750Y35000D02*
X9000D01*
X10250Y68750D02*
X10500Y69000D01*
Y69750D01*
X8750D02*
Y70000D01*
X16000Y70750D02*
X15750Y71000D01*
X8750Y69750D02*
X8500D01*
X8750Y71000D02*
X9000D01*
X8750D02*
Y70750D01*
X4500Y69750D02*
X8500D01*
X14000Y58500D02*
Y64750D01*
X3000Y67500D02*
X6750D01*
X7000Y68750D02*
X7250D01*
X27000Y51250D02*
X27250Y51000D01*
X19250Y49000D02*
X19750Y49500D01*
X7000Y67750D02*
X6750Y67500D01*
X19750Y70000D02*
X21000D01*
X22250D01*
X19750Y66000D02*
X19500D01*
X16000D02*
X10000D01*
X19750D02*
Y65750D01*
X10000Y66000D02*
X9500Y65500D01*
X19500Y66000D02*
X19750Y65750D01*
X9500Y65500D02*
Y58500D01*
X16000Y66000D02*
X19500D01*
X19750Y63750D02*
Y65750D01*
X23500Y66000D02*
X22250D01*
X23500D02*
X26250D01*
X27750Y63500D02*
X29500D01*
X23250D01*
X23000Y63750D01*
Y64750D01*
X24750Y57750D02*
X23000D01*
Y59750D02*
Y60750D01*
X19750Y61750D02*
X22750D01*
X19250Y49500D02*
Y49000D01*
X22750Y61750D02*
X23000Y61500D01*
X19250Y51500D02*
Y51250D01*
X23000Y61500D02*
Y60750D01*
X19250Y51500D02*
X19500D01*
X20250Y48000D02*
Y46250D01*
X37500Y44750D02*
X20750D01*
X20250Y45250D01*
X31750Y47500D02*
X21750D01*
X20250Y45250D02*
Y46250D01*
X19500Y56500D02*
X22000D01*
X19500Y54500D02*
Y56500D01*
X22000D02*
X27000D01*
X19250Y49500D02*
X19750D01*
X27000Y51250D02*
X26750Y51000D01*
X22500Y49500D02*
X24000Y51000D01*
X27000D01*
Y52500D02*
Y51000D01*
X29500D01*
X13250Y48000D02*
X10750D01*
X10250Y48500D01*
Y50000D01*
X37500Y20250D02*
X31500D01*
X31000Y20750D01*
X27000Y15250D02*
X27250Y15000D01*
X37500Y49500D02*
Y54250D01*
X18250Y33500D02*
Y33750D01*
Y34500D02*
X18500D01*
X18250Y33750D02*
X17500Y34500D01*
X18500D02*
X18750Y32750D01*
X18250Y34500D02*
Y33750D01*
X18750Y32750D02*
X18000Y33500D01*
Y69500D02*
X19000Y68500D01*
X18000Y69500D02*
X18750Y70000D01*
X18000Y69500D02*
X18750Y70250D01*
X18000Y69500D02*
X18500Y70500D01*
X18000Y69500D02*
X18250Y70750D01*
X18000Y69500D02*
Y70750D01*
X1250Y26750D02*
X4500D01*
Y28750D02*
X5750D01*
X7000Y32750D02*
X7250D01*
X8750Y31750D02*
X11750D01*
X5750Y28750D02*
X7000D01*
X11750Y31750D02*
X10500D01*
X11750Y32750D02*
X14000D01*
X8750Y33750D02*
X8500D01*
X8750D02*
Y34000D01*
Y32750D02*
X10250D01*
X16000Y33500D02*
Y34750D01*
X10500Y31750D02*
X30500D01*
X31000Y31250D01*
Y20750D01*
X8750Y34750D02*
X9000Y35000D01*
X10250Y32750D02*
X10500Y33000D01*
X8750Y35000D02*
Y34750D01*
X10500Y33000D02*
Y33750D01*
X16000Y34750D02*
X15750Y35000D01*
X8750D02*
X9000D01*
X8750Y34000D02*
X8500Y33750D01*
X8750Y34750D02*
Y34000D01*
X4500Y33750D02*
X8500D01*
X14000Y22500D02*
Y28750D01*
X3000Y31500D02*
X6750D01*
X7000Y32500D02*
X7250Y32750D01*
X6750Y31500D02*
X7000Y31750D01*
Y32500D01*
X19750Y34000D02*
X21000D01*
X22250D01*
X19750Y30000D02*
X19250D01*
X16000D02*
X10000D01*
X19750D02*
Y29500D01*
X10000Y30000D02*
X9500Y29500D01*
X19250Y30000D02*
X19750Y29500D01*
X9500D02*
Y22500D01*
X16000Y30000D02*
X19250D01*
X19750Y27750D02*
Y29500D01*
X23500Y30000D02*
X22250D01*
X23500D02*
X26250D01*
X27750Y27500D02*
X29500D01*
X23250D01*
X23000Y27750D01*
Y28750D01*
X24750Y21750D02*
X23000D01*
Y23750D02*
Y24750D01*
X19750Y25750D02*
X22750D01*
X19250Y13500D02*
Y13000D01*
X22750Y25750D02*
X23000Y25500D01*
X19250Y15500D02*
Y14500D01*
X23000Y25500D02*
Y24750D01*
X19250Y15500D02*
X21750D01*
X18000Y69500D02*
X17750Y70750D01*
X20250Y12000D02*
Y10250D01*
X37500Y8750D02*
X20500D01*
X20250Y9000D01*
X31750Y11500D02*
X21750D01*
X20250Y9000D02*
Y10250D01*
X19500Y20500D02*
X22000D01*
X19500Y18500D02*
Y20500D01*
X22000D02*
X27000D01*
X19250Y13500D02*
X19750D01*
X27000Y15250D02*
X26750Y15000D01*
X22500Y13500D02*
X24000Y15000D01*
X27000D01*
Y16500D02*
Y15000D01*
X18000Y69500D02*
X17500Y70750D01*
X27000Y15000D02*
X29250D01*
X13250Y12000D02*
X10750D01*
X10250Y12500D01*
Y14000D01*
X15750Y71000D02*
X9000D01*
X7000Y68750D02*
Y68500D01*
X8750Y68750D02*
X7250D01*
X7000Y67750D02*
Y68500D01*
X7250Y68750D02*
X7000Y68500D01*
X19250Y51250D02*
X19500Y51500D01*
X8750Y70000D02*
X8500Y69750D01*
X19250Y50500D02*
Y51250D01*
X21750Y51500D02*
X19500D01*
X22500Y49500D02*
X19750D01*
X19250Y48000D02*
Y49000D01*
X8750Y70750D02*
X9000Y71000D01*
X7000Y32750D02*
Y32500D01*
X8750Y32750D02*
X7250D01*
X8750Y70000D02*
Y70750D01*
X19250Y15250D02*
X19500Y15500D01*
X19250Y13000D02*
X19750Y13500D01*
X19250Y12000D02*
Y13000D01*
X22500Y13500D02*
X19750D01*
X18000Y69500D02*
X19250D01*
X18000Y33500D02*
X19000D01*
X37500Y13500D02*
Y18250D01*
X18000Y69500D02*
X17250Y70750D01*
X18000Y69500D02*
X17000Y70750D01*
X37500Y56250D02*
X31500D01*
X31000Y56750D01*
X18000Y33500D02*
X17000Y34500D01*
D11*
X18250Y48000D03*
X5750Y64750D03*
Y68750D03*
X7000D03*
Y64750D03*
X22250Y66000D03*
Y70000D03*
X23500Y66000D03*
Y70000D03*
X21000D03*
Y66000D03*
X27750Y63500D03*
Y59500D03*
X27000Y56500D03*
Y52500D03*
X21750Y51500D03*
Y47500D03*
X20250Y46250D03*
X24250D03*
X19750Y70000D03*
Y66000D03*
X23000Y64750D03*
Y60750D03*
X4500Y69750D03*
Y65750D03*
X14000Y68750D03*
Y64750D03*
X8250D03*
X12250D03*
X4500D03*
Y62750D03*
X3000Y65500D03*
Y67500D03*
X10500Y67750D03*
Y69750D03*
X29500Y63500D03*
Y61500D03*
X27000Y51000D03*
Y49000D03*
X19500Y54500D03*
X17500D03*
X23000Y57750D03*
Y59750D03*
X16000Y64000D03*
Y66000D03*
X8750Y71000D03*
X6750D03*
X6500Y53250D03*
Y51250D03*
X22000Y56500D03*
Y52500D03*
X25250Y36500D03*
X23250D03*
X19250Y48000D03*
X20250D03*
X8750Y67750D03*
Y68750D03*
Y69750D03*
X11750Y66750D03*
Y67750D03*
Y68750D03*
X30250Y36500D03*
X16250Y51500D03*
Y49500D03*
X25250Y43500D03*
X23250D03*
X30000D03*
X28000D03*
X34000Y67750D03*
Y65750D03*
X28250Y70250D03*
X26250D03*
X28250Y36500D03*
X13250Y52000D03*
Y48000D03*
X18250Y12000D03*
X19250D03*
X20250D03*
X5750Y28750D03*
Y32750D03*
X7000D03*
Y28750D03*
X22250Y30000D03*
Y34000D03*
X23500Y30000D03*
Y34000D03*
X21000D03*
Y30000D03*
X27750Y27500D03*
Y23500D03*
X27000Y20500D03*
Y16500D03*
X21750Y15500D03*
Y11500D03*
X20250Y10250D03*
X24250D03*
X19750Y34000D03*
Y30000D03*
X23000Y28750D03*
Y24750D03*
X4500Y33750D03*
Y29750D03*
X14000Y32750D03*
Y28750D03*
X8250D03*
X12250D03*
X4500D03*
Y26750D03*
X3000Y29500D03*
Y31500D03*
X10500Y31750D03*
Y33750D03*
X29500Y27500D03*
Y25500D03*
X27000Y15000D03*
Y13000D03*
X19500Y18500D03*
X17500D03*
X23000Y21750D03*
Y23750D03*
X16000Y28000D03*
Y30000D03*
X8750Y35000D03*
X6750D03*
X6500Y17250D03*
Y15250D03*
X22000Y20500D03*
Y16500D03*
X8750Y31750D03*
Y32750D03*
Y33750D03*
X11750Y30750D03*
Y31750D03*
Y32750D03*
X16250Y15500D03*
Y13500D03*
X25250Y7000D03*
X23250D03*
X30250D03*
X28250D03*
X34000Y31750D03*
Y29750D03*
X28250Y34250D03*
X26250D03*
X13250Y16000D03*
Y12000D03*
D12*
X37500Y47500D02*
X36500D01*
X37500Y11500D02*
X36500D01*
D14*
X19250Y50500D03*
Y51500D03*
X37500Y56250D03*
X1250Y61750D03*
X29500Y52000D03*
X37500Y54250D03*
Y20250D03*
Y49500D03*
X10250Y51000D03*
X19250Y14500D03*
Y15500D03*
X1250Y25750D03*
X36500Y47500D03*
X37500D03*
Y18250D03*
Y13500D03*
X29250Y16000D03*
X10250Y15000D03*
X37500Y11500D03*
X36500D03*
D15*
X18000Y69500D03*
X19500Y58500D03*
X28250Y66000D03*
X19750Y63750D03*
X18000Y33500D03*
X19500Y22500D03*
X28250Y30000D03*
X19750Y27750D03*
D18*
X33250Y49250D03*
Y40250D03*
Y61250D03*
Y52250D03*
X24750Y48750D03*
Y57750D03*
X33250Y13250D03*
Y4250D03*
Y25250D03*
Y16250D03*
X24750Y12750D03*
Y21750D03*
D20*
X2000Y58500D02*
X9500D01*
X37500Y40250D02*
X36000D01*
X19500Y58500D02*
X18000D01*
X24250Y46250D02*
X32750D01*
X14000Y58500D02*
X17000D01*
X32750Y46250D02*
X33250Y46750D01*
Y48500D01*
X17500Y54500D02*
Y58000D01*
X18000Y58500D01*
X17500D02*
Y58000D01*
Y58500D02*
X18000D01*
X17500D02*
X17000D01*
X17500Y58000D02*
X17000Y58500D01*
X35750Y49250D02*
Y49750D01*
Y51750D02*
X33250D01*
Y52250D02*
X35750D01*
X35250Y60500D02*
Y58000D01*
X34750Y40250D02*
X35250D01*
Y41000D02*
Y40250D01*
Y60500D02*
X36000Y61250D01*
X35250D02*
Y60500D01*
X33250Y51750D02*
Y51250D01*
X35250Y60500D02*
X34500Y61250D01*
X35250Y40250D02*
X36000D01*
X35250Y43250D02*
Y41000D01*
X36000Y40250D01*
X35250Y41000D02*
X34750Y40250D01*
X33250D01*
X35750Y52250D02*
Y51250D01*
X33250Y52250D02*
Y50750D01*
Y51250D02*
X35750D01*
Y49250D02*
X34250D01*
X35750Y51250D02*
Y50750D01*
Y50250D01*
X33250Y50750D02*
X35750D01*
X33250Y49250D02*
Y50750D01*
Y49250D02*
Y50250D01*
X35750D01*
Y49750D01*
X33250D01*
Y48500D02*
X34250Y49250D01*
X33250D02*
Y48500D01*
Y49250D02*
X34250D01*
X35250Y61250D02*
X34500D01*
Y4250D02*
X35250D01*
X36000D01*
X35250Y5000D02*
Y4250D01*
Y58000D02*
Y61250D01*
Y5000D02*
X36000Y4250D01*
X33250Y61250D02*
X34500D01*
X36000D01*
X2000Y22500D02*
X9500D01*
X37500Y25250D02*
X35250D01*
X37500Y4250D02*
X36000D01*
X19500Y22500D02*
X18000D01*
X24250Y10250D02*
X32750D01*
X14000Y22500D02*
X17000D01*
X32750Y10250D02*
X33250Y10750D01*
Y12500D01*
X17500Y18500D02*
Y22000D01*
X18000Y22500D01*
X17500D02*
Y22000D01*
Y22500D02*
X18000D01*
X17500D02*
X17000D01*
X17500Y22000D02*
X17000Y22500D01*
X35750Y13250D02*
Y13750D01*
Y15750D02*
X33250D01*
Y16250D02*
X35750D01*
X33250Y25250D02*
X35250D01*
Y22000D02*
Y24500D01*
X35750Y25000D01*
X35250Y25250D02*
Y24500D01*
X33250Y15750D02*
Y15250D01*
X35250Y24500D02*
X34750Y25000D01*
X35250Y7250D02*
Y5000D01*
X34500Y4250D01*
X33250D01*
X35750Y16250D02*
Y15250D01*
X33250Y16250D02*
Y14750D01*
Y15250D02*
X35750D01*
Y13250D02*
X34250D01*
X35750Y15250D02*
Y14750D01*
Y14250D01*
X33250Y14750D02*
X35750D01*
X33250Y13250D02*
Y14750D01*
Y13250D02*
Y14250D01*
X35750D01*
Y13750D01*
X33250D01*
Y12500D02*
X34250Y13250D01*
X33250D02*
Y12500D01*
Y13250D02*
X34250D01*
X35250Y61250D02*
X36000D01*
X37500D02*
X36000D01*
D22*
X2000Y56750D03*
X37500Y42500D03*
Y40250D03*
Y61250D03*
Y59000D03*
X2000Y51000D03*
X37500Y6500D03*
Y4250D03*
X2000Y20750D03*
Y15000D03*
X37500Y25250D03*
Y23000D03*
D23*
X5500Y41000D03*
X16250Y38250D03*
X5500Y5000D03*
X16000Y2750D03*
X9500Y22500D03*
Y58500D03*
D25*
X35250Y7250D03*
Y15500D03*
Y51500D03*
Y43250D03*
D31*
X19250Y49500D03*
X1250Y62750D03*
X29500Y51000D03*
X10250Y50000D03*
X19250Y13500D03*
X1250Y26750D03*
X31750Y47500D03*
X29250Y15000D03*
X10250Y14000D03*
X31750Y11500D03*
D32*
X16000Y69500D03*
X19500Y56500D03*
X26250Y66000D03*
X19750Y61750D03*
X16000Y33500D03*
X19500Y20500D03*
X26250Y30000D03*
X19750Y25750D03*
D35*
X37500Y44750D03*
X2000Y58500D03*
Y52750D03*
X37500Y63500D03*
Y8750D03*
X2000Y22500D03*
Y16750D03*
X37500Y27500D03*
D36*
X5500Y45500D03*
X16250Y42750D03*
X14000Y58500D03*
X5500Y9500D03*
X16000Y7250D03*
X14000Y22500D03*
D37*
X35250Y13750D03*
Y22000D03*
Y58000D03*
Y49750D03*
D41*
X37000Y70500D03*
X1500D03*
X37000Y37500D03*
X1500D03*
X37000Y34500D03*
X1500D03*
X37000Y1500D03*
X1500D03*
M02*
